<mxfile host="app.diagrams.net" modified="2024-08-01T16:21:17.296Z" agent="Mozilla/5.0 (Windows NT 10.0; Win64; x64) AppleWebKit/537.36 (KHTML, like Gecko) Chrome/127.0.0.0 Safari/537.36 Edg/127.0.0.0" etag="ASNHln9gZpp3LmJ_NjIn" version="24.6.4" type="device">
  <diagram name="Page-1" id="7liqnv5qbrZkupaiTGZB">
    <mxGraphModel dx="2194" dy="856" grid="1" gridSize="10" guides="1" tooltips="1" connect="1" arrows="1" fold="1" page="1" pageScale="1" pageWidth="850" pageHeight="1100" background="#FFFFFF" math="0" shadow="0">
      <root>
        <mxCell id="0" />
        <mxCell id="1" parent="0" />
        <mxCell id="PMkHhHRLikVArC7X6fYa-55" style="edgeStyle=orthogonalEdgeStyle;rounded=0;orthogonalLoop=1;jettySize=auto;html=1;exitX=0.5;exitY=0;exitDx=0;exitDy=0;entryX=0;entryY=0.5;entryDx=0;entryDy=0;" edge="1" parent="1" source="PMkHhHRLikVArC7X6fYa-36" target="PMkHhHRLikVArC7X6fYa-40">
          <mxGeometry relative="1" as="geometry" />
        </mxCell>
        <mxCell id="PMkHhHRLikVArC7X6fYa-56" style="edgeStyle=orthogonalEdgeStyle;rounded=0;orthogonalLoop=1;jettySize=auto;html=1;exitX=0.5;exitY=0;exitDx=0;exitDy=0;" edge="1" parent="1" source="PMkHhHRLikVArC7X6fYa-36" target="PMkHhHRLikVArC7X6fYa-41">
          <mxGeometry relative="1" as="geometry" />
        </mxCell>
        <mxCell id="PMkHhHRLikVArC7X6fYa-36" value="" style="shape=image;verticalLabelPosition=bottom;labelBackgroundColor=default;verticalAlign=top;aspect=fixed;imageAspect=0;image=data:image/png,iVBORw0KGgoAAAANSUhEUgAAAZcAAAHiCAYAAAAkiYF/AAAACXBIWXMAAAsTAAALEwEAmpwYAAAgAElEQVR4nOzdeVxO6f8/8NfdolWozBjDSJR97PtS2QljywhlJySRNZKyU9pEKpItO6OxxCBmLJ9h7LKkxdiTSvt2n/fvD7/uL/PxmWHcd+de3s/HY/4xdd/vc3Wu8zrnOtd1joSICIwxxpgcaYldAGOMMfXD4cIYY0zuOFwYY4zJHYcLY4wxueNwYYwxJnccLowxxuSOw4UxxpjccbgwxhiTOw4XxhhjcsfhwhhjTO44XBhjjMkdhwtjjDG543BhjDEmdxwujDHG5I7DhTHGmNzpiF0AY6qAiPDmzRvk5ubC2NgYZmZmkEgkYpfFmNLiKxfG/kZWVhaCgoJgZWWFqlWronbt2qhatSqsrKwQFBSErKwssUtkTClJ+E2UjH1cXFwchgwZgvz8fADvrl7KlF21GBoa4sCBA+jVq5coNTKmrDhcGPuIuLg42Nvbg4ggCML//DktLS1IJBIcPXqUA4ax93C4MPYXWVlZqFGjBgoKCv42WMpoaWnBwMAAT58+ReXKlcuhQsaUH99zYewvoqOjkZ+f/0nBAgCCICA/Px/btm1TcGWMqQ6+cmHsPUQEKysrJCcn43O6hkQigaWlJRITE3kWGWPgcGHsA+np6ahateoX/b6ZmZkcK2JMNfGwGGPvyc3N/aLfz8nJkVMljKk2DhfG3mNsbPxFv1+xYkU5VcKYauNwYew9ZmZmqF69+r/63Tp16sDU1FTOFTGmmjhcGPv/zp8/j+7du+P58+f/6vfr1auH7OxsOVfFmGricGEaLz4+HnZ2drCxsUFGRga2b98OQ0NDaGl9WveQSCTQ0dHBmTNnYGFhAR8fH34sDNN4HC5MIxERzp49CxsbG9jZ2eHt27c4fPgwrl27hlGjRuHgwYOQSCT/GDBaWlrQ0tLC0aNHkZycjDFjxmDVqlWwsLCAt7c3MjMzy2mLGFMyxJgGEQSBfvnlF+rcuTMBoBYtWtCRI0dIEIT/+tkTJ06QkZERSSQSkkgkBED2X9m/GRkZUVxc3Ae/9+LFC5o5cyYZGBiQiYkJeXl50Zs3b8prExlTChwuTCMIgkAnT56kjh07EgBq1aoVxcbGfjRU3peZmUlBQUFUp06dD8KlTp06FBQURFlZWf/zd1++fEkeHh5kYGBAFStWpIULF1J6erq8N40xpcSLKJlaIyKcOnUKS5YswaVLl9CmTRt4e3ujT58+n7WSnoiQkZGBnJwcVKxYEaampp/8+2lpafDz80NoaCi0tLQwffp0zJo1C+bm5v92sxhTehwuTC0REeLi4uDj44PLly+jbdu2WLJkCXr16iXa41lev34tCxmJRAJXV1d4eHhwyDC1xDf0mVohIhw7dgzt27eXXZ2cOHECly5dQu/evUV97lfVqlWxevVqpKamwtXVFevXr4eFhQXmzZuH169fi1YXY4rA4cLUAhHh6NGjaNu2Lezt7aGjo4OTJ0/iwoULol6tfIy5uTlWrlyJ1NRUzJgxAxs2bICFhQXmzJmDtLQ0sctjTC44XJhKIyLExsaiTZs26NevH/T09PDLL7/g119/RY8ePZQqVP7KzMwMy5cvR2pqKmbOnIlNmzahdu3amD17Nl69eiV2eYx9EQ4XppKICD/99BNatWqFAQMGwNDQEKdPn8b58+fRrVs3pQ6VvzIzM8OyZcuQmpoKDw8PREREoHbt2pg1axZevnwpdnmM/SscLkylEBEOHz6MFi1aYODAgTAxMcHZs2dx7tw5dO3aVaVC5a9MTU3h6+uL1NRUzJ07F1u2bEHt2rXh7u6OFy9eiF0eY5+Fw4WpBEEQcPDgQTRv3hyDBg1ClSpVEB8fj7Nnz8LW1lbs8uSqSpUqWLJkCVJTUzF//nxER0fD0tISM2bM+NfPPWOsvHG4MKUmCAL279+P5s2bY8iQITA3N8f58+dx5swZ2NjYiF2eQlWuXBne3t5ITU2Fp6cntm/fDktLS0yfPh3Pnj0TuzzG/haHC1NKgiBg3759aNq0KRwcHPD111/jt99+wy+//ILOnTuLXV65qlSpEry8vJCamgovLy/s2rULlpaWmDZtGp48eSJ2eYx9FIcLUypSqRR79uzB999/j2HDhqF69eq4cOECTp48iY4dO4pdnqhMTEywcOFCpKSkwNvbG7t370bdunUxdepUDhmmdDhcmFKQSqWIiYlBkyZNMHz4cNSsWRMXL15EXFwcOnToIHZ5SsXExASenp5ITU2Fj48P9u7dizp16sDFxQWPHz8WuzzGAHC4MJFJpVLs2rULjRs3xogRI2BhYYHLly/j+PHjaN++vdjlKbWKFSti/vz5SE1NxdKlS3HgwAFYWVlh8uTJSE1NFbs8puE4XJgoSktLsWPHDjRq1AgjR45EnTp18J///AfHjh1D27ZtxS5PpRgbG2PevHlISUnB8uXLcejQIVhZWWHixIlISUkRuzymoThcWLkqLS3Ftm3b0LBhQzg5OcHa2hpXrlzBzz//jDZt2ohdnkozNjbGnDlzkJKSglWrVuHIkSOwtrbG+PHjkZycLHZ5TMNwuLByUVpaiujoaDRo0ACjR49GgwYNcPXqVRw5cgStWrUSuzy1YmRkBA8PD6SkpGD16tU4evQorK2tMW7cOCQlJYldHtMQHC5MoUpKShAVFYX69etjzJgxaNy4Ma5du4affvoJLVu2FLs8tWZoaIhZs2YhOTkZfn5+OH78OOrVq4cxY8bg0aNHYpfH1ByHC1OIkpISbN68GfXr18e4cePQtGlTXL9+HYcOHULz5s3FLk+jGBoawt3dHcnJyVi3bh1OnjyJevXqwdnZGQ8fPhS7PKamOFyYXBUXFyMyMhLW1taYMGECmjdvjps3b+LAgQNo1qyZ2OVpNAMDA7i5uSE5ORmBgYE4ffo0GjRoACcnJzx48EDs8pia4XBhclFcXIzw8HBYW1tj0qRJaN26NW7duoX9+/fj+++/F7s89h59fX1Mnz4dSUlJCA4OxtmzZ9GwYUOMHDkS9+/fF7s8piY4XNgXKSoqQlhYGKysrODi4oJ27drh9u3b2Lt3L5o0aSJ2eexv6OvrY9q0aUhKSsL69etx/vx5NGzYEI6OjkhISBC7PKbiOFzYv1JUVISNGzfCysoKU6dORYcOHXDnzh3s3r0bjRo1Ers89hn09PQwZcoUPHr0CBs2bMDFixfRuHFjDB8+HHfv3hW7PKaiOFzYZyksLERoaCjq1q0LV1dXdO7cGXfv3kVMTAwaNmwodnnsC+jp6cHFxQWJiYkICwvD5cuX0aRJEwwbNgx37twRuzymYjhc2CcpLCzE+vXrUbduXbi5ucHW1hYJCQnYuXMnGjRoIHZ5TI4qVKiASZMm4eHDhwgPD8eVK1fQpEkTODg44Pbt22KXx1QEhwv7WwUFBQgODkadOnUwY8YMdO3aFffu3cP27dtRr149sctjClShQgVMmDABDx8+RGRkJP744w98//33GDJkCG7evCl2eUzJcbiwjyooKEBgYCAsLS0xa9Ys9OjRA/fv38e2bdtgbW0tdnmsHOnq6mL8+PF48OABtmzZgps3b6JZs2YYNGgQrl+/LnZ5TElxuLAP5OfnIyAgAJaWlpg9ezb69OmD+/fvY+vWrbCyshK7PCYiXV1djB07VrY/3L59Gy1atMDAgQNx7do1sctjSobDhQEA8vLy4O/vD0tLS8ydOxd9+/aVnanWrVtX7PKYEtHR0cHo0aNx//59REdHIyEhAS1btsSAAQPwxx9/iF0eUxIcLhouLy8Pa9euRe3atTF//nz0798fDx8+xObNm1GnTh2xy2NKTEdHB87OzkhISMD27dvx4MEDtGrVCv369cOVK1fELo+JjMNFQ+Xm5mLNmjWoXbs2PD09MWjQICQmJiIiIgK1a9cWuzymQnR0dDBq1CjZ7MFHjx6hTZs2sLe3x++//y52eUwkHC4aJicnB6tWrULt2rWxaNEiDB48GI8ePcKmTZtgYWEhdnlMhWlra2PEiBG4e/cudu3ahZSUFLRt2xZ9+vTB5cuXxS6PlTMOFw2RnZ2NFStWwMLCAt7e3nBwcMCjR48QFhaGWrVqiV0eUyPa2tpwdHTE7du3sXv3bvz5559o3749evXqhYsXL4pdHisnHC5qLjs7G8uXL0ft2rXh4+OD4cOHyx7z8d1334ldHlNj2tra+PHHH2XPmnv27Bk6duyInj174sKFC2KXxxSMw0VNvX37FkuXLoWFhQWWLl2KESNGICkpCaGhoahZs6bY5TENoqWlBQcHB9y6dQv79u3Dy5cv0alTJ3Tv3h2//vqr2OUxBeFwUTNZWVnw8fGBhYUFli9fDicnJyQnJyMkJAQ1atQQuzymwbS0tDB06FDcuHEDBw4cQHp6Orp06YKuXbvi3LlzYpfH5IzDRU1kZWVhyZIlsLCwwKpVqzB69GgkJycjKCgI1atXF7s8xmS0tLQwePBgXLt2DYcOHUJmZiZsbW1hZ2eH+Ph4sctjcsLhouIyMjKwePFi1KpVC2vWrMG4ceNkbxrkUGHKTEtLS7a6//Dhw3j79i3s7OxgY2ODM2fOgIjELpF9AQ4XFZWRkYFFixbBwsICfn5+mDhxIlJSUrBu3Tp88803YpfH2CeTSCT44Ycf8Mcff+DIkSPIy8tDt27d0KVLF5w+fZpDRkVxuKiYN2/eYOHChbCwsEBAQAAmT56MlJQU+Pn54euvvxa7PMb+NYlEgv79++PKlSv4+eefUVhYiO7du6Nz5844deoUh4yK4XBREenp6ViwYAEsLCwQFBSEKVOmICUlBWvXruVQYWpFIpHIVvcfPXoUJSUl6NmzJzp27Ii4uDgOGRUhIf5LKT0iQr169fDixQu4urrCw8MD5ubmYpfFWLkgIsTFxcHHxweXL1/Gzp07MWLECLHLYv+Aw0VBVK1ZJRKJ2CUwNaOIPlD2mYrYX7kPyJeO2AWoq9TUVMTExEBHR7mbmIjQqFEj2Nvbc+dicsV9QLMp919dhT158gTVqlVDjx49xC7lo9LS0nD48GEMGDAAR44cgb29vdglMTWjCn3gp59+4j6gIBwuCmRubq6Uj1opLCzE7NmzceDAAQDv1hswpgjK3gcOHjwIgPuAInCLahhBEBAUFIT9+/fDysoKP/74o9glMVauBEGAv78/Dhw4AGtrawwbNkzsktQSh4sGKZt14+vrCxMTE2zevJlX8TONQkT46aefsGLFClSqVIn7gAJxuGgIIkJSUhJcXFxQXFyM1atXo3379mKXxVi5ISLcunULU6dOhVQqhb+/P9q2bSt2WWqLw0VD5OTkYOLEifjzzz8xfvx4jB07lmfGMI1BRHj16hXGjBmDtLQ0uLm5YdSoUdwHFIjDRQOUlpbCy8sL586dQ8eOHbFq1Sro6uqKXRZj5SYvLw+TJ0/GzZs3MWDAAHh7eyv9FGlVx+Gi5ogI0dHR2LhxI6pXr47IyEhUqlRJ7LIYKzclJSVYtGgRfv75ZzRv3hwbN26EoaGh2GWpPQ4XNUZEuHTpEmbPng1dXV1s3LgR9erV46EApjEEQcDGjRuxYcMGVK9eHdHR0fj666+5D5QDvi5UU0SEP//8E2PGjEF2djaWL1/OK5CZRiEiHD58GJ6enjAwMMDmzZvRqFEj7gPlhMNFTeXk5GD8+PFITEzEqFGjMHPmTF4oxjQGEeHixYtwcXFBaWkpgoKC0KNHDw6WcsRHGzVUUlKCefPm4cyZM2jbti0CAwOhp6cndlmMlQsiwr179+Dk5ISMjAzMnz8fY8aM4WApZxwuakYQBISGhiIiIgI1a9ZEdHQ0TE1NxS6LsXJBRHj69ClGjBiBx48fY+LEiViwYAG0tbXFLk3jcLioESLC0aNHsWjRIhgZGWHLli2wtrbmMzamEYgIGRkZcHJywq1btzBo0CCsXbuWr9pFwvdc1AQR4caNG5g0aRKKi4uxfv16dO3alYOFaYzc3FxMnjwZ58+fR5cuXbBp0yYYGRmJXZbG4isXNUBEePLkCUaNGoVXr15h5syZGDduHAcL0xgFBQWYMWMGDh06hCZNmmD79u0wNTXlPiAiDhcVR0TIzMyEs7MzEhIS4ODggCVLlvDqY6YxioqKMH/+fGzbtg2WlpbYs2cPatSowcEiMg4XFVdQUICpU6fi3Llz6NSpEzZs2AB9fX2xy2KsXJSUlGDZsmWyRZJ79uzhhcJKgsNFhRUXF2PevHnYu3cvGjZsyEMBTKOUlpZizZo1WL16NczMzBATE4PmzZvz/q8kOFxUlFQqxerVq7Fx40bUqFEDu3fvRq1atbhjMY0glUoREBAAX19fVKpUCTt27ECHDh14/1ciHC4qSBAEhIeHY9myZbKO1bhxY+5YTCNIpVKEhobCy8sLRkZG2Lp1K7p168b7v5LhcFExRISYmBjMnj0bFSpUQGRkJDp37swdi2kEqVSKsLAwzJs3D/r6+ti8eTP69u3L+78S4nBRIWUP4psyZQqICCEhIfjhhx+4YzGNUBYsc+bMQYUKFRAREYGBAwfy/q+keL6qiiAiHDt2DOPGjUNRURH8/f3h7OzMD6NkGkEqlWLjxo2YO3cudHV1ER4ejiFDhnCwKDE+MqkAIkJcXBycnZ2Rl5eHZcuWYcqUKRwsTCNIpVKEhIRgzpw5smBxcHDg/V/J8V9HyRERTpw4gVGjRiEnJwdLlizBzJkz+UF8TCOUlpYiICAA8+fPh56eHiIjIzlYVAT/hZQYESE2NhYjR45EdnY2vL29MXfuXF59zzRCSUkJVq1ahYULF8LQ0BBRUVEYOnQoB4uK4KOUkhIEAfv27cPkyZNRUFAAX19fzJ49m4OFaYSioiL4+vpi7dq1qFSpErZu3cqzwlQMH6mUkFQqRXR0NGbMmCE7e5s+fToHC9MI+fn58PT0RGhoKMzNzbF9+3Zex6KC+GilZEpKShAUFAQvLy9oaWkhODgY48eP53ssTO0REXJycuDm5oYdO3agevXqiImJ4ZX3KorDRYkUFBRg8eLFCAwMhLGxMTZu3Ihhw4bxGDNTe0SE9PR0TJw4EbGxsahbty52796NZs2acbCoKA4XJUBEyMrKwvTp0xETE4OvvvoKW7duRc+ePbljMbVHRHj8+DGcnZ3x22+/oXnz5ti1axe/RVXFcbiIjIiQmpqKcePGIT4+HvXq1cOOHTvQsmVL7lhM7RERbt68iVGjRiEhIQFdu3bF1q1b8e233/L+r+J4vEVERISLFy+iV69eiI+PR+fOnXH8+HEOFqYRBEHAiRMn0K9fP9y7dw8//vgj9u7dy8GiJjhcRFJSUoItW7ZgwIABSEpKgpOTEw4fPgwLCwvuWEztlZSUICwsDMOHD0daWhpmzpyJzZs3o0qVKrz/qwkeFitnRISMjAwsWrQImzdvhq6uLnx9feHh4cFvkGRqr2xG2OLFi7Fx40bo6enB398fLi4u0NXVFbs8JkccLuVIEARcunQJbm5uuHbtGr777jusX78e9vb2PCOMqT0iQkpKClxcXHD69Gl8++23CAsLQ+/evXn/V0McLuWg7GolICAAwcHByMvLQ58+fRAcHIw6derwMABTe4IgIC4uDq6urkhJSUG7du0QERGBhg0b8v6vpvh0QcEKCgqwd+9e2NjYYMWKFahQoQLWrFmD/fv3c7AwjZCTkwMfHx84ODjgyZMnGD9+PGJjYzlY1BxfuSjQixcv0KdPH/z222/Q0tJCv379sHz5cn4lMdMYr169wsCBAxEfHw8zMzOsW7cOY8aMQYUKFcQujSkYh4sCVapUCXl5eWjRogUWLFiAvn37okKFChwsTGMYGBggLy8P7dq1Q0hICJo3b877v4bgcFGghIQEODs7o2rVqtDR0cHJkyfFLum/5ObmoqSkROwymJpKTEyEk5MTKleujGfPnuHZs2dil/RfuA8ohoSISOwi1FFmZib++OMPscv4JDVq1EC9evX4jJLJFfcBzcbhwhhjTO54thhjjDG543sujDGV8f5ACw9hKTe+clER165dg0QiwbVr18QuhTHRXL9+HVpaWrh+/brYpbB/wOHCGGNM7jhcGGOMyR2HC2OMMbnjcGGMMSZ3HC6MMcbkjsOFMcaY3HG4MMYYkzsOF8YYY3LH4cIYY0zuOFwYY4zJHYcLY4wxueNwYYwxJnccLowxxuSOw4UxxpjccbgwxhiTOw4XxhhjcsfhwhhjTO44XBhjjMkdhwtjjDG543BhjDEmdxwujDHG5I7DhTHGmNxxuDDGGJM7DhfGGGNyx+HCGGNM7jhcGGOMyR2HC2OMMbnjcGGMMSZ3HC6MMcbkjsOFMcaY3HG4MMYYkzsOF8YYY3LH4cIYY0zuOFwYY4zJHYcLY4wxueNwYYwxJnccLowxxuSOw4UxxpjccbgwxhiTOw4XFUBEyMzMBABkZmaCiESuiLHyx/1AtXC4KLGsrCwEBQXBysoK3bt3BwB0794dVlZWCAoKQlZWlsgVMqZ43A9Uk4Q4/pVSXFwchgwZgvz8fAD44CxNIpEAAAwNDXHgwAH06tVLlBoZUzTuB6qLw0UJxcXFwd7eHkQEQRD+589paWlBIpHg6NGj3LGY2uF+oNo4XJRMVlYWatSogYKCgr/tUGW0tLRgYGCAp0+fonLlyuVQIWOKx/1A9fE9FyUTHR2N/Pz8T+pQACAIAvLz87Ft2zYFV8ZY+eF+oPr4ykWJEBGsrKyQnJz8WTNhJBIJLC0tkZiYKBuHZkxVcT9QDxwuSiQ9PR1Vq1b9ot83MzOTY0WMlT/uB+qBh8WUSG5u7hf9fk5OjpwqYUwcRISEhIQv+gzuB8pBR+wC2P8xNjb+ot93dHRE9+7dYWNjgw4dOsDQ0FBOlTGmGESEpKQkxMfH49y5c4iPj8fTp0+/6DMrVqwop+rYl+BhMSVSNtaclJT02b9rbm4OGxsbnDt3Dunp6dDV1UXr1q1ha2sLW1tbdOjQAUZGRgqomrFPR0RITEz8IEyeP38OLS0ttGjRAjY2NrCxsYGbmxtSU1M/67P5noty4SsXJSKRSGBjY/OvwsXLywtubm6yYYWyjhsREYEVK1ZAR0cHrVu3ho2NDWxtbdGxY8cvvlJi7J8QER4+fIj4+HhZoLx48QLa2tpo0aIFRo4cKdsfK1WqBODdzK+YmJjPDhcigpubGweLkuBwURJFRUWYN28etmzZAm1tbQiC8FkzZXR03v0pJRIJGjVqhEaNGmHq1KkgIty/f1/WsaOiorBq1Spoa2ujVatWsLW1hY2NDTp16sTDCeyL/XV/i4+Px6tXr2T7m7OzM2xsbNCxY0eYmJj81++/efMGy5cvx5MnT1ChQgWUlJR8cj8o2/eZcuBhMSWQnJyMYcOG4fbt2/Dz84OVlRX69ev3SSuTgXfPWTp58iScnZ0RGhr6t1ck/3QmWTaM1qlTp492fsbe99cr5XPnziEtLe2/rpQ7dOjwjycvV69exfLlyyGRSODl5YW0tLRPXqEPANbW1khKSsKqVaswc+ZMvoIRGzFR7du3j0xMTMjS0pKuXr0q+/cTJ06QkZERSSQSkkgkBED2X9m/GRkZUVxcHBERbdu2jYyMjKh+/fp069atT/5+QRDowYMHFB4eTiNGjKDq1asTANLS0qJWrVqRh4cHxcbGUmZmpty3nakeqVRKt2/fppCQEBoyZAhVrVqVAJCuri516NCBPD096eTJk5Sbm/vJn1laWkqRkZFka2tLHh4elJGRIft/n9MPioqKaPbs2SSRSGjAgAH05s0bRTQB+0QcLiIpKCigqVOnEgBycHCgrKys//qZzMxMCgoKojp16nzQqerUqUNBQUH/9Tv37t2jJk2akL6+PoWHh5MgCJ9dlyAIlJiYSBERETRq1CiqUaOGLGxatGhBs2bNop9++umDAwBTX1KplG7evElBQUE0ePBgMjMzk4VJp06daNGiRXTq1KnPCpP3vX79mqZPn052dna0fft2kkql//Uzn9sPjhw5QmZmZvTdd9/RhQsX/lVd7MtxuIjg4cOH1KxZM9LT06ONGzf+YwgIgkDp6emUkpJC6enpf/vz+fn5NHnyZAJAjo6OlJ2d/UW1CoJASUlJtHnzZnJycqKaNWvKzhqbNWtG7u7udPjwYT5LVBNSqZSuX79OgYGBNHDgQDI1NSUAVKFCBerSpQt5eXnR6dOnKS8v74u/6/LlyzRgwAAaMmQI3bx58x9//nP6wZ9//kmdOnUiHR0dWr169UdDiykWh0s527VrFxkbG5OVlRVdv35dYd8TExNDFStWpLp169K1a9fk9rmCIFBycjJFRUXR6NGjqVatWrKwadq0Kbm5udHBgwcpPT1dbt/JFKe0tJSuXbtG69atowEDBlCVKlUIAOnp6ZGNjQ15e3vT2bNnKT8/X27fWVJSQmFhYWRjY0Pz5s376FW7PBQXF9OCBQtIIpFQ3759KS0tTSHfwz6Ow6Wc5Ofn08SJEwkAjRgx4ouvKD7Fw4cPqXnz5qSnp0ehoaH/apjsU6SkpNDWrVtp7NixVLt2bdmwRZMmTWj69Om0f/9+7thKorS0lK5evUp+fn7Uv39/qlSpEgEgfX19srOzIx8fH4qPj6eCggKFfP/Lly9p2rRp1LVrV4qJiSmXK4rjx49T1apV6dtvv6Vz584p/PvYOxwu5eDevXvUuHFj0tfXp8jISIUd5D+moKCApk2bRgBo6NChCjtLfN/jx49p27ZtNG7cuA/GyRs1akTTpk2jffv20atXrxReB3t3lfD777/T2rVryd7enkxMTAgAGRgYULdu3cjX15fOnz9PhYWFCq/lwoUL1K9fPxo2bBjduXNH4d/3vqdPn5KNjQ1pa2vTsmXLeJisHHC4KFh0dDQZGhpSgwYN6Pbt26LVsX//fqpUqRJZWlrSlStXyvW7nzx5Qjt27KAJEyaQlZWVLGwaNmxIU6ZMoT179tDLly/LtSZ1VVJSQpcvX6bVq6FFVBAAACAASURBVFdTnz59qGLFigSADA0NqUePHrRs2TL67bffqKioqNxqKi4uptDQULKxsSFPT096+/ZtuX33+0pKSmjx4sWkpaVFPXv25H1OwThcFCQ3N5fGjBlDAGj06NH/ejaNPCUlJVHr1q1JV1eXAgMDy/UK6n1Pnz6lnTt30qRJk8ja2loWNvXr1ycXFxeKiYmh58+fi1KbqikuLqZLly7RypUrqXfv3mRsbEwAyMjIiHr27EkrVqygCxculGuYvO/58+fk4uJC3bp1o3379om2z73v1KlTVK1aNfrmm2/o9OnTYpejtjhcFODOnTvUsGFDMjQ0pK1bt4pdzgeKiorI3d2dANDAgQOVYkrx8+fPKSYmhiZPnkz169eXhU29evVo0qRJtGvXLnr27JnYZSqFoqIiunDhAq1YsYJ69uxJRkZGBICMjY2pd+/etHLlSrp06RIVFxeLXSqdO3eO+vbtS8OHD6d79+6JXc4HXrx4Qd26dSMtLS1asmQJlZaWil2S2uFwkSNBECgyMpIMDAyocePGlJCQIHZJ/9Phw4epcuXKVKtWLbp8+bLY5XzgxYsXtGfPHpoyZQo1aNBAFjZWVlY0YcIE2rFjBz158kTsMstFUVER/frrr7Rs2TLq3r07GRoaEgCqWLEi9e3bl1avXk3/+c9/qKSkROxSZYqLiykwMJBsbGzIy8uLcnJyxC7po0pLS8nX15e0tbXJzs6Or5bljMNFTrKzs2nkyJEEgCZMmCCXdQCKlpqaSu3atSMdHR3y8/NT2pucL1++pL1799K0adOoUaNGHyyiGz9+PG3bto3+/PNPscuUi8LCQjp//jz5+vpSt27dyMDAgACQiYkJ2dvb09q1a+n3339XqjB539OnT2nixInUvXt3OnjwoFIMg/2Ts2fPUvXq1emrr76SPfGCfTkOFzm4ceMGWVtbk7GxMe3cuVPscj5LcXExzZkzhwCQvb29SqxPSUtLo/3795Orqys1adJEFjaWlpY0duxYio6OptTUVLHL/CQFBQUUHx9PPj4+ZGdnR/r6+gSAKlWqRP379yc/Pz+6evWqSgzbnDlzhvr06UOOjo704MEDscv5LK9evaJevXqRlpYWLVy4UGnDW5VwuHwBQRBo48aNpKenR02bNlW5DvW+n3/+mczMzKhGjRr066+/il3OZ3n9+jUdPHiQ3Nzc6Pvvv5eFjYWFBY0ePZqioqIoJSVF7DKJ6N16pzNnzpC3tzfZ2NiQnp4eAaDKlSvTgAEDaN26dXTt2jWVCJMyhYWF5O/vTzY2NuTj46MUk1f+DalUSitXriQdHR3q3Lmzxgy9KgqHy7/09u1bGjZsGAGgqVOnKmzRWXl68uQJderUibS1tWnFihVKO0z2T9LT0+nQoUPk7u5OzZo1kz3w8LvvviNnZ2favHkzJSUllcuQTV5eHp0+fZq8vLyoS5cuVKFCBQJAVapUoYEDB1JgYCBdv35dpcLkfX/++SeNGzeOevToQUeOHFGJYbB/8uuvv1LNmjXJ3Nycjh49KnY5KovD5V+4evUq1alTh0xMTGjv3r1ilyNXJSUl5OnpSRKJhHr16qUWix0zMjLop59+opkzZ1KLFi1kYVOjRg0aNWoURUZGUmJiolwOjHl5eXTq1ClatGgRderUiXR1dQkAmZmZ0eDBgykoKIhu3rypssH9vpMnT1KvXr1o1KhR9OjRI7HLkav09HTq168fSSQSmjt3rlLMvlM1HC6fQRAECg4OpgoVKlDLli3VrkO9Ly4ujqpWrUrffPMNxcfHi12OXGVmZlJsbCx5eHhQy5YtSUtLiwDQt99+SyNGjKDw8HB6+PDhJ4VNbm4unTx5kjw9PalDhw6yMDE3N6chQ4ZQSEgI3b59Wy3CpExBQQGtWbOGbGxsaPny5XJ97pgykUql5OfnR7q6utS+fXuVuY+nLDhcPlFmZiYNHjyYAJCbm1u5PC5DbM+fPydbW1vS0tIiHx8flR26+SdZWVn0888/05w5c6h169aysPnmm2/I0dGRwsLC6P79+yQIAuXk5NCJEydo/vz51L59e9LR0SEA9NVXX5GDgwOFhobSnTt31GJ46GNSUlJo9OjR1LNnTzp27Jjabuf7Ll26RBYWFmRqakqHDx8WuxyVweHyCf7zn/+QhYUFVa5cmQ4dOiR2OeWqtLSUvL29SSKRULdu3ejFixdil6Rwb9++pWPHjtHcuXOpVatWsrDR1dWVDamZmZnRsGHDaMOGDZSQkKARB9njx49Tr169aPTo0UozQaK8ZGRk0KBBg0gikdDMmTNFe+KBKuFw+RuCIJC/vz/p6OhQ27ZtNa5Dve/06dNUrVo1+vrrr+mXX34RuxyFefv2LR09elR2FaOtrU0AyNTUlBo0aEC1a9f+6NXK3bt31TZg8vPzacWKFWRjY0OrV69Wi8kr/4YgCBQUFEQVKlSgNm3aUHJystglKTUOl//hzZs31L9/fwJAHh4efKZC7xYzdu/enSQSCXl5eanFWoD377+8f5VSvXp12f2XBw8efBAcOTk5FBcXJ7vPUhY2VatWpaFDh6rVfZakpCRycnKiXr168QLD/+/KlStUp04dqly5Mu3fv1/scpQWh8tHXLhwgWrWrEmmpqYUGxsrdjlKRSqV0rJly0hLS4u6dOmics/8Kps5NmvWrI/OHIuIiPjsmWO5ubl06tQpWrhw4UdniAUHB6vcDDFBECg2NpZ69OhBY8eOpcePH4tdklLJysoiBwcHkkgk5OrqqrFXc3+Hw+U9UqmUVq9eTdra2tSxY0e1eaSIIpw7d46qV69O5ubmdPz4cbHL+Z/evHlDhw8f/q81LzVr1iQnJyeFrHnJy8ujX375hby8vKhz586ytS2mpqaytS03btxQ2rDJy8sjX19fsrGxIX9/f42YvPJvCIJAGzZsIH19fWrRogUlJiaKXZJS4XD5/9LS0qhPnz4EgObPn8/z2j9BWloa9e7dW9ZmyjBMlp6eLlut37RpU1mYvL9aPzk5uVzvj/yvVflVqlShH374QalW5T98+JBGjBhBffr04cfRf6Lr16+TtbU1mZiYUExMjNjlKA0OF1Kds3BlJPbVXtlzxqZPn/7Bc8Zq165NY8eOpa1btyrdRIyy54ktWbLko88T8/f3L/fniQmCQIcOHaLu3bvThAkT+NEnnyk7O5tGjBhBEomEJk+erLZrfz6HRofL+/cPbGxsVO7+gTIpr/tUr169on379n30Ccnjxo2jbdu2qdz9gfefhNy1a1dZ2Lz/JOQrV64o7MowNzeXFi9eTDY2NhQYGMiTV/4lQRAoIiKCDAwMqGnTpnT//n2xSxKVxobLy5cvqUePHmo180lsiphh9/LlS9m7XRo2bKgR73YpLCz84B0uZY/dV8Q7XO7fv0+Ojo7Ut29fOnfunByqZ7du3aIGDRqQsbExbd++XexyRKOR4fL+mo1Tp06JXY5aEQSB1q1bR7q6uv9qbVDZWyldXFw+eCultbU1TZo0iXbu3ElPnz5VTPFKquztk8uXL6eePXvKXhhW9vbJVatWffbbJwVBoH379lG3bt1o8uTJfNUuZzk5OTR69GiSSCQ0btw4lXi/k7xpVLho4mpzsXzqUw2ePXtGu3btokmTJpG1tbUsTOrXr0+TJ0+mmJgYfkPgXxQXF9OlS5do5cqV1KtXL9mrjo2MjKhnz560YsUKunjx4v8Mm+zsbFq4cCHZ2NhQSEgIT15RoKioKDIyMqJGjRrRnTt3xC6nXGlMuLz/nCxfX1+lmJmj7j72PLYnT57Qjh07aMKECWRlZSULkwYNGtCUKVNoz549HPqfqbi4mC5fvkyrV6+mPn36kLGxMQEgQ0ND6tGjBy1btox+++03KioqooSEBBo2bBj169ePfvvtN7FL1wh3796lxo0bk6GhIW3ZskVtn+TwVxoRLur8hF9l9/jxY3JyciItLS3ZFFwA1KhRI5o2bRrt3buXXr58KXaZaqWkpIR+//13WrNmDdnb25OJiQkBoAoVKlCVKlWoTZs2dPjwYV6/Uo7y8vJowoQJJJFIyNnZmXJycsQuSeEkRERQU6WlpfD29sbKlSvRs2dPbNu2DV999ZXYZam1x48fIz4+HufOnUN8fDxSUlIAAHXr1sXr169RUlKC4OBgjB8/XuRKNUdmZiZmzpyJX3/9FcbGxnj8+DHevn0LfX19tG/fHra2trCxsUHbtm2hr68vdrlqbefOnXBxcUGNGjWwZ88efP/992KXpDhip5uiPHnyhDp37kza2tq0cuVKpV0NrepSUlIoKiqKRo8eTRYWFrIrk6ZNm5KbmxsdPHiQXr9+TUQfvr1zypQp/MiMcnD79m0aOnQo9e/fny5dukRE7+49/vHHH7Ru3ToaMGAAVa5cmQCQnp4e2drakre3N509e5b/Pgry4MEDatasGRkYGNCmTZvUdphMLcPl6NGjKvs+eGUmCAIlJSXR5s2bydnZmb777jsCQBKJhJo1a0bu7u506NAhSk9P/9vPCAsLIz09PWratCk9ePCgHLdAc0ilUtqxYwfZ2dmRq6srpaWl/c+fLS0tpevXr1NAQAANHDiQqlSpIgubLl260OLFi+n06dO8MFCO8vPzacqUKSSRSMjR0ZHevn0rdklyp1bhUlxcTHPmzCEAZG9v/7cHOfbPBEGgxMREioiIoFGjRlGNGjVkYdKiRQuaNWsW/fTTT5SRkfHZn33jxg2ytrYmY2Nj2rlzpwKq11wZGRk0e/ZssrW1pYiIiM+evCKVSunmzZsUFBREgwYNIjMzM9k9m06dOtGiRYvo1KlTGjm9Vt727NlDJiYmZGVlRdeuXRO7HLlSm3BJTU2ldu3akY6ODvn5+fEw2L8gCAI9fPiQwsPDacSIEfTtt98SANLS0qJWrVqRh4cHxcbGUmZmply+Lzs7m0aOHEkAaMKECXywkoMbN27Q4MGD6YcffqDff/9dLp8plUrp1q1bFBISQkOGDCFzc3PZy9M6duxInp6edPLkScrNzZXL92maxMREatmyJenp6dH69evVZphMLcLl8OHDVKVKFapVq5ZsXJn9M0EQ6P79+xQWFkaOjo70zTffyMKkdevWNGfOHPr5558pKytLoTVs3ryZDAwMqHHjxpSQkKCw71JnUqmUtm7dSnZ2duTu7q7Qq3apVEp37tyh9evXk4ODA1WtWpUAkI6ODrVv354WLFhAJ06c0IgZUfJSWFhIbm5uJJFIaOjQoXI7gROTSodLUVERubu7EwAaOHDgvxqe0SSCIFBCQgJt2LCBfvzxR6pWrRoBIG1tbWrbti3NnTuXjh07Jsr47507d6hBgwZkaGhIW7duLffvV2Vv3ryhmTNnkq2tLUVFRZX7Vfv7+9WwYcPo66+//mC/mjdvHh0/fpyys7PLtS5VdODAAapcuTJZWlrK7cpTLCobLsnJydS6dWvS1dWloKAgtbmUlCdBEOju3bsUGhpKDg4O9NVXX8nOMNu1a0fz58+nEydOKE2nz83NpbFjxxIAGj16NA+zfII//viDBg4cSIMGDaI//vhD7HKI6N1+d+/ePQoLC6Phw4d/cBLTpk0bmjNnDh09elQtb2LLQ3JyMrVt25YqVKhAAQEBKntsU8lw2b9/P1WqVIksLS3pypUrYpejNKRSKd2+fZtCQkJo6NChHwxXdOjQgTw9PSkuLk7phyu2bdtGhoaG1KBBA7p9+7bY5Sil0tJS2rx5M9na2pKHh4dSX7ULgkAPHjygTZs20YgRI6h69eof3MubPXs2xcbGKnT4VdUUFRWRh4cHSSQS+uGHH+jNmzdil/TZVCpcCgoKaNq0aQSAhg4dqvE7Y9msnuDgYBo8eLBsVo+uri516tSJFi5cSKdOnVLJK4B79+5RkyZNSF9fnyIjI1X27E0RXr9+TW5ubmRnZ0fbtm1Tuckr789CHDly5AcTR8pmIR45ckQt7jt8qSNHjpCpqSnVqlWLLl68KHY5n0VlwiUxMZGaN29Oenp6tGHDBo082EilUrp+/ToFBgbSwIEDydTUVDZFtEuXLuTl5UWnT59Wm1lX+fn5NHHiRAJAI0eOVJrhOzH95z//oQEDBtCQIUPoxo0bYpcjF4Ig0KNHj2jz5s3k5ORENWvWlE15b968Obm7u9Phw4dV8uxdHh4/fkwdO3YkXV1dWrNmjcqcTKhEuBw5coQqVqxIVlZWdP36dbHLEYWzs/MHi9tsbGzI29ubzpw5o/aL23bt2kXGxsZkbW2t0e8pj4qKIhsbG5o7d65an9ULgkDJycm0ZcsWGj16NNWqVUsWNk2bNqUzZ86IXWK5Ky4upvnz55NEIiF7e3uV6PMKebaYAj5SoSQSidw/U95tIAjCB3XKu2Z5f568t5/enQhBIpEo5O+lCvtAeno6pFIpvvrqK5VoA3luf9lnafo+UNYPtLS05Pq5ZeTZBjpy+6T3pKamIiYmBjo6Cvl4uSEiNGrUCPb29nLfsTS9DTR9+wHg5cuXOH36NLS1teX6uYpgYWGBdu3a8T6ggOPA7t27VaINGjZsKNc2UMgWP3nyBNWqVUOPHj0U8fFf7NWrVzhy5Aj69++PI0eOwN7eXu7foQptEBsbi379+iE2NlbubaDp2w8AaWlpMDU1RatWreT+2fKQkZGBS5cuoX379rh48SLatWsn18/nfeD/2qB79+5y/2x5ePnyJY4dO4a+ffvKvQ0UFqfm5uaoWbOmoj7+XysuLsa8efOwd+9ehV5eAsrdBvPnz1d4Gyjr9hcVFWHevHnYt2+fwveBSpUqKeVrHkpKShAeHo6zZ8/KhpoUQVn3gfLqAwBgZmamlG1QUlKChQsXYvfu3ZBKpXJvA8W1qBIiIoSHh2Pv3r2oU6cOfvzxR7FLKnd/bYNhw4aJXVK5Ktv+ffv2aeT2A+/aIC4uDmfPnsU333wDOzs7sUsqV0SEzZs3Y+/evbC0tNTYfWDPnj3Ys2cPLCwsFNIGGhMuRIRLly5h0aJFMDAwQFhYGKpXry52WeWqrA28vLxgYGCAjRs3alQbEBEuX76MxYsXa/Q+kJSUhIiICOjq6mLGjBkwMzMTu6xyQ0S4cuUKFi5cCH19fY3rA8C7Nnj48CHmzZsHbW1tBAQEKKQNNCZcXr16hYkTJyInJwdeXl6wsbERu6RyRUR49eoVJk2ahJycHCxatEjj2iAtLe2D7e/SpYvYJZW7vLw8BAYGIicnB8OGDUPLli3FLqlcpaenY9KkScjOzsb8+fNha2srdknlrqCgAG5ubnj58iVcXFzQu3dvhXyPRoRLUVER3N3dkZCQgIEDB8LNzU2hY6zKqLi4WKPboLi4GHPmzMHdu3cxYMAAjdt+AJBKpdixYwcSEhLw/fffw9HRUaPaoGwfuHXrFvr27YtZs2Zp1PYD75Y0BAQE4PTp02jVqhUWL16ssNmMat+ygiAgNDQU+/btQ/369RESEgI9PT2xyypXgiAgJCQE+/fvR/369REcHKxRbUBEiIyMRExMDOrWratx2w+8a4Pff/8dhw4dQuXKleHu7g59fX2xyyo3Zffadu7ciTp16mD9+vUatf3AuzY4d+4cVq9ejcqVKyM0NBSVKlVS2Pcp9+TrL0REOH/+PJYsWQJjY2OEh4fjm2++UdjMGGVERIiPj4evry+MjY0RERGhUW1Qdp9l0aJFsjH2b7/9VmO2H3jXBqmpqQgICIBUKoWLiwtq1aqlMW1ARPj1119l91s3bdqEmjVrasz2A+/a4OXLl5g2bRoKCwuxatUqtGzZUqFtoLbhQkR4+vQpJk2ahPz8fPj7+6NTp04at0M9fvwYkyZNQkFBAdatW4cOHTpoVBuU3WfKzs7GsmXLYGdnp1HbX3avbdmyZUhPT8cPP/yArl27akwblB0HJk6ciLy8PKxatQq2trYas/1liouLMXPmTDx48ADDhg3D+PHjFd4Gajsslp+fjylTpiAxMRHDhw/HlClTNG6Hys3NxaRJk5CcnAwnJydMnjxZo9qgsLAQM2bMwN27dzFo0CC4u7tr1Bg7ESEjIwPLli1DcnIyOnfujEmTJin9anF5ysvL++A44OrqqlH7APBuPwgLC8PBgwdRv359rFu3DhUqVFD496rlXiaVSrFixQocO3YMzZs3R0BAQLk0pjIpLS3FokWLcPr0abRt2xZ+fn4a1QZlNy4PHDiABg0aaNx9FiLC69evsXTpUty9exctW7aEh4eHRt1nKC0thY+PD44fP44WLVpg3bp1GrUPAP93a8Db2xuGhobYuHEjqlWrVi4nmWoXLkSEQ4cOwd/fH+bm5ti8eTPMzc3FLqtcERGioqJk6zi2bNmCKlWqiF1WuSEiHD9+HMuXL4eJiQkiIiLKrUMpAyLCs2fP4Ovri8TERDRv3hyenp6oWLGiRrXBjh07EBwcjK+//hpRUVEaeRx49uwZJk+ejPz8fKxZs6Zcbw2oVbgQEe7cuQNXV1cQEQIDA9GsWTON6VDA/928nDt3LnR1dREWFob69etrTBsQER48eAAXFxeUlJQgICAA7du316jtT0pKwtKlS/HkyRN06NABc+fOhYmJiUa1wYULF+Dh4QEdHR1s2LABjRs31pjtL1NQUIBp06YhMTERjo6OmDJlSrkOCapVuLx58wbjxo1DWloaZs+ejR9//FGjdigiQnJyMsaNG4fc3FysXLkSffr00ag2yMrKwoQJE/D8+XO4urpi7NixGrP9giDg0qVLCAgIQEZGBrp16wZ3d3cYGhpqTBuU9YExY8YgOzsbS5cuxYABAzRm+8tIpVIsX74cR48eRbNmzUQZElSbcCkqKsLMmTNx9epV9OrVS6GLg5QRESEzMxNjxoyRBcz06dM16uZl2SK5ixcvws7ODkuXLtWIm9dEhJKSEuzfvx/bt29HaWkphg4dinHjxmnUPZa/9oGxY8di5syZGtUHgP97blhAQACqVq2KyMhIVK1atdzrUIueJwgCgoKCEBMTAysrK4SHh8PIyEjssspVQUEBXF1dceHCBdja2sLPz0+jbl4KgoDAwEBER0fD0tISERERqFixothlKRwRISsrC6GhoTh79iyMjIzg6uqK3r17a9TJFfBuduD06dNx4cIF2NnZwd/fX6P6APB/z05zd3eHRCJBcHCwaLcGVD5ciAhHjx6Fj48PjI2NsWXLFo1bIFVSUoLFixdjz549qF+/PqKiohS68lbZEBEOHjwIHx8fVKxYEVu2bEHt2rXVfh8ou7/k7++PR48eoWbNmpgzZ45G3l8o6wO7d+9G/fr1sWXLFo3qA8C7/eHPP//EmDFjkJmZCS8vLwwePFi0fUGlw4WIkJCQILt5GxgYiI4dO2pUxxIEAevXr0dwcDCqVauGnTt34rvvvtOYNiAiXL16FdOmTYNUKkVAQAA6d+6s9ttfWlqKEydOICIiArm5uWjfvj1mzJihsFcgKzNBELBhwwYEBQXh66+/xo4dOzSqD5R5+/Ytxo0bhwcPHmD48OGYO3euqFevKh0ub968wdixY/HixQu4ublp1M1b4N2BdefOnVi0aBGMjIwQFRWlUbPjys7UnJ2d8ebNG3h6emLUqFFqvf1EhJycHISHh+PEiRPQ1dWFs7MzfvzxR+jp6an1tn8MEWHv3r3w9PSEoaEhtmzZgubNm2tcOxQWFsLd3R3x8fHo2LEjQkJCRL/fprLhUlhYCFdXV1y5cgW9evXCsmXLNOLmbRkiwpEjR+Dq6goACAkJQY8ePTSmU71/8/bBgwdwdHSEp6enWt9nKHucj5+fH+7evYtq1aphxowZaNOmjcbdtAbetcfJkycxdepUEBGCgoLQq1cvjekDZUpLS7Fs2TLs3LkTdevWxdatW5ViXZtKHo2lUilWr14te9JxRESERt3AJyKcOXMG48ePR1FREfz8/DBixAiN6lRlc/jPnTuHzp07K8WZmiIJgoArV67A398f6enpaNGiBWbNmoXq1atr1N+9TNmL78aMGYPc3FysWLFC7a9aP0YQBISFhcHPzw/m5ubYtm2b0txvVLlwKbsMXrlyJapUqYLo6GjUqFFDKRqzPJQtkhw5ciSys7Ph7e0NFxcXjTpzff/95w0bNsS2bduU4kxNUaRSKY4ePYpNmzahuLgYAwcOxPjx4zVq/cr7iAjXr1+Ho6Mj0tPTMW/ePMyYMUOtr1o/hoiwe/duzJ8/H/r6+oiMjESbNm2UZp9QqXApO1spGwpav349WrdurTSNqWhEhN9++w3Dhw/HmzdvMG/ePMydO1ejhgNLS0uxYsUKbNy4ETVq1MCuXbvU+uZtSUkJdu3ahZ07d0JHRwfTpk1Dv379NOpv/r6yp3A4ODjg2bNnmDZtGry8vKCrqyt2aeWqbFh82rRpICKEhISgb9++StUPVGYPJSKkpKRg9OjRyMrKgre3NxwcHJSqMRWp7AF0jo6OeP36NTw8PLB48WKN6lRSqRQhISGyq9bt27ejSZMmarsPFBcXIzIyEgcOHICxsTHmzJmDDh06aNRV6vvKZocOHToUqampGD9+PFatWqWRa1lOnTqFCRMmoLCwEKtXr8bIkSOVrh+oRLgQEdLT0zFq1Cg8evQIo0ePxrx58zTmMrjsHsvIkSPx5s0bzJ49Gz4+Phr3lOPIyEjZrKCoqCi1nnJcVFSEsLAwHDlyBFWqVMGiRYvQtGlTtd3ef1J2xTJ06FA8evQIzs7OCAgIgIGBgdillauyY4GTkxOys7Ph4+ODqVOnKuUJh/JV9BH5+fmYPHkyLl26hG7duiEwMFBjzlaICMeOHYOjoyMyMjIwf/58jQyWrVu3YtasWdDV1cWmTZuUbghAnoqLi2XBYm5ujqVLl2p8sFy/fh2DBw/Go0eP4OTkhPXr12vUJB7gXTv88ssvGDlyJLKysuDp6Sl7OKcyUvpwKSoqwpw5c3D48GF8//33iI6O1piVt4IgYN++cern9gAAIABJREFUfRg1ahTevn2LRYsWYfHixRoVLFKpFFu2bIGbmxskEglCQ0MxdOhQtT3QFhcXIzw8XBYsvr6+GvVU678iIly8eBGDBg1CSkoKxo0bh9DQUI0Mlp9//hkjR45EZmYmFixYAE9PT6UeFlfqcCkpKcHSpUsRHh6OmjVrYteuXRoz9bLsoDp+/HgUFhZixYoVSr8zyVtpaSk2bNjwQbCMHDlSKYcA5KG0tBTR0dE4dOgQTE1N4ePjA2tra43Y3z+GiHDixAkMGTIEz58/x9SpUxEcHKxxwSIIAnbv3g1nZ2fZDNGFCxcq/bFAaXtpaWkp/P39sXr1apiammLXrl1o2LChRnS0sveQuLm5AQCCgoLg7u6utJe/ilBSUoI1a9Zgzpw5svfSODk5qW2wSKVS7NmzB3v27EGlSpWwePFi1KtXTyP294+RSqXYuXMnRowYgczMTMybNw9r167VuHssZSdYkyZNQnFxMVatWiV7V5OyU8qjVWlpKQIDA+Ht7Y2KFSti+/bt6NChg0Z0tMLCQixduhRr166FsbExNm7cCAcHB7U9qP4VEaGgoABeXl4ICQmBiYkJIiMjMWDAALVtA0EQEBsbi+joaBgZGWHhwoUa+fDJMsXFxQgICICPjw8kEglWrlyJ6dOnq8QBVV6ICIWFhfD19UVAQAD09fWxfv16jBo1SmUmMilduJSUlGDt2rXw8fGBoaEhoqOj0bNnT7XvaESEvLw8zJ49W/b+ha1bt2rEtpchIrx58waurq7Yt28fqlevjujoaNjZ2altG5TN/gkLC4Ouri7mzJmDFi1aqO32/p2y56YtWLAA4eHhMDExQXBwMIYPH64yB1R5KJsdO336dBw4cABfffUVwsPD0adPH5U6wVKacClLah8fH/j7+8PExARRUVHo16+f2nc0IkJGRgZcXFxw8OBB1KpVCzt37kS7du3UftvLlD0+fvz48bh06RIaNmyI7du3q/WDOIkIly9fRmBgIIgIbm5uGnOF/ldEhCdPnmDy5Mk4efIkatasiaioKNja2mpUexAR7t69i4kTJ+L3339Hw4YNERUVhZYtW6pcOyhFDJYdXCdOnIi1a9fC3Nwce/bsQf/+/VWuQT9XWacaOnQoDhw4gMaNGyM2NlajgkUQBBw/fhy9e/fG5cuX0b17d9nrWdW1DcrWbaxZswZFRUWYOHEievTooVJnpvJSNiOsd+/eiIuLQ+vWrXHs2DGNCxapVIqDBw+id+/esgfyHjt2TCWDBVCCcCnrZP369ZM91fPIkSPo1q2bSjbo5yAi3LhxA/b29jh37hy6dOmC2NhYjZm4UDYUuHz5cgwbNgwvXrzAlClTsG/fPrV+pAsRISkpCcuWLUN2djYcHR0xaNAgjQyWsqnXAwYMwMOHD+Ho6IjY2Fg0aNBAbf/+f0VEePv2LRYsWCB7fYS7uzv27Nmj0s9NFG1YrOy93zt37sSCBQuQlpaG7t27Izw8HBYWFirboJ9KEATZs4FevnwJBwcHbNiwAaampmq/7cC7v//Dhw8xc+ZMnDx5EpUrV8a6/8feWYZHdbVdeJ2Ju5AESnErBCgSghQKBBK0SHGnuAQnWHF3hwDBvbgUCVKgWPHgkBAIweIJEJc56/vBN/PSlrbIzJyZOXNfF3/azDlr73lmr63PXrAA3bp1M+qFW5J4+fIlJk+ejLi4ODRv3tygFmk1hWpdYcyYMdi0aROsrKwwdepUDB06VFb30qg6mEOGDMGFCxfg4eGBefPmoU2bNga/O1QS9ar59XHjxuHAgQOwsLBAQEAAxo0bBwcHB6MOLNVuqAULFmDWrFnIyclBQEAAJk6cCBsbG6MuO/Cu/FlZWdi6dSvGjx+PqKgoVKpUCcuXL0elSpWMuvwkERsbi8mTJ+Ply5fw8/ND7969ZXUoFnjXsfrjjz8wcOBA3Lx5E4ULF8ayZctQv3592YzeSCItLQ1BQUGYMWMGkpKSULNmTSxZsgSlS5c2it+BTs1F9eNauXIlli1bhvj4eJQqVQrz5s1D/fr1jb73ppoOGTZsGI4cOQJnZ2fMmTMHXbp0MfheysdAEg8ePMDYsWNx6NAhWFpaYvDgwRg/fjxcXFyM4gf1T6jWFadMmYLw8HBUr14dgwYNkk0aI+B/DerSpUsxa9YspKSkoEmTJli0aJEsZitUiKKIGzduYPTo0fj9999hZ2eH8ePHY9iwYbC3tzeaetBJi0YSUVFR2LJlC1auXImIiAg4OTkhICAAI0aMgLu7u9FU6IdQjVa2bdum7rWWL18egYGBqFKlilGXHXhX/tevX2PlypVYuHAh4uPjUbp0acyZMwf16tWTRafi9evXmDp1Ku7fv49KlSph5MiRsrqPRbW2Onz4cJw6dQoODg6YOXMm/P39ZTFiB/43Fbho0SKsWLECb9++ReXKlTF37lxUq1bN6EZtWjWXjIwM3LlzB5s3b8aePXvw6tUr2Nraol27dhg9ejTKli1rdBX6VzIyMnD69GnMnj0bFy5cgKWlJfz9/TFx4kTkypXL6H9U6enpOHDgAGbMmIF79+7BwcEBo0aNwvDhw2VRfgBqY7l16xa+/fZb/Pzzz0Y//fs+qampCAoKwsyZM5GQkABvb28sWrRIVtczp6WlYe/evZg+fTrCwsKQK1cuTJ06Ff3794ejo6NRxoLWzCUmJgZ+fn64du0aMjIy4OLigi5dumDAgAGoUKECzMzMjLJC3yc6OhoNGjTAH3/8AaVSCW9vb0yZMgV16tQx+t46AERFRaFx48Y4d+4cFAoFGjVqhEmTJqFChQqyaVSSk5MxdepUhISEoEyZMpgwYQKcnZ2NPvZVREdHo2nTpurpnzFjxiAgIABOTk6yqoMmTZrg3LlzMDMzQ8uWLTFx4kSj3xWqNXNxcnJCamoqSpQogTZt2qBt27YoXLgwFAqFUVfo+6jqoGzZshgwYABatWoFOzs7WZU/JSUFFStWxJgxY9CwYUNYWlrKpvzAu/n1zMxMlC1bFhMmTJDNbkAVdnZ2SE1NReXKlTFnzhxZXnbm6OiI1NRUeHl5Ydy4cfDz84OFhYXRx4HWzOXu3bvo0aMH3NzcYGtriwcPHuDBgwfaet1nkZKSguzsbK09//79++jSpQs8PDxga2uL06dPa+1dn4s26+DBgwfo3Lkz3N3dYWZmhuPHj2vlPV+CtmMgOjpanbYjLCxMa+/5EtLT05GTk6OVZ4eFhaFTp05wdXVFUlISDh8+rJX3fAnajoEHDx6gU6dOcHNzgyiKOHbsmNbe9bmkpqZqvA4EktToEwEkJSXh+vXrmn6sVsiXL59Wss/KvQ7kXn7g3ZSYvhrKX3F3d0f+/PlNMWBqBzRWB1oxFxMmTJgwIW/kNflpwoQJEyZ0gslcDARRFCHnQSZJ2ddBfHw8YmJiZFsHphgwrDowCHM5deqU+ppbOXLy5EmYmZkhMDBQaimSERERAUdHR/j7+0stRRJevXqFTp06Yfv27Ua/y+ifSElJQZEiReDj4wNRFKWWo3OSk5NRpEgR+Pr6GoS5gAZC//79aWtry/DwcKml6JQ3b96wQIEC9PHxoVKplFqOpCxfvpwAeOLECaml6BSlUsmBAweyXbt2TEtLk1qOpPz2228EwCVLlkgtRef07duX9vb2fPLkidRSPgqDMZfk5GQWLlyY33//vawa2V69etHe3p4RERFSS5EcpVLJOnXqsECBAnzz5o3UcnTGrl27WKtWLd68eVNqKXqBv78/bWxs+OjRI6ml6Ixjx45REASuWLFCaikfjcGYC0meOXOGALho0SKppeiE4OBgAuDKlSullqI3RERE0N7enr169ZJaik549uwZ69WrJ8ue+j+RnJzMIkWKsEaNGrLoaL5+/ZoFChSgn58fRVGUWs5HY1DmQpIDBw6kjY0Nw8LCpJaiVV6/fs18+fLR19fXoAJKF6xcuZIAGBwcLLUUraJUKunv78/27dszPT1dajl6haqjuXDhQqmlaJ2ePXvS0dGRT58+lVrKJ2Fw5pKSksKiRYuyevXqzMnJkVqO1ujevTsdHBwMLqB0gSiK9PX1Zb58+fj69Wup5WiNHTt2sHbt2rx165bUUvSSQYMG0dramqGhoVJL0RpHjx6lIAgMCgqSWsonY3DmQpJnz56lIAicP3++1FK0wuHDhwmAq1evllqK3hIZGUkHBwd2795dailaITIykn5+fly2bJnUUvSWlJQUFitWjNWqVTPKjmZSUhLz5cvH+vXrG+TshUGaC0kOHTqU1tbWfPDggdRSNEpiYiLz5s1rsAGlS9asWUMAPHz4sNRSNIpSqWTfvn3ZqVMn03TYf3Du3DkKgsC5c+dKLUXjdOvWjU5OTnz27JnUUj4LgzWX1NRUlihRglWrVjWqXkvXrl3p5OTE58+fSy1F7xFFkQ0aNGDevHmZmJgotRyNsW3bNtauXZt37tyRWopBMGzYMFpZWRlVR/PQoUMUBIHr1q2TWspnY7DmQpIXLlygIAicM2eO1FI0wsGDBwnAoANK1zx//pxOTk7s2rWr1FI0QkREBH19fRkYGCi1FIMhLS2NJUqUYOXKlZmdnS21nC9GNXvRuHFjg569MGhzIcmAgABaWVnx3r17Ukv5IhISEpgnTx42atTIoANKCtavX08APHjwoNRSvoicnBz26dOHnTt3ZkZGhtRyDIqLFy9SoVBw1qxZUkv5Yrp06UJnZ2e+ePFCailfhMGbS1paGkuWLElvb2+D7rV07NjRKAJKCkRRZOPGjZknTx4mJCRILeez2bJlC318fHj//n2ppRgkI0aMoKWlJe/evSu1lM9m//79FASBGzdulFrKF2Pw5kKSly5dokKh4IwZM6SW8lns27ePALhp0yappRgsL1++pLOzMzt27Ci1lM/iyZMnrFu3LletWiW1FIMlPT2dJUuWZKVKlQyyoxkfH888efKwadOmRjF7YRTmQpKjRo2ipaWlwS2CxsXF0cPDg02aNDGKgJKSTZs2EQD37dsntZRPIjs7m7169WLXrl2ZmZkptRyD5vLly1QoFJw+fbrUUj6Zjh070tXVla9evZJaikYwGnNJT0+np6cnvby8mJWVJbWcj6Zdu3Z0cXExmoCSElEU2bRpU3p4eDAuLk5qOR/Npk2b6OPjY1S7naRk9OjRtLCw4O3bt6WW8tHs2bOHgiBwy5YtUkvRGEZjLiR55coVmpmZcerUqVJL+Sh2795NANy6davUUoyGqKgourq6sl27dlJL+SjCw8NZt25drlmzRmopRkNGRgZLly7NChUqGERHMzY2lh4eHvzxxx+NavbCqMyFJMeOHUsLCwu9zyAbGxtLd3d3owsofWDr1q0EwF27dkkt5V/Jyspijx49+NNPPxlEI2hIXL16lWZmZpwyZYrUUv6Ttm3b0s3NjdHR0VJL0ShGZy4ZGRksU6YMy5cvr9c/2NatWzNXrlxGF1D6gCiK/PHHH+nu7s7Y2Fip5fwj69evp4+Pj1HnxpKSsWPH0tzcnCEhIVJL+Ud27txJQRC4fft2qaVoHKMzF5K8fv06zczMOGnSJKmlfJAdO3YQAH/55ReppRgt0dHRzJUrF1u3bi21lA8SFhbGOnXqmA7MapGMjAyWLVuW5cqV08uNEjExMXR3d2erVq2McvbCKM2FJCdMmEBzc3PeuHFDail/QtXoGWtA6RMqE9+xY4fUUv5EVlYWu3Xrxu7du+v16NoYuH79Os3NzTlhwgSppfwJURTZqlUruru7MyYmRmo5WsFozSUzM5PlypVj2bJl9abXYijTNcZEq1at9G76cc2aNaxTp46sblKUkokTJ9Lc3JzXr1+XWoqa7du3UxAE7ty5U2opWsNozYUkb968SXNzc44bN05qKSTfJSQEwN27d0stRTbo28aJhw8f0sfHhxs2bJBaimzIzMxk+fLlWbZsWb1IqxMVFcVcuXIZzI7Gz8WozYUkJ0+eTDMzM167dk1SHa9evaKLiwvbtm0rqQ45otryvW3bNkl1ZGVlsWvXruzZs6dBniA3ZFQdzbFjx0qqQxRFNm/enLlz5zaos1ifg9GbS1ZWFitUqMDSpUtL1msx1MN9xoQ+HFYNCgpi3bp1+fjxY8k0yJkpU6bQzMyMV69elUzDli1bKAgC9+7dK5kGXWH05kKSt2/fpoWFBceMGSPJ+zdv3kwAsggofUXqNDv379+nj4+PKX+chGRlZbFixYr09PSUpKP58uVLurq6Gmz+u09FFuZCktOnT6dCoeDly5d1+l5DT6hoTOzdu1eSBKGZmZns3Lkze/XqZVQX2xkid+7coYWFBUePHq3T94qiyCZNmvCrr75ifHy8Tt8tFbIxl+zsbFaqVImlSpXS2dWxxpIK3phQXW3w8uVLnb1z5cqV9PX1ZUREhM7eaeKfUXU0L126pLN3bty4kYIg8MCBAzp7p9TIxlxI8u7du7S0tOTIkSN18j7VJVZyCih9R3Upm65u+bt79y59fHxM+eP0CFVHs2TJkjrpaL548YLOzs7s0qWL1t+lT8jKXEhy1qxZVCgUvHjxolbfo7p+V24BZQiorpNev369Vt+TkZHBTp06sW/fvqbpMD3j3r17tLS05IgRI7T6HlEU2ahRI+bNm5eJiYlafZe+ITtzyc7OZpUqVViiRAmmpaVp5R2iKLJBgwayDChDoUuXLnR0dOTz58+19o7ly5fT19eXT58+1do7THw+s2fPpiAIvHDhgtbesXbtWgqCwEOHDmntHfqK7MyFJB88eEArKysOGzZMK89fs2YNAfDw4cNaeb6JLycxMZF58+Zl/fr1tTI9dvv2bdauXduUP06PycnJYZUqVVi8eHGmpqZq/PnPnj2jk5MTu3XrpvFnGwKyNBeSnDt3LgVB4Pnz5zX63MjISDo4OMg2oAyJw4cPE4DG71JJT09nhw4d2L9/fyqVSo0+24RmUXU0hw4dqtHniqLI+vXrM1++fExKStLosw0F2ZpLTk4Oq1WrxmLFimms1yKKIv38/GQdUIZGt27d6ODgwMjISI09c+nSpfTz8+OzZ8809kwT2mPevHkUBIHnzp3T2DODgoIoCAKPHj2qsWcaGrI1F5IMDQ2ltbU1Bw8erJHnrVq1igAYHByskeeZ0D5JSUnMly8ffX19NTI9dvPmTdaqVcuoExIaGzk5Ofzuu+9YrFgxpqSkfPHznj59SgcHB/bq1UsD6gwXWZsLSS5cuJAA+Pvvv3/RcyIiImhvby/7gDJEgoODCYArV678ouekp6ezffv2HDBggGk6zMAIDQ2ljY0NBw0a9EXPEUWRvr6+LFCgAN+8eaMhdYaJ7M1FqVSyRo0aLFKkyGf3WpRKJevUqWMKKAOmV69etLe3/6KDjosWLWK9evX44sULzQkzoTNUHc0zZ8589jNWrFhBQRB4/PhxDSozTGRvLiT56NEj2tjYcMCAAZ/1+cDAQALgiRMnNKzMhK548+YNCxQowDp16nzWqOPGjRusVauW6ToFA0apVPL7779nkSJFmJyc/Mmff/LkCe3t7dm3b18tqDM8TOby/yxZsoQAeOrUqU/63OPHj2lnZ2cKKCPgxIkTBMDly5d/0udSU1PZtm1bDho0yDQdZuA8evSItra29Pf3/6TPKZVK+vj4sFChQnz79q2W1BkWJnP5f5RKJWvVqsVChQp9dK/l/c+YAso46Nu3L21tbT8pLf78+fNZv359neYrM6E9li5dSgD87bffPukzgiB80meMHZO5vIdqFNKvX7+P+vvPHe2Y0F/evn3LQoUKsVatWh81Crl27Rpr1arFffv26UCdCV2gVCpZu3ZtFixY8KM6jeHh4bSzs/vk0Y6xYzKXv7B8+fK/rZ+Iosi4uDhGREQwLi6Ooih+9vDZhP5z6tQpAuCSJUvU/+1DMZCSksI2bdpwyJAhpukwI+ND090figGlUsmaNWt+9jqNMSOQJEyoEUURfn5+CA8Px7lz57Bv3z4sXboUjx8/Vv9NkSJF1H97584d2NvbSyXXhJYYMGAA1q1bh/Pnz+PcuXN/i4GiRYuidOnSSE1NxZYtW5AnTx4J1ZrQBitWrED//v2xd+9ePHv27IMx8O2332L//v04ffo0atWqJaFa/cNkLh/g6dOn8PT0RHZ2NpRKJQDgQ9VkbW2N/fv3o379+rqWaELLpKSkoESJEoiJiYEoihAE4YMxYGVlhQMHDphiwAgRRRFeXl64desWSP5jDJibm+PQoUOmGPgLCqkF6COhoaHIyMhATk4O+G7q8IN/l5WVhcaNG+PYsWM6VmhC21y4cEFtLMCHOxeAKQaMmRMnTuD27dvq7/6fYkCpVJpi4AOYRi5/4fXr18iXLx/S0tL+MZjeR6FQwMbGBi9evICzs7MOFJrQNqoYSE9PV5vLv2GKAePDFANfjmnk8hc2btz40cYCvBs6p6WlYdOmTVpWZkJXqGLgYxoVwBQDxogpBr4c08jlPUiiePHiePLkyUebCwAIgoAiRYrg0aNHEARBiwpNaBtTDJgwxYBmMJnLe8THx8Pd3f2LPp8rVy4NKjKha0wxYMIUA5rBNC32HikpKV/0+eTkZA0pMSEVphgwYYoBzWAyl/f40vMqpvMuhs+XfocODg4aUmJCCt6+fYtTp0590TNMMfAOk7m8R65cuVC0aNHPni/18vKCv78/jh49ioyMDA2rM6ELzM3N4eLi8lmfLVq0KFxdXTWsyIS2efz4MRYtWgRfX1+4ubmhR48esLS0/OTnCIJgioH3MJnLewiCgIEDB37WZ/v164dmzZrhyJEjaNSoEXLlyoXmzZtjzZo1iIqK0rBSE5rm9evXmDJlCooUKfLZ0yIKhQLnzp3TsDITmiYnJwdnz57FiBEjUKpUKRQrVgyjRo2Cubk5FixYgIiICMyZM+ezOpmDBg0yLear0FGaGYMhKSmJdnZ2FASBAP7zn0KhoJ2dHZOSkki+yz909+5dzpo1izVq1KBCoSAAenl5cdKkSbx27ZpGrtM1oRmSkpI4adIkOjs708bGhkOGDOH9+/dpZ2en/u7+658gCLSysmLZsmUJgLVr1+bp06elLpqJ90hMTOS2bdvYvn17Ojs7EwBz587N7t27c+/evX/LC6ZqBz42Bv7aDpgwJa78IIcOHfrogDIzM+OxY8f+8VlxcXHcvHkz27ZtSycnJwJg3rx52atXLx44cEAjd3ab+HQSExM5YcIEOjk50dbWlsOGDeOrV6/U/z84OJhmZmb/2bi8HwOiKHL//v2sUKECAbBmzZo8deqUqTMhAaIo8sGDB5w7dy5r1qxJMzMzAmCFChU4fvx4Xr58+T+TjX5sDAiC8J/tgBwxmcsHmDx5MhUKBa2trSkIwt9GMar/Zmdn90kBlZWVxVOnTnHYsGEsXrw4AdDa2pqNGjViYGAgIyMjtVgqEySZkJDA8ePHq01l+PDhjIqK+uDfBgcHq0exnxIDoijy4MGDrFixIgHw+++/58mTJ00mo2UyMzN58uRJDhkyhEWLFlX/vn744QeuXLmSz58//+Rn/lsMvP9v586dWiiRYWMyl78QEhJCc3Nzjhs3jklJSVy8eLE6UFX/ihYtysWLF/P169df9K7Q0FDOnz+fPj4+6p5VuXLlOHbsWP7xxx+mNO4aJD4+nmPHjqWjoyPt7Ow4YsQIRkdH/+fnviQGRFHkr7/+ykqVKhEAq1evzuPHj5tMRoPExsZy48aNbNWqFR0cHAiAX3/9Nfv06cNff/2VqampX/yOf4uBqVOn0sXFhW3bttVAaYwLk7m8R2ZmJsuVK8dvv/2WmZmZ6v8uiiLj4+MZERHB+Ph4rTQOSUlJ/OWXX9ipUye6uroSAN3d3fnTTz9x9+7dfPPmjcbfKQfi4uI4ZswYOjg40N7enqNGjWJMTMwnP+dLYkAURR4+fJiVK1cmAFarVk09jWbi0xBFkbdv3+aMGTNYrVo19WiicuXKnDJlCm/cuKG1ev2nGNi+fbtp9PIBTObyHhMmTKC5uTlv3LghqY7s7GyeO3eOo0aNYunSpQmAFhYW9PPz4+LFiz/pCl65Ehsby9GjR9Pe3p729vYcPXo0Y2NjJdUkiiKPHj3KKlWqEACrVq3Ko0ePmkzmP0hPT+fRo0fp7+/PggULEgDt7Oz4448/cu3atf84rakrRFFky5Yt6ebm9lkdF2PFZC7/z/Xr12lmZsZJkyZJLeVvPH78mEuWLGG9evVoYWFBAPT09OTIkSN59uxZZmdnSy1Rb4iJieHIkSNpb29PBwcH/vzzz4yLi5Na1p8QRZHBwcGsVq0aAbBKlSo8fPiwyWTe49WrV1yzZg2bNWtGW1tbAmDBggU5YMAABgcHMyMjQ2qJfyImJoZubm5s2bKl6Xv8f0zmQjIjI4Nly5Zl+fLlmZWVJbWcf+Xt27fcs2cPu3XrRg8PDwKgq6srO3bsyO3btzMxMVFqiZIQHR3NgIAA2tnZ0dHRkePGjWN8fLzUsv4VURR5/PhxVq9enQDo7e3NQ4cOybJxEkWR169f5+TJk9VrVAqFgtWrV+fMmTN59+5dva+XnTt3EgB/+eUXqaXoBSZzITl27FhaWFjw5s2bUkv5JJRKJS9dusRx48axfPnyBEAzMzPWrl2b8+bN48OHD6WWqHWioqI4fPhw2tra0snJiePHj2dCQoLUsj4JURR58uRJ1qhRgwBYqVIlHjx4UO8b0y8lNTWVBw8eZK9evZg3b14CoKOjI9u0acNNmzbp3YjzY2jTpg1dXV0ln6rTB2RvLleuXKGZmRmnTp0qtZQv5tmzZ1yxYgUbN25Ma2trAmDx4sU5dOhQ/vbbb3o/KvsUXr16xaFDh9LGxoZOTk6cOHGiwY/aRFHkb7/9xpo1axIAK1asyAMHDhiVyahitFGjRuoYLVasmNHEaFxcHD08PNisWTOj+t4+B1mbS3p6Oj09Penl5WXwQf1TByDDAAAgAElEQVRXVL3C3r17G02vkCRfvnzJIUOG0MbGhs7Ozpw0aZLBm8qHOH36NGvVqqU++Ldv3z6DbKzeH12XK1fub6Pr0NBQqSVqnL179xIAt2zZIrUUSZG1uYwaNYqWlpa8c+eO1FK0yn/NZ9+5c0fvG64XL15w0KBBtLa2pouLCydPniyLVBtnzpyhj4+P+gzUnj179P78k2pd8KefflKvC7q4uKjXBeXwvbVv354uLi5/yvogN2RrLpcuXaJCoeCMGTOklqJzVDtxmjdvrt6JU6hQIb3cifP8+XMOGDCA1tbWdHV15dSpU7/48KohcvbsWdatW5cA+O2333L37t16ZTJPnjzhkiVL6OfnZ9rRyHeHdnPnzs0mTZrofcdNW8jSXNLS0liyZEl6e3vLLuj/yvtnCAoUKKA3ZwiePXtGf39/WllZMVeuXJw2bZrpICnJc+fO0dfXlwBYpkwZ7ty5UxKTef8slqen59/OYoWHh+tck76xf/9+AuDGjRulliIJsjSXgIAAWllZ8d69e1JL0SukPP2sIjIykv369aOlpSXd3Nw4Y8YMvn37VqvvNEQuXLjAevXqEQBLly7NX375hTk5OVp9pymLxKfTuXNnOjk58cWLF1JL0TmyM5cLFy5QEATOmTNHail6jypvU+vWrT+YtyktLU1j73r69Cn79u1LS0tLuru7c9asWSZT+QguXrzIBg0aEABLlSrF7du3a9Rk3s9/Z25ubsp/94kkJibyq6++YsOGDWU3PSYrc0lNTWXx4sVZtWpVrffyjI0PZZy1sbH5ooyzJBkREcHevXvT0tKSHh4enD179t/u1jDx31y6dIkNGzYkAJYsWZJbt279rBj/UOZuKysrU+buL0B1hce6deuklqJTZGUuQ4cOpbW1tSwOF2qT9+/KqFWr1mfdlfH48WP27NmTFhYWzJ07N+fOnWu620YDXL58mY0bNyYAfvPNN9y8efN/rivGx8f/7c6hr776ynTnkAb56aef6OjoyGfPnkktRWfIxlzOnj1LQRA4f/58qaUYHQkJCdy2bRs7dOhAFxeXf73l7/Hjx+zRowfNzc2ZJ08ezp8/XyNp0U38matXr7JJkybqg7SbNm1Sm8z7t6VWr15dfRlWpUqV1Lelmqa7NEtSUhK//vpr1qtXTzbTYwJJwshJTU1FuXLlkCdPHvz+++8wMzOTWpLRkpOTg4sXL+LQoUP49ddf8fDhQ1haWqJKlSrIysrCtWvX4OHhgREjRqBPnz6wtbWVWrJRc/36dUyZMgUHDx5E3rx54enpifDwcDx9+hS2trbw8/PDDz/8gMaNG+Orr76SWq5RExwcjIYNGyIoKAi9evWSWo72kdrddMGgQYNoY2PDsLAwqaXIjhMnTtDb2/tPt/iVLl2ao0eP5vnz501rX1okOjqa69atY4sWLWhjY6Ouf0dHRw4ZMsS0YUICevToQQcHBz59+lRqKVrH6M3lzJkzBMBFixZJLUVWhIaGskuXLjQzM+PXX3/NJUuWMDo6mrt27WLXrl3p5uZGAMyVKxc7d+7MHTt2yPJwpCYRRZEhISGcOnWq+mIyQRBYrVo1Tp8+nbdu3eKNGzfYokULAmCRIkW4du1ao0t9pM+8fv2a+fPnZ926dY1+esyozSU5OZmFCxfm999/b5pD1hEPHjxgp06daGZmxnz58nHp0qVMT0//29/l5OTw4sWL/Pnnn1m2bFkCoLm5OevUqcMFCxaYRpkfSVpaGg8dOsS+ffsyX758BEAHBwe2atWKGzZs+McL0m7dusWWLVsSAAsXLszVq1f/6fZVE9rj+PHjBMAVK1ZILUWrGLW59O/fn7a2tqbTwjrg/v377NChAxUKBfPnz8/ly5d/UhqZp0+fcvny5WzQoAEtLS3Vu52GDx/O06dPm3rX7/HixQuuWrWKP/zwg3q6q0iRIhw8eDBPnDjxSSZx+/Zttm7dmoIgsGDBgly1apXJZHRAnz59aGdnxydPnkgtRWsYrbn89ttvBMClS5dKLcWouXfvHtu3b0+FQsECBQpwxYoVX5ybLDk5mfv372ePHj2YJ08eAqCzszPbtWvHLVu2GNx9LV+KUqnklStXOGHCBFasWFGdeLRmzZqcM2cO79+//8VTLHfv3mXbtm0pCAILFCjAlStXmkxGi7x9+5YFCxZk7dq1jXZWxSjNRQ5fnNTcuXOHbdu2pUKhYMGCBbly5UqtJLxUKpW8evUqJ06c+KeG9fvvv+fs2bM10rDqI8nJydy3b9/fDLZ9+/bcunWr1gz23r17bNeuHQVBYP78+RkYGKhXiUyNiZMnTxIAly1bJrUUrWCU5iKHIadUvD+NUrhwYQYFBem0h/vixQsGBQWxSZMmf5oSGjRoEI8fP27Qve2nT59y2bJlbNCgAa2srNSn7QMCAnjmzBmdTg2+P82ZL18+Llu27INrZya+DGOeujc6czl27JgsFst0za1bt9iqVSu1qaxZs0bydZC0tDQePnyY/fr1+9NidsuWLbl+/XrGxMRIqu+/yMnJ4YULFzhmzJg/bWqoW7cuFy5cyEePHkktkQ8fPmSnTp2oUCj49ddf/+MGDROfhzFvOjIqc1Ft8/P19TXKqRIpCAkJYYsWLSgIAosWLaq3W1dFUeTNmzc5bdo0VqlShYIgUBAEVq1aldOmTePNmzf1IiZev37NnTt3skuXLurt2G5ubuzSpQt37typt9uxQ0ND2blzZyoUCubNm5eLFy/WaOJSOWOsxyWMylx69uwpmwNK2ubGjRts3rw5BUFgsWLFuH79er00lX8iOjqa69evZ8uWLWlvb08AzJ8/P/v168fDhw/rtPf96NEjLly4kHXr1lVnFi5btizHjBnDCxcuGNRB0rCwMHbt2pVmZmbMkycPFy5caDIZDTBw4ECjO+htNOZy9OhRAmBQUJDUUgyaa9eusVmzZhQEgcWLF+fGjRsN/kK1jIwMHj9+nIMGDWLhwoUJgLa2tmzatCmDgoL48uVLjb4vOzubZ86cYUBAAL/55hsCoKWlJRs0aMBly5YxIiJCo++TgkePHrFbt25qk1mwYIEpR9wXkJKSwqJFi7J69eoG1dn4N4zCXOSYFE7TqBIdCoLAb7755k+JDo0JURR57949zp49mzVq1FAnbfTy8uLEiRN59erVz5r7TkhI4NatW9m+fXs6Ozurk3f26NGD+/btM9prBMLDw9m9e3eamZkxd+7cnDdvnimL8mdibMl1jcJc5JjOWlOoUrQLgsCSJUtyy5YtRtNz+hji4+O5ZcsWtmvX7k/p5nv27Mn9+/f/Y0MpiiLv37/POXPmsGbNmuprBypWrMgJEybwypUrRrdA+288efKEPXv2pLm5Od3d3TlnzhyTyXwGxnQtiMGbi+oinrVr10otxaC4dOkSGzVqREEQWKpUKW7btk1WpvIhsrKyePr0aQ4bNowlSpRQX5TVsGFDLl++nI8ePeKJEyc4ePBgFilSRH1hWpMmTbhq1SpZXmX7V1SXv6lMxnT526dhTBcaGrS5yPkK0c9FdS2uIAgsXbq0xq/FNSZCQ0M5ZcoUlipV6k9ZnR0cHPjjjz/ywIEDpnWGf+Dp06fs06cPLSws6ObmxpkzZ5qyMH8kxnIVu0GbS+fOnenk5GTqMX4E58+fZ7169SgIAsuUKcMdO3bIatrmYxFFkbdu3eL06dNZrVo1talUrFiRbdq0YePGjenq6koAdHd3Z9euXbl7926+efNGaul6SWRkJPv160dLS0u6urpy+vTpprr6CAICAmhlZcV79+5JLeWzMVhz2b9/PwFw48aNUkvRa86dO0c/Pz8KgsCyZcty165dJlP5C+np6Txy5Aj79+/PAgUKEADt7e3ZokULrlu3jtHR0X/6+5ycHJ4/f56jRo1i6dKlCYAWFhb09fXlokWL+PjxY4lKor88e/aM/fv3V5vMtGnTTCbzL6SlpbFkyZL09vY22I01Bmku8fHxzJ07N3/44QfTdNg/8Pvvv7Nu3boUBIHlypXj7t27TabyHq9eveLq1avZrFkz2traEgALFSrEgQMH8tixY5+UT+vJkydcunQp69Wrp87oXKpUKY4YMYJnz5412MZBGzx//pwDBgyglZUVXVxcOGXKFL09OCo1ly5dokKh4IwZM6SW8lkYpLmo7mrX9PkEY+D06dP08fGhIAisUKEC9+7dazIVvpvuunbtGidNmsRKlSqpE2DWqFGDs2bN4t27dzXSUXn79i337t3Lbt260cPDgwDo4uLCDh06cNu2bUxMTNRAaQyfFy9ecNCgQbSysqKzszMnTZrEpKQkqWXpHaNGjaKlpSXv3LkjtZRPxuDMZc+ePQTALVu2SC1FbxBFkadOnWLt2rUpCAIrVqzI/fv3y35Ul5KSwgMHDrBXr17MmzcvAdDJyYlt27bl5s2bGRcXp9X3K5VKXr58mePHj2f58uUJgGZmZqxVqxbnzp3Lhw8fyv47evnyJQcPHkxra2s6OTlx4sSJJpN5j/T0dHp6etLLy8ugMmSQBmYusbGxdHd3Z/PmzWX/oyTfmcrJkydZs2ZNCoJALy8vHjhwQNZ1ExkZycDAQDZq1IjW1tYEwOLFi3PYsGE8deqUpD/Q58+fc+XKlWzcuLFaW7FixThkyBCePHnSoDM6fymvXr3i0KFDaWNjQ0dHR44fP1529/b8E1euXKGZmRmnTp0qtZRPwqDMpU2bNsyVK9ffFljlhiiKPHHiBGvUqEFBEOjt7c1ff/1VlqaiVCr5xx9/cOzYsSxXrpx6dODj48P58+czNDRUaokfJDU1lb/++it79+6tHlU5OjqydevW3Lhxo9ZHVfpKVFQUhw8fThsbGzo4OHDs2LEmkyE5duxYWlhY8NatW1JL+WgMxlx27txJANy+fbvUUiRDFEUeO3aM1atXpyAIrFy5Mg8fPiw7U3nz5g13797Nn376ie7u7gRAV1dXdurUib/88ovBTauIosgbN25wypQp9Pb2JgAKgsDvvvuOM2bM4J07d2T3HUdHRzMgIIC2trZ0cHDgzz//zPj4eKllSUZGRgbLlCnD8uXLG8z0mEGYS0xMDN3c3NiyZUvZ/cjId41PcHCw+txF1apVeeTIEVnVRUxMDBcvXkw/Pz9aWFgQAEuXLs1Ro0bx3LlzRrUjKyoqimvXrmXz5s1pZ2dHACxYsCD9/f154sQJqeXplJiYGI4cOZJ2dna0t7fn6NGjZTuqu379Os3MzDhp0iSppXwUAklCw2jhkVpFEASNP1PTdSCKIoB3WrWhV9PP1HT5+a4jBOB/WjWp2RBiQNvoewxoG0OIAdXvwBDaAXONPek9nj59iu3bt8PcXCuP1xgkUbp0aTRu3FjjX5Tc60Du5QdMdSD38gPyrgOtlPj58+fIkycP/Pz8tPH4L+bp06e4ePEiatasiSNHjqBx48Yaf4e+10FERAQuXbqEmjVr4ujRoxqvA30v//sxoI3yA/pfB48fP8b169dRtWpVBAcHyy4GtF1+QP/rIDw8HCEhIahcuTKOHz+u0TrQmp26ubkhf/782nr8Z0MSs2bNwsqVKzFhwgQoFAqtvUuf62DOnDlYsWKFVutAX8sviiJmz56NlStXYvz48bKNgXnz5mHZsmWYPHmy7GJAV+UH9LsOFixYgKVLl2qlDrRXo3pKREQEtm/fDhcXFzRr1kxqOZIQGRmJ7du3w9nZGU2bNpVajs55/Pgxtm7dCldXVzRv3lxqOZIQFxeHnTt3wsHBAY0aNZJajs6Re/kBICkpCbt374adnR3q16+v8efLylxIYtmyZUhKSkLXrl31sjehbUgiKCgIiYmJ6Nixo+zqQBRFLF68GG/evEH37t2RL18+qSXpHJLYu3cvoqOj0ahRIxQoUEBqSTqFJPbs2YPo6Gg0btwYBQsWlFqSziGJo0eP4tWrV/D19UWhQoU0/g5ZmcuzZ8+wadMmuLi4wN/fXyu7LfSd6OhorF+/Ho6OjrKsg/DwcGzduhVubm7o37+/7MoPAJmZmQgKCoK5uTn69eun1SkhfSQjIwNBQUGwsLBAv379ZBkDOTk5WLt2LQRBQI8ePbQSA7KJKpIIDAxEQkICOnTogMKFC0stSeeQxPr16xETE4MWLVqgWLFiUkvSKaIoYtGiRXjz5g169Oghu1Eb8C4GLly4gDt37qBixYqoXLmy1JJ0CkmcP39eXX5vb2+pJUnC/fv3cenSJRQrVgw1a9bUyjtkYy4vX77E+vXr4eTkhMGDB8uyt5KYmIigoCDY2tpi8ODBsuuxPnr0CNu2bYO7u7tsRy2iKGL58uVQKpXo06cPLC0tpZakU1TlF0URffv2lV35gXcGu3HjRmRkZKBjx46ws7PTyntk0bqQxIoVKxAXF4d27dqhaNGiUkvSOSSxbds2PHv2DA0bNkSZMmWklqRTRFHE/Pnz8fbtW/Tq1UuWay3AO4M9fvw48uXLh+bNm8vOYENDQ3Hy5Enkz58fzZo1k135gXedzF27dsHBwQEdOnTQWh3IwlyioqKwdu1aODg4YMiQIbLrsQNAcnIyAgMDYWVlhaFDh8quDh4+fIgdO3Ygd+7csp1nJ4m1a9ciNTUVnTp1gouLi9SSdApJrFmzBqmpqejSpQucnZ2llqRzSOLQoUN49eoV/Pz8tLo8YPQtDEmsWrUKMTExaNOmDUqUKCG1JJ1DEvv27UNYWBh8fHzg7e0tq8ZVFEXMmzcPycnJ6NOnD/LmzSu1JEmIj4/H1q1b4ejoiO7du8sqBgAgNjYW27dvh5OTE7p16ya78gNAdnY2Vq9eDYVCgV69emm1DozeXKKiohAUFAQHBwcMGzZMdj12AEhPT8fixYthZmaGYcOG6X0qCk1z584d7Nq1C3nz5kXfvn1l2aiQxM6dOxEVFYXGjRujSJEiUkvSKSSxY8cOREdHo0mTJlrZemsI3LhxA9euXYOnpye+//57k7l8LqpRS3R0NFq3bo2SJUtKLUnnkERwcDBu376NqlWraj2g9A2lUonZs2cjNTUV/fv3R+7cuaWWJAlpaWlYuXIlLCwsZLkFPS0tDatWrYKlpSX8/f1l2ckURRFBQUHIyspC9+7dYWNjo9X3GXUNvz9qGT58uCwDKisrCwsWLAAADBs2TFa7Y0jixo0bOHDgAAoUKKD1aQB9hSROnDiB+/fvo1q1arKbFiWJY8eO4eHDh6hevTq8vLykliQJL168wIEDB+Du7o42bdpoPQaMtrUliZUrV8p+1HL69GlcuXIF5cuXR/369WXVqCiVSkyfPh3p6ekYPHgw3NzcpJYkCTk5OVi0aBEAYPDgwbCwsJBYkW7Jzs7G4sWLAQCDBg2S3bQw8L/tx0lJSWjdujXy5Mmj9Xcarbm8fPkSq1atgoODAwICAmQ5asnJycH8+fOhVCoxdOhQWFtbSy1JZ6gOywUHB6NYsWL46aefZGWsKkjiypUr+OOPP1CqVCnZdTDeL7+npyf8/PxkVX4Vr1+/xvr162Fra4s+ffropA6MssUliaVLlyI2Nhbt27fHN998I7UknaM6iX327FmUKlVKdnv6s7KyMG3aNGRnZ2PkyJGy3HYK/C8rQVZWFvr37w9bW1upJekUVS657OxsWZYf+N9u0cjISPj6+sLT01Mn7zVKc3n69CnWrFkDZ2dn2Y5alEol5s6di5ycHAwZMkRrp3D1EdUc+9mzZ1G2bFm0a9dOVsb6Pvfv38eRI0eQP39+tG3bVnb18ODBAxw9ehT58+fXyTqDPpKeno5ly5bBzMwMgwYN0ll7aHStrupMQ2JiIrp27Sq7/FnAu8b1jz/+wG+//YbixYujdevWsvpRpaWlYdq0aSCJsWPHyspY30cURSxZsgRpaWno1asXXF1dpZakU0hi+fLlSE1NRffu3WVXfuBdHRw5ckS9W7R69eo6awuMzlzu37+PzZs3w93dHUOHDpVVo6oiJycHs2fPRnZ2NoYMGQJHR0epJekM1XmOGzdu4LvvvkOTJk1kGQMA8OTJE+zatQvu7u6yPDQZGRmJHTt2IFeuXOjRo4fsyg+8ywA9b948CIKA4cOH63S3qFGZS05ODqZOnYrk5GT4+/vL7p4K4H8L2SdPnkSJEiXQvn17Wf2okpKSMHPmTJibm2PixImwsrKSWpIkqNYd37x5g65du8ouK4HqjFtSUhI6dOggy1xyqlQv165dQ6VKlXS+mcNozIUkLl68iAMHDqBQoUKyzXqbnZ2tXsgOCAiQ3ahl1apVCA8PR6NGjVCzZk1ZxgDwrte+ZcsWuLi4yPK3IPd7iwAgNTUVM2fOhCAIGDNmjM47WkZjLpmZmRg/fjyysrIwZswYWZ5pUJ3GP3fuHL799lvZLeA+f/4cS5Ysgb29PSZMmAAzMzOpJUkCSSxZsgSJiYno3Lmz7FKdkMTq1asRExODli1bonjx4lJL0jkksWXLFty6dQs1a9aUZAu6UZiLap79/PnzqFSpEjp27CirRlVFSkoKJk2aJMuFbFEUMWfOHMTExKBLly749ttvZRkDwLvdkhs3boSLi4ss7y6KjY3FqlWrYGdnJ9t8gjExMZg1axasrKwwefJkSTJzGEWtx8bGYtKkSTA3N8e0adNku5d9w4YNuHXrFmrVqiWrhWySCAkJwcaNG5E7d26MHDlSlg0K8M5kFy5cqN4tKbcbV1WjllevXqFFixY6O9OhT4iiiLlz5+LZs2do3bo1qlWrJklbYPC/QFEUMXPmTERERKBly5aoU6eObBrV94mMjMTMmTNhbW2NqVOnyiqHWHZ2NiZMmIC0tDQMHTpUltcXqwgNDcXGjRvh5uaGIUOGyO63EBUVhcDAQNjZ2WHEiBGyKz9JXL16FUFBQXB3d8eECRMk62gZtLmoFvFXr14NDw8PTJ06VZZ5g3JycjB+/HhER0ejW7duqFKlimx+VCRx4MABnDhxAp6enujdu7dsyv5XVLnU3r59i759+8put6RqrSkqKgpt27ZF6dKlZRcLaWlpCAgIQFpaGkaNGoUiRYpIVgcG3RInJydj6NChyMjIwKxZs2R3RwXwv9QOO3fuROHChTF27FhZTQklJCRg/PjxEAQB06ZNg5OTk9SSJEHV0dqzZw8KFCiAAQMGyKphJYmwsDAEBQXBxcUFo0ePltXvAHhXB8uWLcPFixfx3Xff6SyH2D9hsLWvWsC9fv06fHx80LNnT1n9mIB3wRQZGYmAgAAIgoC5c+fqJNupvqCKgbCwMDRp0gSNGjWSXQyoyMjIwNixY5GZmYnRo0fDw8NDakk6RalUYuLEiUhKSkKfPn1kl5mDJK5fv45Zs2bBwcEBCxYskHzt2SDNhSTOnDmDhQsXwtXVFYsWLZJVxl8VGRkZGDx4MJ4/f46uXbuiadOmsmlcVT31FStWwM3NDTNmzJDllCjwri62bt2KCxcuoFKlSujSpYts4gB4V/7jx49j3759KFy4sCwzc7x9+xYDBw7E27dvMWLECFSqVEnyOjC4XyNJvHr1Cv369UNmZibmzZsny7lV1Y6Qw4cPo1y5cpg+fbqsGtfExEQMHDgQ6enpmDFjBooXLy67GADe/R6eP3+OSZMmwdLSErNmzZK8x6prEhISEBAQAKVSialTp8Ld3V1qSTpFqVRi2rRpuHz5MurUqaM3GzkMbuSSkZGBAQMGICwsDG3atJFlziCS2Lt3L2bNmgVnZ2cEBQUhV65cUsvSGdnZ2fj5559x69YtNGjQQLY3TALvNnOMHj0aL1++RNeuXVGrVi1Z1UVOTg7Gjh2LBw8eoGnTprJL0koSBw8exLJly5A7d24sW7ZMbzoXBmUuqt0wBw4cQJkyZbBw4UJZbbkF3gXT5cuX0b9/f/WZBn0YAusKURSxYsUKrF+/HgUKFMCSJUtknT9s27Zt2LVrF4oVK4ZJkybJKisBSWzatAnr169H/vz5MX/+fFndskkSDx8+xMCBAyGKIubPn49vvvlGb9oCgzEXURSxbt06zJ07F25ubtiwYYPsFi1VO2I6deqExMREjBo1Ch06dNCbYNI2oijil19+wc8//wwbGxsEBQWhcOHCsin/+5DE7du3MXLkSJibm2Px4sXInTu31LJ0BkmcPHkSw4YNg7m5OQIDA1GoUCHZxAJJJCQkoHv37oiKikK/fv307r4agzAXktizZw+GDh0KCwsLBAUFoWLFinpVkdqGJJ4+fYo2bdogIiICP/30E8aMGSObnqpSqcSmTZvQt29f9e2Kvr6+sooBFSQRGxuLbt26IS4uDkOGDJHV9cWqzN+dO3dGamoqpkyZIrudgmlpaejXrx8uX76MunXr6uUZP703F1EUsXv3bvTs2VN9J7ycdkUB735MT548QatWrXDnzh38+OOPWLhwoSx2yJFEamoqpk6div79+0OpVGLBggXo0qWL7M4xAO/q482bN+jevTtCQkLQsGFDjBs3TjadDFEUceTIEbRq1Qrx8fEYPnw4Bg8eLKtYUGWi2Lt3L8qUKYO1a9fC3t5eall/Q6+/kezsbAQGBqJbt27IzMzE7Nmz0bNnT1kFkmr/epMmTRASEoKmTZti9erVehlMmoYk7t+/j5YtW2LatGmwt7fHunXr0Lt3b9k0pu9DEomJiejWrRuOHDkCLy8vrFmzRm8WcLUJSaSnp2P+/Plo164dkpKSMHr0aEyZMkU26yyqjoW/vz/Wrl2LwoULY/v27ciXL59edrb1axz1/5BETEwMxo0bh40bN8La2hpLly5F9+7dZdOokERWVha2bt2KMWPGICEhAR06dMDy5cvh6Oiol8GkKUji7du3CAoKwty5c5GQkAAvLy8EBgbCy8vLqMv+T6gWb3v37o3z58+jXLly2LlzJ/LkyWP09SGKIu7evYvRo0fj2LFjcHBwwOLFi9GrVy+9mwrSFu8v3p8+fRrFihXDjh074Onpqbffv1a/mezsbPWX/zEVoJ3JI/wAABqkSURBVHJm1TbbR48eoVChQggMDET9+vUNcsQiiqK67B9bB9nZ2bh27Rpmz56No0ePwsLCAmPGjMGYMWMMqpeqWidydnaGg4MDFArFv9aBqncaHByMGTNmICQkBPb29hg5ciRGjBgBFxcXvf0h/ROiKGLfvn3w8PBA0aJF4erqqu5pf2w8xMfHY9OmTZg7dy5iY2NRu3ZtbNiwAQUKFND7+iCJY8eOIXfu3ChUqNBHxYHqc6Io4vHjx1i1ahXWr1+PpKQklC9fHkuXLtXpXfBfCkn8/vvv8PDwwNdffw17e3sIgvBRdQC8y/q+YcMGLFq0CDExMahWrRrWr1+v92e7tGYuWVlZaNu2LczNzVG6dGl4enqicOHC8PDwgL29PczMzCAIAkRRxOvXrxEeHo6TJ09i3759CA8Ph4WFBdq1a4cZM2YY7C6Q7Oxs+Pv7w9raGt988w2KFy+OvHnzwsXFBTY2NuoyiaKIlJQUPH/+HJcuXcLBgwdx+fJlZGZmwtPTE7NmzUKDBg0MbtSWkZGBH374AampqShVqhS8vLxQvnx5lChRAh4eHrC0tIRCoYAoinjx4gVOnz6NrVu3IiQkBADUC5Xe3t4G2bEA3t2xM2rUKMTGxsLV1RVFihRBqVKlUKpUKXzzzTcoXLgwcuXKBRsbG5iZmYEkMjMzkZiYiIcPH+LkyZM4fPgwIiMjYWtri2HDhmHcuHFwcnIyiN9ESkoKBgwYgLi4OOTOnRulSpVCmTJlULJkSRQvXhz58+eHk5MTzM3NQRIZGRmIjo5GSEgIfv31V5w+fRqvX7+Gm5sbxo8fjyFDhhhcJyM1NRWDBg1CQkICvvrqK3UdFC9eHMWKFcPXX3+trgPg3cWHCQkJePDgAY4fP44jR47g5cuX6vtpxo4dC2dnZ72vA62ZS3JyMq5cuYKoqCjs2rULAGBhYQFbW1vY2dnB3NxcbS5v3rxBamoqlEol7OzsUK9ePQwdOhQ+Pj7qvzNEkpOTsW/fPsTGxgIAFAoFrKysYGtrC1tbW7VZKJVKJCcnIzU1VT3aK1GiBHr06IGuXbsa3I9JRVpaGtzd3REXF4eTJ08iODgYgiDAysoKDg4OsLS0hJmZGZRKJRITE5Geng4LCwtUqlQJw4YNww8//AArKyuDLLsKQRDQo0cPXL58GaGhobh58yYuX74Mkuq6sLW1hY2NDSwsLCCKItLT05Gamor09HSQhKOjI1q0aIGAgAB4e3sbVCeDJFq1aoUrV64gPDwcv/32G44dOwYAMDMzU7cHVlZW6rInJycjMzMTCoUCefPmRbdu3dCvXz8UK1bMIGNBqVSiUaNGuHbtGiIiInD06FEcOnQIwN/rQGWwycnJyMjIAEm4uLigbdu2GDp0KLy8vAymo6U1c3F2dsaZM2fw5MkT3L9/H/fv38eTJ08QFRWFt2/fIjs7GyShUCiQP39+FC1aFDVq1ED9+vVRqlQpgzYVFQ4ODti/fz/CwsIQGhqKsLAwvHjxAgkJCUhNTUVWVhaAd6aTJ08e5M+fH15eXqhbty68vb3h4OBg0HWQK1cuHDt2DAkJCQgPD8fNmzdx8+ZNPHz4EDExMcjKykJ2djYUCgXKlCmDatWqoVmzZqhatSqsra0NuuwqHBwcMHnyZIiiiOTkZDx//hzh4eEIDQ3FgwcP8PjxY8TFxSEtLQ0ZGRkQBAEODg4oVKgQSpQogRo1aqBOnTooUqSIerRvSDg6OmLBggXIyclBQkICHj9+jNDQUDx8+BChoaF4+vQpXr9+rTYTZ2dnlCxZEmXLloWvry9q1KgBd3d3gyv3+zg5OSEwMBBZWVmIi4tDeHg4wsLCEBYWhkePHiEyMhJv3rxRtwd2dnYoWLAgSpYsqf7+CxUq9FHTifqE1swlJCREPcwrWrQoihYtClEUkZWVhczMTCiVSrW52NjYqHuokZGRiIyM1JasP5GSkoLs7GytPf/27duwtLSEi4sLqlatiipVqkCpVCIzMxOZmZnqOVVBENR1oFAokJaWht9//11rut5Hm3Vw/fr1P/0YChUqhEKFCiEnJwcZGRnIyclRr0nZ2dnB0tISKSkpOHnypFb0fAhtx8C1a9f+1iCopopLly6NnJwcZGVlISsrC0qlEoIgwNLSElZWVuoOVmhoKEJDQ7WmUZt18KHyu7u7w93dHTVq1FC3Bzk5OX8rOwBcvnxZK7reR9sx8NffAQB89dVX+Oqrr1CzZs0/1QEAdR2o1uZUnXNtoo06EKhq4TRIUlISrl+/runHaoV8+fJpJWWC3OtA7uUHTHUg9/ID8q4DrZiLCRMmTJiQN4axMmTChAkTJgwKeZxAMgLeH2Aa0qKepnh/fcqECbliSL8Dgxi5LFq0CIIgYMyYMVpdeNNnQkJCYGZmpj4DIifi4uLQuHFjKBQKWZZfRfPmzeHo6IhffvlFaimScePGDQiCgBs3bkgtReeEhISgRIkSyJs3L9LT06WW858YhLkMGjQIc+bMwdy5c1G7dm08f/5cakkmdMTZs2dRvnx5XLt2DcHBwahQoYLUkiRj8+bNaNKkCdq3b48+ffoYRANj4sshicDAQFStWhWOjo44d+4cbGxspJb1nxiEuSgUCowYMQLnzp3D8+fPUb58efUhJBPGierqVh8fHxQvXhw3b95E/fr1pZYlKQ4ODtiyZQtWr16NTZs2oUqVKnj48KHUskxokTdv3qBNmzbw9/dH7969cfHiRRQrVkxqWR+FQZiLimrVquHmzZuoUaMGmjRpguHDh6sPHpkwHmJiYtCgQQNMmDAB48aNw8mTJ5E3b16pZekFgiCgZ8+euHLlCrKzs1GpUiVs3rxZalkmtMDVq1dRoUIFnDhxArt378bSpUsN6tZVgzIXAHB1dcX+/fuxcOFCLF26FN9//z2ePn0qtSwTGuLUqVMoV64c7ty5gxMnTmDy5MmyyXz7KZQtWxbXrl1Dq1at0KVLF3Tv3h2pqalSyzKhAUhi8eLFqF69Otzc3BASEoKWLVtKLeuTMThzAd713oYMGYILFy4gNjYWFSpUwL59+6SWZeILUCqVmDhxInx9fVGmTBncvHkTdevWlVqWXmNnZ4cNGzZgw4YN2LFjBypXrox79+5JLcvEF5CYmIgff/wRQ4YMwYABA3D+/HkULlxYalmfhUGaiwpvb2+EhISgTp06aNGiBQYNGoTMzEypZZn4RF69egVfX19MmzYNU6ZMwbFjx5AnTx6pZRkMXbt2xdWrV6FQKODt7Y1169bBdDba8Lh06RIqVKiAs2fP4sCBA1iwYAEsLS2llvXZGLS5AO8SZO7evRvLli3DqlWrUL16dTx+/FhqWSY+kuPHj6N8+fIICwvDqVOnZHVlrybx9PTE5cuX0bFjR/To0QNdunRBSkqK1LJMfASiKGLevHn4/vvv8fXXX+PmzZto2rSp1LK+GIM3F+DdNJm/vz/++OMPvH79GhUrVlSn+Tehn+Tk5ODnn39G/fr14eXlhZs3b6JWrVpSyzJobG1tsXr1amzduhX79++Hl5cXbt++LbUsE/9CfHw8mjZtihEjRmDYsGH4/fffUaBAAallaQSjMBcVFStWxI0bN9CwYUO0adMG/fv3R0ZGhtSyTPyFFy9ewMfHB3PmzMGsWbNw+PBhuLu7Sy3LaOjwf+3daVBTVx8G8OeCqBEXintdS6rj6Kg3ECACCsUFFBesC1pEHQTXAS2lolbFvdRlQEt1cMExdSlFoWJBUKNYQCAsuda61N26LwUUFRXNfT9Ymfdt31osSU6W/2/GL4TkPFfmzJOcm3vuJ5+gpKQEEokELi4uSEhIoGUyI5SbmwuZTIaCggKkp6fjq6++qtkJ2RyYVbkAr+8fsWfPHiQkJCAxMREKhQLnz59nHYv8ISMjAzzP4+rVqzh+/DiioqJM5uZHpqRr164oKChAcHAwpk+fjvHjx+PRo0esYxG8Xgb78ssv4eXlhQ8++ACCIGDIkCGsY+mcWc5qjuMwdepUqNVqVFVVwcnJCbt372Ydy6JVV1dj7ty58PPzq7leyd3dnXUss9awYUNs3LgRSUlJyMjIgJOTk0Vum2JM7t27h8GDB+OLL77AvHnzcPToUbRv3551LL0wy3J5o1evXigpKYG/vz8CAwMRGhqKp0+fso5lca5du4Z+/fohNjYW69atQ1paGpo3b846lsUYO3YsNBoNmjVrhj59+iA+Pp6WyRjIzs4Gz/MQBAFZWVlYsWKFWV/DZdblAgCNGzeGUqnEtm3bsGvXLri6uuLs2bOsY1mM/fv3QyaT4fbt28jNzUVERIRJ7OhqbqRSKfLy8jBt2jSEhYVhzJgxqKioYB3LIrx69QrLli1D//790a1bNwiCgIEDB7KOpXdmXy7A62Wy4OBgFBUVQavVQi6XY8eOHaxjmbUXL15gzpw58Pf3h6enJzQaDVxdXVnHsmgNGjTAhg0bkJKSApVKBZlMBrVazTqWWbtz5w4GDRqEJUuWYPHixTh8+DDatm3LOpZBWES5vNGjRw+o1WoEBARg8uTJmDRpEm2ZoQeXL1+Gu7s7Nm7ciPXr1yMlJQXvvfce61jkDyNHjoRGo0GrVq3g4eGB2NhYWibTgyNHjqB37944c+YMVCoVoqOjLeoaLosqF+D1lhmJiYlQKpXYt28f5HI5Tp06xTqW2di7dy9kMhnKyspw4sQJhIeH0zKYEercuTNycnIQHh6OiIgI+Pv7o6ysjHUss/Dy5UssWrQIgwYNQu/evSEIAj766CPWsQzO4srljaCgIBQXF8PGxgYuLi7YunUrvXurg2fPnmHWrFkYM2YMfHx8UFpaCrlczjoWeYv69etj7dq1SEtLQ25uLnieR35+PutYJu3mzZvo378/Vq1ahRUrViAzMxOtW7dmHYsJiy0XAOjWrRsKCwsxceJEhIaGYsKECaisrGQdy+RcuHABbm5u2LZtW81XX5s1a8Y6FqmlYcOGQaPRoEOHDujbty9Wr14NrVbLOpbJyczMBM/zuHTpErKzs7FgwQKLvobLco/8DxKJBAkJCdizZw/S0tJqtiIhtfPdd9/B0dERjx8/RkFBAWbMmEHLYCaoY8eOyM7ORmRkJKKiojB06FA8ePCAdSyTUF1djXnz5mHw4MFwdnaGIAjo27cv61jMWXy5vDFu3DiUlpbC1tYWCoUCmzZtomWyt6iqqsK0adMwfvx4DB8+HCUlJeB5nnUsUgc2NjaIiYnBwYMHUVRUBJ7nkZOTwzqWUbt+/Tq8vLywdu1arF69Gj/++CNatGjBOpZRoHL5L126dEF+fj5CQkIwc+ZMBAQE4OHDh6xjGZ1z587B1dUVSqUSW7Zswc6dO9GkSRPWsYiO+Pr6QhAESKVSeHl5YeXKlbRM9n8cOHAAPM/j+vXryMnJweeff27Ry2B/Rv8Tf9KwYUPEx8cjOTkZWVlZcHR0RHFxMetYRuPbb7+FXC5HdXU11Go1QkJCaBnMDLVr1w4qlQoLFizAokWL4Ovri7t377KOZRRevHiBzz77DMOHD4eHhwcEQUCfPn1YxzI6VC5/Y/To0dBoNLC3t4ebmxs2bNhg0ctkT548QXBwMCZOnIjRo0ejuLgYPXv2ZB2L6FG9evWwfPlyHDp0CD///DN4nsexY8dYx2Lq6tWr6Nu3L77++mvExsbihx9+gL29PetYRonK5S0cHByQl5eHWbNmYfbs2Rg1ahTKy8tZxzK406dPw8XFBUlJSTW31bW1tWUdixjIgAEDIAgCunfvjgEDBmDp0qV49eoV61gGl5qaCplMhnv37iEvLw9z5syhT+1vQeXyD+rXr1/zDuXYsWOQyWQoLCxkHcsgRFFEYmIinJ2dYWVlhaKiIkyaNIl1LMJAmzZtcOjQIURHR2PZsmUYOHAgbt++zTqWQTx//hzh4eH4+OOP4e3tDY1GA2dnZ9axjB6VSy2NGDECgiCgbdu28PDwwLp168x6mezx48cICgrClClTEBgYiMLCQnTv3p11LMKQtbU1Fi9eDJVKhXPnzoHneRw+fJh1LL26dOkS3N3dkZCQgPj4eOzduxd2dnasY5kEKpd30KlTJ/z000/49NNPERkZieHDh+P3339nHUvnTp48CScnJ+zfvx+7du3Cli1b0KhRI9axiJHw8vKCIAjgeR4+Pj5YuHAhXr58yTqWzn3//feQyWSoqKhAfn4+Zs2aRctg74DK5R3Z2NjUfJ89Pz8fPM8jLy+PdSydEEURCQkJcHV1hUQiQUlJCT755BPWsYgRatWqFQ4ePIiVK1ciJiYG3t7euHHjButYOvHs2TPMmDEDAQEBGDJkCEpLS+Ho6Mg6lsmhcvmX/Pz8IAgCOnfuDE9PT8TExJj0tQCPHj3C+PHjMX36dAQHB6OgoABdu3ZlHYsYMSsrK8yfPx/Z2dm4fPkyeJ5HRkYG61h1cv78eSgUCmzfvr1m546mTZuyjmWSqFzqoH379jh27Bjmzp2L+fPnw8/PD/fv32cd6529eWeWkZGBpKQkbNy4EQ0bNmQdi5iIN9d6KBQK+Pn5Ye7cuaiurmYd653t2rULjo6OqKqqglqtxtSpU2kZrA6oXOqoXr16WLVqFTIzM2u2QDl+/DjrWLUiiiLi4+PRp08f2NnZQaPRYOzYsaxjERPUokULpKWlYc2aNYiNjYWnpyd+++031rFq5enTpwgJCcGECRMwcuRIlJSUoFevXqxjmTwqFx3x8fGBIAjo2rUrvL29sXz5cqO+FqCiogKjR49GWFgYpk2bhry8PEilUtaxiAmzsrJCZGQkcnJycPPmTfA8j7S0NNax3urs2bNwdXXF7t27sW3bNiiVSjRu3Jh1LLNA5aJD77//Po4cOYKFCxciOjoaPj4+uHPnDutYf6FWqyGTyXD06FGkpKRgw4YNaNCgAetYxEwoFApoNBr069cPI0aMQEREBF68eME61l/s2LEDcrkcWq0WRUVFCA4OpmUwHaJy0TFra2ssXboUR44cwS+//AKe56FSqVjHAvB6GSw2NhYeHh5o1aoVNBoNRo4cyToWMUP29vZITU1FXFwc4uPj4eHhgStXrrCOBeD1VkaTJk3C5MmTERAQALVajR49erCOZXaoXPTE29sbJ0+eRM+ePTFw4EBER0czXSYrKyuDv78/IiIiEB4ejpycHHTu3JlZHmL+OI7D7NmzkZeXhwcPHkAmkyElJYVpplOnTkEul2Pfvn1QKpVITEykrYz0hMpFj1q3bo3MzEwsW7YMK1asQP/+/XHr1i2D5zhx4gR4nkdubi7S0tKwdu1a1K9f3+A5iGVydnZGaWkpBgwYgFGjRiEsLAzPnj0zaAZRFLF161a4uLjAxsYGxcXFCAoKMmgGS0PlomfW1tZYuHAhjh49igsXLqB3797IysoyyNharRarV69Gv3790KFDB2g0GgwbNswgYxPy3+zs7JCcnIxvvvkGmzdvhpubGy5evGiQsSsrKxEYGIjQ0FBMnDgRhYWF6Natm0HGtmRULgbi6ekJQRAgl8vh6+uL+fPn63XLjPv372Po0KGIiopCZGQksrOz0bFjR72NR8g/4TgOM2fOREFBASorK+Ho6IikpCS9jikIApycnHDgwAHs2bMHCQkJkEgkeh2TvEblYkAtW7ZEeno6YmJisGbNGnh5eeH69es6HycnJwc8z6OoqAgHDx5ETEwMbGxsdD4OIf+GTCZDSUkJ/Pz8MG7cOEyfPh1VVVU6HUMURWzatAkKhQK2trYoLS3FuHHjdDoGeTsqFwOzsrJCVFQUjh8/jmvXroHneaSnp+vktbVaLVauXAkvLy98+OGHEAQBvr6+OnltQnSpadOm2L17NzZv3owdO3ZAoVDg119/1clrP3z4EAEBAZg5cyZCQkKQn5+PLl266OS1Se1RuTDi7u4OQRDg5uaGoUOHIjIy8m+3zBBFseYmZeXl5f93q/+7d+/C19cXixYtwoIFC6BSqdCuXTu9HgMhdcFxHEJDQ1FYWIjnz5/DyckJO3fu/Nvfr808KC4uhqOjI7KyspCcnIz4+HjayogVkTCl1WrFdevWifXq1RNdXV3FK1eu1DxWXl4uxsXFiVKpVARQ808qlYpxcXFieXm5KIqiqFKpxDZt2oitW7cWDx8+zOhICPn3KisrxaCgIBGAGBwcLD558qTmsdrMA61WK65fv160sbER5XK5eOnSJYZHQ0RRFKlcjERBQYHYqVMn0c7OTkxNTRUzMzNFW1tbkeM4keO4/5lUb37WqFEjMTAwUOQ4TvT29hZv377N+jAIqZPt27eLEolE7N69u3j69OlazwM3NzcRgDhnzhzx+fPnrA+DiKLIiaIZ307RxJSXl2PKlClITU2t2YaiNn+eoKAgbN++HdbW1vqOSIjenTlzBmPHjsXFixdrto2pzTyIjo7GkiVL9JyO1BaVi5EpLy9HmzZtar0XE8dxaNSoEW7cuEG3XyVm49atW+jUqVOtv65P88D40Al9I6NUKt/pXhiiKOLp06dQKpV6TEWIYSUnJ7/Tdkk0D4wPfXIxIqIookuXLrh8+XKtlgHe4DgODg4OuHDhAu3qSkwezQPzQOViRB48eICWLVvW6fnNmzfXYSJCDI/mgXmgZTEj8vjx4zo9v7KyUkdJCGGH5oF5oHIxInW9A16TJk10lIQQdmgemAcqFyPSvHlzSKXSd14v5jgOUqkU9vb2ekpGiOHQPDAPVC5GhOM4hIWF/avnhoeH00lMYhZoHpgHOqFvZCoqKtC+fXtUVVVBq9X+4+9bWVlBIpHQ9/uJWaF5YProk4uRsbOzw759+8BxHKys3v7nsbKyAsdxSElJoQlFzArNA9NH5WKEfHx8kJ6eDolEAo7j/vIx/83PJBIJMjIyMGjQIEZJCdEfmgemjcrFSPn4+ODGjRuIi4uDg4PD/zzm4OCAuLg43Lx5kyYUMWs0D0wXnXMxAaIooqysDJWVlWjSpAns7e3ppCWxODQPTAuVCyGEEJ2jZTFCCCE6R+VCCCFE56hcCCGE6ByVCyGEEJ2jciGEEKJzVC6EEEJ0jsqFEEKIzlG5EEII0TkqF0IIITpH5UIIIUTnqFwIIYToHJULIYQQnaNyIYQQonNULoQQQnTuP0IC+CW38dIqAAAAAElFTkSuQmCC;rotation=90;" vertex="1" parent="1">
          <mxGeometry x="30" y="762" width="195.06" height="231" as="geometry" />
        </mxCell>
        <mxCell id="PMkHhHRLikVArC7X6fYa-37" value="" style="shape=flexArrow;endArrow=classic;html=1;rounded=0;entryX=0.5;entryY=1;entryDx=0;entryDy=0;exitX=1;exitY=0.5;exitDx=0;exitDy=0;" edge="1" parent="1" source="PMkHhHRLikVArC7X6fYa-52" target="PMkHhHRLikVArC7X6fYa-36">
          <mxGeometry width="50" height="50" relative="1" as="geometry">
            <mxPoint x="-70" y="880" as="sourcePoint" />
            <mxPoint x="50" y="880" as="targetPoint" />
          </mxGeometry>
        </mxCell>
        <mxCell id="PMkHhHRLikVArC7X6fYa-57" style="edgeStyle=orthogonalEdgeStyle;rounded=0;orthogonalLoop=1;jettySize=auto;html=1;exitX=1;exitY=0.5;exitDx=0;exitDy=0;entryX=0;entryY=0.5;entryDx=0;entryDy=0;" edge="1" parent="1" source="PMkHhHRLikVArC7X6fYa-40" target="PMkHhHRLikVArC7X6fYa-44">
          <mxGeometry relative="1" as="geometry">
            <Array as="points">
              <mxPoint x="480" y="805" />
              <mxPoint x="480" y="877" />
            </Array>
          </mxGeometry>
        </mxCell>
        <mxCell id="PMkHhHRLikVArC7X6fYa-40" value="Q(s, do nothing)" style="text;html=1;align=center;verticalAlign=middle;whiteSpace=wrap;rounded=0;" vertex="1" parent="1">
          <mxGeometry x="360" y="790" width="100" height="30" as="geometry" />
        </mxCell>
        <mxCell id="PMkHhHRLikVArC7X6fYa-58" style="edgeStyle=orthogonalEdgeStyle;rounded=0;orthogonalLoop=1;jettySize=auto;html=1;entryX=0;entryY=0.5;entryDx=0;entryDy=0;" edge="1" parent="1" source="PMkHhHRLikVArC7X6fYa-41" target="PMkHhHRLikVArC7X6fYa-44">
          <mxGeometry relative="1" as="geometry">
            <Array as="points">
              <mxPoint x="480" y="945" />
              <mxPoint x="480" y="877" />
            </Array>
          </mxGeometry>
        </mxCell>
        <mxCell id="PMkHhHRLikVArC7X6fYa-60" value="take max action" style="edgeLabel;html=1;align=center;verticalAlign=middle;resizable=0;points=[];" vertex="1" connectable="0" parent="PMkHhHRLikVArC7X6fYa-58">
          <mxGeometry x="0.4652" y="1" relative="1" as="geometry">
            <mxPoint x="-14" y="1" as="offset" />
          </mxGeometry>
        </mxCell>
        <mxCell id="PMkHhHRLikVArC7X6fYa-41" value="Q(s, flap)" style="text;html=1;align=center;verticalAlign=middle;whiteSpace=wrap;rounded=0;" vertex="1" parent="1">
          <mxGeometry x="360" y="930" width="70" height="30" as="geometry" />
        </mxCell>
        <mxCell id="PMkHhHRLikVArC7X6fYa-44" value="&lt;div&gt;Reward:&lt;/div&gt;&lt;div&gt;+0.1 - every frame it stays alive&lt;/div&gt;&lt;div&gt;+1.0 - successfully passing a pipe&lt;/div&gt;&lt;div&gt;-1.0 - dying&lt;/div&gt;&lt;div&gt;−0.5 - touch the top of the screen&lt;/div&gt;" style="text;html=1;align=center;verticalAlign=middle;whiteSpace=wrap;rounded=0;glass=0;fillColor=#dae8fc;strokeColor=#6c8ebf;" vertex="1" parent="1">
          <mxGeometry x="610" y="837.5" width="190" height="80" as="geometry" />
        </mxCell>
        <mxCell id="PMkHhHRLikVArC7X6fYa-53" value="" style="group;" vertex="1" connectable="0" parent="1">
          <mxGeometry x="-570" y="660" width="492.5" height="435" as="geometry" />
        </mxCell>
        <mxCell id="PMkHhHRLikVArC7X6fYa-52" value="" style="rounded=0;whiteSpace=wrap;html=1;fillColor=#d5e8d4;strokeColor=#82b366;" vertex="1" parent="PMkHhHRLikVArC7X6fYa-53">
          <mxGeometry width="492.5" height="435" as="geometry" />
        </mxCell>
        <mxCell id="PMkHhHRLikVArC7X6fYa-4" value="" style="shape=image;verticalLabelPosition=bottom;labelBackgroundColor=default;verticalAlign=top;aspect=fixed;imageAspect=0;image=data:image/png,iVBORw0KGgoAAAANSUhEUgAAASAAAAIACAIAAACtpSZ8AAAgAElEQVR4Aey9CbhlWVXnec+99903xJAZkRGRGZkkCA50ToC2AyhaflUqlKU2Sjt8JYnd9tclIiKD1QX1fWpVUSJqlW2phUoB9TF0taXdYmOVBaiNiEKjCCiZKSYoOU+RGWRMb7rD6d9/rXP23Xd899533xSxd9zYb52111577bXO3mtP55zsU2d+slKpXLywSvzkxUt5nj954SLwufOKv3DukuALF2u12pOGubS2Ac3Gxgb43lDlsv2BLyZu/cwbepPSVaGBrzhz9l3vetfTmx9+0YtedP6qu44ePZrlnauuuqpa6QATHzlypJq1FeedpaUlsinOOuvr63lWW13FTNWLFy/mleqFCxfaee38+fPtrHru3LksMzjPwFTrC8SdvL62tubG6mT9Jjjx5Jfdfffd9yw87/bbb//EyeP9yenaNLB9e6lVTBI6nY6TYbBJ6BPNHmogGWsPld9XdL3vesxllg10g2OoU9KeagBjZZVkrz21gRU+qQdLjmvvbTWxBMlYE6tqxwm7DQyrxIaJYXWH5r5i5I6LdmUU4IqlrqbjwufIEuVQvFqVjUgNGC4tvX+s7gSBT0x/ZehyN2o5rb26DWw3pEtlJA1cYRpIDewKM3iq7u5qIDWw3dV3Ku0K0wCriFp/z6uKw/jS4JqP/pWaF3ODmAB8CtvXQJgpaVpVaTPVcp7sXOVVrtqdvAWGxFqlWs0rvqNVrWT8chF3spxZWpbZVI1dMoyVa/2wmkGddeCyfSETh6CBae2VtB9Ul4CkgflrIDWw+es0cUwaCBpIDSyoIgFJA/PXQHGSI4ws4xLCiRufejkN8FDiOGOCJ9EAmlQoz1tIq71HL8AwC3NWEOadYnomynKXLBTUY6w4V/9uWciRgOk0YNaa2l7Jg02n5USdNDCVBuTB6BHVk0ZAHwt1mb1rjH0E6XLXNFAay8YRvR5v12RIBU2ugeTBJtfVzlJ6H7ezZSTu89PAhPZSAxNpzvNHhRPTzgmXFthN0U97ZVs+rtKlmV8tLk9OwTbsNProoLBCb3WdzHcjS8dV7FV2tAmmLS/2u8jkxoLeJsjtPG/LXmZTrOpbZ72809UUGnBDkGESewW+nit5sKCQXQVc+2FlYlfLToVNr4GZ7TWugcE0dI3Ti5Ry7KoGkrF2Vd0TFzaugU3MJBEmDSQNDNdAsQ/mHnA4iWGdIEwYxlCmpC014OOCYnQwgrrwSJWcYSRDf+k/2tEab69krBFKnRE9lb36ykgerE8hu3TpNtulwlIx29bAzPYqPNi2BUgMptMATonQl8e9FouC5oIih9VHly53XQMz26vfxrsueSowaeBy1gAeTG3M14tZNVRdeYhIm2PA9kBR2AJTWgrz0UAYcoTZlDDa5arpMS+2rvjDvKujPcmeIm13K8/05Fg4xwhl7O/SjmSPxuZxMcJespFMpaNOBdxXWq/x+hLT5c5owOwh1rJOCvteA9ux10RnEfe9Bi4bAc33MIKwQcTQWmFs6zR1eqPv9P1Q+oTcWw0kD7a3+k+lX+YaUAMLAxWA4A0BPFzmCtjf1cMirF8xQ8YWLukYYznB4OLk/q7iZS5d8mB7YGAaSWgne1B8KnJKDWzHXsUczDvI0E1OKUAin5cG6O9YNmRFivdEaS13MPiwQiSlTxukSZj9o4HkwfaPLZIkl6EG8GAdreTb81++J+a19IeIskqNDtVbIV3m2IFNaqtT3B/ufxTzv7se2F1F5KWG/HhTor8XUZq3WRiWMmPVYmNRsJuGrbF2zt5Zlck0qCkESqRjNSAb+aihx17dPG6veF3Xn8RLraKrowQlDcxdA6mBzV2liWHSQFcDqYF1dZGgpIG5a6DbwPrWIvsuGXn6KH/uElzhDPv0PKE2xudKxppQjTOQjdf8IMNuAxtMS5ikgaSBbWog7YNtU4G7nd0WsYrFR9YOd7v4VN6UGkgebEqFJfKkgWk0IA8WhpV2FNF2W0DaRlh4zAiaNLKfRrGT0qJVJ0XDvtPVvSx3t7JOlR/7X+x9adNSG1xMibVN1hfAyWTRmVLfn/FdzT7idDmDBkbZaxSr5MFGaSbhkwbmoIHUwOagxMQiaWCUBlIDG6WZhE8amIMGug3Ml6fmwDKx2EoDPukNsZOHwX182YcMjJOxgip2AQiWciA20JaldxvYlqSJYF4aSM1jXprcHT7bsVdqYLtjoyGlbMdsQ9gl1A5rYDZ7pQa2w2YZxh5TDUMn3D7VwHbsVWefhKCdFv1Ve/Pnv3j9nvBVvjRlWysVngyrhRfx6cNUJV4QOY1PO3qJn2N8B2YYrLL4Kpnl7kYxffFUb8SzS9cLxbl2F+7WoqN9KkJ/jXol1VVNz9/ps118g9m+3kXGzUql1c6zVoetrg7f9qLSTb0VsQqiUuu0ax0gmOcdrFDjpcDMB4onxGxmoO85V2o8JZbxKeeqXqfIzhkXZJdC/PnoCTQ5KG3CSNUWTOfDO0eUzM/vACdG/fol9e0fDfC+GkwY3tIMQN8Zv8TGmhKNRgGxQ8/qNCHj/qlRkqSu7q030BRBZPpKIpCS20YDdoC2m7PjfWT0Jom4Rx8GK2+J7/JxD9CDLzxDTDMIW/ce+ZCSw07jJUlZ1qBUwzHe25UdXAsGnQxD1Bcu3VqrHuEYRrV2tNJs11oreaWZdZbxTdn6Oj6rsrbGgY76xqV2q7awtpa31+trF9swunSBgzbVi+c3Dn0mr2G5Wjur1mibubmv4VIk7G5oQEelUtgnGvj+7395kMTG5hoDMhpUJ2GBuRuXmsH5gNyx5Sik3a687ue+SW5tTEdYcEp/dkkDNDDZx+dUPWXaeJ25mSEt1ui+mGv1UBYXoqHL1FUx4reEUbAlDommpXcWo3LtNH5IBbZGue+yQbuP9ar1vFOnXVy8jszM0Ih9yrVg+sc6NBu9tl4a9uYmPS9Y0+Oa1DxbqOX5wvrN9bUnWyt/V8tqWCu0zK1lShRjNeDTMHVe0vUUXVjyYGP1uruJbsVHHn6IYn3oTqsjtMwjXXvtDRA88ohSPVhnVrSiU9c9ldR//a9/CT/2I69/fkmS/u6xBsoG5j39oDAFnnlCEQbnbCEFoJiJlajd+xuvj+0mXKwSdb0KOtiy1rUO64K2xNR7IF4rhCxykF8tSnPgSsa6YMWNpOPztu4ovKfi7XwEAiErVpVK49yNxB0mdfwYW7LyGGuDtBR2VwNlA9vdUlNpQzVA6yLw0VhWElmPNxpzXrQi+1ofqT6mLJtxT+pQngm5txqggcmQ6hyJ/U8pkaxd9JE+GCkTSvrudR8U95oxHJMVs6N+zjHJQeh9Y38Vwz316LtgoY+ftFvoXIvuZgbNcrOadFLPFvpyaf6lRQ7XWL/eNDEQO7GtMqfjLy+85CtibM7YntsAt4SYQgOuXrRpj+NhONP2IAPudrvh9YU3o+m3U8giVhYKy4WEBCQNJA1MrIGRDWxiDokwaeAy1wA+Rr6LAZ4PE6ap7sgGVg5FtCw5DcNEmzSQNNDVgBoYTbOLKKE2y722weKpob2V6env7Bqgz/IAi6HKn521mSxknzvzwPmKAlCj22u8PoNNUQ6UTjzSg11RGkyVTRrYIQ2kBrZDik1skwakgdTA0n2QNLCDGmAfTLsrfhaRxZK4KMaUfj4AZLm/WaQ7Ye+22QRtNd4Ti+GeUifgE9MnONJAYUC2qjGe4f3k/kHYUYyqcQBBTuHywGRxCrfQPI8yFLuWB7BCSeSkgYOggeQuDoKVkowHVgOpgR1Y0yXBD4IGJm1g5ZB+/vs2B0FLc5bRd0hg2rdzMqaYvjnwGEpPoohgsi2JE8F4DfTZayrFptP043W7X1LZ6H/ooQfSlHm/2GNiOUY2MG+1UzXWiQtNhFNrAA+WDtNMrbV9kGHSIeI+EPWKFoHWZS+SuqKVcBArLw8mZ2W7UmGsCbLYEyt3q0JS8mnbN7Nee2g7jqb5iJ9r2zewerYkRdOYuDN0XwdzAruc6XmwSMVzANEq7UOxvaEDGKa8lpItR70IUV2hHu4TzG8OBSYW+0wDYUUk9YZ7bpmRc7BYMrdTslask+3AnIDpHoLhyW5+OW89KV98MuC79JxzONU2kDpUkmSsoWqZL1IjBIIdnR/FOXmwUZo5wPjUIe4f49XVAjXj8oF/F3C8CwrMyDLG7J8KHERJ/N30rnZePG8TYN6iwWs6VJtNXjjFO+kLg3Tr52/8mKRHdEsle3V1tz1oVIfV12q4JPj4HMDnZhMNEbcnXso9nQZOnz5NBn/9qOc0axVMzjz28HTsEvWeaoCOU11l6u120wr64ok+esKh9069U9PrkO0dW+3l++W7Lt2AMHnH3otoYumgtlal3IftpqSprO1qYJIRx3bLSPkn1MB/+k+//N73viMM8AA8TJg9ke1DDTBEtH7R31JoAvraPZ2rnFuJ91d0hAp0F8G6KC2Cxe3VZxH+JuACtk9c6eNVlBrBzsMpvUSnifGDc5LeVONp0vr78f0dw9uH2yYnHzyhuNz4O1zobaY3+5bL6PCs8k0wvFmNJ4fYSTl8V75yuHLoAXxVU4tT4s6eSp3X2LPQuP4ULFI4tqyJPNWqvTvRZmtojNbY5I30GpLwSkQfmriSUrwtDbgqfaerXn5ZA2S8oMv4gsm0jOk3CferGSLNwbal+tky0xLIGGKZygINj7/vfe/bDx8+3K5khw4dqlZay8vLnWbearW+8pb/lVzFccQRn3SCg+8yzyZYyjV3DdR5aFlMyxMbgP59sKIFTl5gxMEzlV/NkoecBC4ON1jmmN7x4+cfhfcr8nr5iueFjzurGPaShvjzrgjDoKzlnw5VWgGr5+MMgC5X7qwsH1IbXF7J82ZncamykFdaLdqhTgk4v1yzMg/+bdK2PZXOK+9xXUVC1oIb/i9WQpkp/Z1CA979ecwqoefkMn69ry5Dp8logu+LqmVVkwebQtHzInVjuD2CwWwcorZhQE8M0p0bSdddd30QwykxJphqdYnLwDnQJGBvNVDXqQI1PvNjfB+YZqmmKAMHa9Fx9s3BxgtdzpdirxPB8WpYBDuFy8EiWiiiwJf9csAXgN1eRV+yA7DP5Qb5F5/FM6l8Phn3Z/1C9l6jWvuh47JW+H8NAeqVnC5Ps1kmUTSrnvHe8oO8qzJrXm+m4fX2eDSZqYOD48tgNuZnxkiWWlYlt/6lMA8NSNVlmJZfcT9Pmy3R774GPvax3/3wh3/TF0gwtwtAJ+gBDIDfBk7D5e4LmUrs00AYIrqfsLicTWGnmr5bX5nKfVkB3m4L32OYHs7ClKVYahSNwkckPWBMv4swS3+IUfRPVq777UkmPEWbsD9FXfC9nMbmmxxy3fYzjHlyWPIFzKyy/FeVylq28ghZ2uycMdYwpYow06qj8CDxXNkztDCZZ+2cD44VJaQ/M2sgtlfottSjRRy9y/M4QhffdosxCd6PGqCno5vDun/0R//XxYsXW1m+urrabuUXLlxgP+XcuXNsRoNv5p3z58+vdz5nltaNsR8rcyXJhAdj56Sosbc/X0WUcfi+lL2hXuflyt7a5x7lDKQ7wizX/cSqTU9amjbPY7g7r6OsQFMUb3+0GlbmjfGTeIaYfnfgWKoYHl96p9K2Hx6o8Ln+Tcpa4bXQarXW5mfji/YCK4O+yCG2h/6y0z6fZQvt5vnWQtZqXWCdcLN9Hje21iKuN1sXqrYyrA9cav+sa6PxUqXUURrAVekRPmsnAqyFsC2mozg+3LDNZLuldbIUAvNu2o1M2h+l1YRPGpiDBugj1cbKfs7a20Cr8xMMHcdbXNDbAKRcM5yDNFcIC/o1+9lTYdFcS/5M6tXUCp3zY32yXavWWCM0p0SM5nFT+iSzYOZtUr/6yzB5M69lLMRNOzLGMLLyFaLmuVUTFWqT0p5QxjrBaxmC2TD6R9VhQlwClC/lp5A0kDSwYxrQHAzm1cwOChjMFIjRJHMh8DaUVOE+AHUAAvdaNujsTqMDTTyJmgRWAWWI6Uvc5fYXrTKUp1bSZJvTGRzG4MPM2EJWQKF+NIS4zoN4IsRGOmSIWTghUKmB0lmQhc5Cne8vg+hUNiHE1WkJsUdd5vHUjYpzb1IPXboYowEGHFqelSV8lKF9TM2wZBa8V2EvPTaptuP3MACh68FibFyWbgJ72hLAA9lKMFksVtV0MDokw2DsXBzfXdvgCbFazQ0BgSwXPQIrS5ZLVeADW2cVM4wxCZ5KA7FiY6vF6o3tBQ2h/oZfejd/1AzVcdrwcWyxEJNenBKw9uXebGymlNijAQ5e//Vdn3382GfBZlpk5eS8jvlysh6M69PXJAttW4/mrQgMgMfQEtwZctYGZJwLPJgF5tjtcj8zne3oscOkF9jrrjvvfuLqu9EnNiLIcGaIwMKt5kM7DOTbKgCyUGQw0XMZsg0FaKZD8Qk5lQaCncjlcMgeTBCAOAniEPoIuCSJOATvU4nBBCYx4JQxJsFDNUBLAY96QxzIgm4DENpI9uLnfovReZuxEaOPG1nd2iqUvkuU3nf66iIfSqKkjZ/9l5LGX4m0FauQTidOLk6BEzGpsPuje2eA9DsG+gAPAnFqHxxfhowxsg+OLyehH0XznMfPvvvd737Oo49CoBF9N0SaL5CDmje7DKR2dHCR+fMgfZd7DPk6cA+9dnOyT5w8dvvtt3/i5PGY+AqEY9vNy16x5barUuTrYxEadB9+/CW5nFUAAn2MCfAgAH1A9sHx5SiaGD8tfZw3hp0P8T4Jg8baJ4LtoRg7Ya969i2aCcwW3LP4U8O4FuTzo2/tD3wpmwO+tDItZ8/l/jCejUzLZ7/RZ502D72eu/qzX/qlX/rEsc8NiOc9Xb8vclc3qEnHazVxmuBPjhVLXuygZdnV555x9913VypfNw2bK4J2XvbaEQ+WesfBe9DnuuB9KD9IsMuYYKMA7LIA+7y4edmr/r3f8Q/wPKtrG1R4zeKLa6sGr4Ff39C7Hxy/tiGaDcNstIRvburNR/7EVM5bkljQb2mUqPOH/PG5QbQTAG7L4McO2plmF8Xu+JZ5DgIBT3Ixpax3Nl/zipetX/3JRqOB1IqzVr1OZau8FICHwTY3N9EnMeu66+vr7LoorijGu62trcGHGDwxNBz5hY/webaxsQEGmJkwMHhixgLNZhOPR2wPmxVvp9JhEu3S2BbPQVDgLss4L3vN04PtsgpScUkD+18DdSYG9GR2vAppu3MAjfLLVf8s06ogvZ3q4x6p8EuaBPBiFuW0txrhxQQbpb+dStfTBM87yY7cNFz3nlaPGvOzE+690qBVO4Ion6LnwXTN+QzUXz6TXOD1kimMxXsUbdSgAULUP7LiqhycUazp6/aMKCgmNpatyYIr9spUwpRzuF65L++redkrstAIhdG0RqQk9L7TQDLWfjNJXWcOi8dXemTjHDDWqtmS0yYnE0vv5v1faUj1ku5zAAyp1sjJOmBfreJyuhDN3Mp3XWzdC0xXxF5Q55Um0y1KHr6oQK1ZhpX/6REOHUqNHDLU2fmKXqLIYAMaXBO/mJhVSqHaTV7yxgzW1Sgrsu+lIQp83HZeQLAgu3I9RaYL08C87HU53Lvplkga2LcasMW6EdLR13o/F4ARhAm99xoINhKw9+IkCQoNJA+WboWkgR3UgI6ijWHvqfix7uFFUBYGc4F2ZDm+HyS5cjETKsfJUGDQIZgYHqPBkDcZa4yWJkyal72SB5tQ4YksaWAWDaQGNovWUp6kgQk1kBrYhIpKZEkDs2igrkdp2Zsp3n5j7c23/4t9LSZp4svZR/ZYALRbY7GjlVYEnQjxswWcNSCUT4uV6eGvbdEUezJelmHYOw8k2l8jRKkF7PgDGGsryg5e2OCemnpl2buyavq2ldVLr9bg9fIO29s7yMqLE8kiDZcTXdLDnhhbkf6+vgpnbvRiCCUW9GyeyXBWnJdiWjVjYU2O8thHxqy4FAUNbMdeWBT9m42jezqwTkDSQNLAvDRQ7IO5t/ENFD/Pbhh6TvNatpBVeJWiZO+AdTTBe0c6TiDeRyuEnQIpDhPouvRFDnts/aiXW5wFiXpxJ+lJjfMeQBjd6mdv2CvFR6M6wBEUJb+vEzBtHkbCiUFmxzZwVAscBHX9oxN+MWydJQgdVLS31uctvWbKDQQlGQs4HhH4eIGvsfgnPEuR0t9CA9Paq1Pl+zalniMtDkFFqQlMGkga2JYG6l/y9Btg4I8Pra1vAq+ub7KRsr6+SW+6trkheE3v6+OZMWLHr/JwUaVycYNHlSqba4qhJOYJMeh58br6XvuyhHshddUh+MzKeuSemZjjnWwwNWQ/oACzI77IXK0+cf78pez80tISjmtxcZEpmT0b1llYWOBjbYdWlqjfYoP3HVaXG/rwV3NpEYVed+IYugpPeUHDE2LtSl3PiclYwHoezOFOZ0FPi8lYBd7pm1U9VwZrUeZVnhBr8Br74qvPB1StOyb2tPbKKiuL2rFsLusgbqNxNZLxXF/hwUBxHTbXWNEA1rqGIYH9kjiuULh0gBg+HsdkCUYDruFYFY4J+KDMQDOI8STPElKTsYLG5ggEuwSek9sr5AWov+Hb/gwWNAsuOHftZpMTsqbl7yFiVRBMzQ5vlwN6+0Zw1hB9foy8PIFkgT6a+UKdJUX3WoWPMjGZGRB8mlbOAawNW2qnajO6aG7mzzWXbTrygUZ/sCLvrY6cu+1Nr/gNJJfGvLeymafepKxVP9Up1phr2996ojTTKRnJDlyrKpe/RA92SsaG9Iydc8T2vRvvQJfMjisLmmRf5d++sVeo5A9XK8crt9xzUllTiDUwrb1K2xUeK7AqFjncYGADECgcqbvBzB/jC3oztmcsbG+YPsor/DJWrMNlrE4NuFAdJjBNSeEjQmBVAj2Uzmpo1oLe3gJNHoqwfnAo7ZWOLHUrPThcxsPthTqDyqB08wn49g9+LCQ4UMyarGeNe9ODvhPVV810mTSwCxro92i7UGQqImngytHAkOfB3Gv5uN9jnx2V64FSTo9nu3K0lWqaNDClBpIHm1JhiTxpYBoNDPFgnt3fh8Erp5iu+Ts2bFWKxIO9mjeNchJt0sB2NbCFBwuLIdstJ+VPGrgiNcBhatXbvVPPLMvUUaZekbpJlU4a2LYGxnkwd18U4TsA2y4rMUgauOI0UC/XAzWzKuFCC7Qrf00fD4wZKs2+rrj7I1V4mxoY58G2yTplTxpIGkgNLN0DSQM7qIHUwHZQuYl10kBqYOkeSBrYQQ2kBraDyk2skwZSA0v3QNLADmogNbAdVG5inTQw8izi5aqa+LRKXMe+PcA4KcFJAzNrIHmwmVWXMiYNbK2BK86DJU+19U2RKOangeTB5qfLxClpYEADV5wHizUQz8eSZ4s1k+B5aSB5sHlpMvFJGhiigSvagyWvNeSOSKi5aiB5sLmqMzFLGujVwMwezFumPyE2XzgWcPtPoEk2f6qtZq/A9fcKx2XodbcpJA3sjAaSB9sZvSauSQOmgVk9WNZ9j3xlJ+Btm8dXCP3jV+6jfMaV/NW2VZsYTKGB5MGmUFYiTRqYVgNTe7Bi7yj+ltdOwFaPyVb51Efw+RfiQfr4ey6l7/I+pTu743sw5PUZmhWboqSBuWkgebC5qTIxShoY1MDUHsy9hPuxnYAHRZwcE94zR5ZO8Rkg8065vtz5nDNPEn/6xHHiTf+2oK0fuvcDmULSwNw1MHUDm7sEc2fY9xZHXdpb5971rncBf/lrXjX3EhPDpIFRGpixgcWznZ2AR4k7iI9nX1V7kz6fQqMhPefxsxBfd2GNdnVq7SLwTQv6Tuc33/vYO9/5zme/9uXQ5LU6mDMrRwD5CB405RuOu/t7HftO2mC5CZM0MIkGZmxgk7DefZowRASgFRHTwIgJNKH/8r738VHH5/2j7+byHe94xw/8wA+8453vvP3226114ePSfvPuW+zyL/FANzDNr9zD+HfMvvneB/BX1186B/651c/QkNqdE8Tna8f/6/vf32zIL/3x+3+TFtVo1r/thf/w1uXF2544e/3SKphPnrrWrO2rkWntx5SRom1r4EA3sG7taUUM9nyWBUyD+bVf+zXiTn7yh3/4h0UXfTYaAp+Vvf/9v/OCF7zo7PIy6be85rVddglKGpiTBg5YA3NPFdedGSAN5uTqOZrTt//At9DG3v22F0HQ7jyuBtY+CfyeP3rfBg3M9uuqWRPMd//9f7iSZUfazY/83m/94+f/IyhbPTtp8mPxSimXKSQNzKCBA9bABmtI25BHqlTe/e53/81jd//qr/5qvvl+J3v5y1/ebN8EDA2xezaPnQAYv+fZAx9PSnHSwFw0cOAmG/iW4sfsi98Nq2sf+PdvfvJf/bNv+7tPP2P9U/wq9/4Wv9p9b37L629rd67hd8+Zv+KXVTZr1Va7U+/kC+v1zlqtXWvWFtoLv/kHv8flnb/wK1/+2JO1vFWvtCusHIr5kKMhc1F6YnLlaODANbB+0+B5WA8Ey6TrzW9+c1+y+y6Q7qD8Epf1u+97H/ELX/hC0Zt/C5R9HNJl0sB2NJB9+wc/tp38u5y3al+I7lS8X1D8rffex4r8B//d19FgGvkDYNbu+whxrdIC87+84QIt50zj1Fvf+tZLK5s33HBDrbUCptFZgqbati9QN2vf8YIX1tUG86dfvIdcR37il4k/fuIoMWQpJA3MrIED7MG4+2kS7GgBEFDBEw8+eOb++4MuSH3d617HpRNw+YCFqp+TsiwveMELaF0Q+GQM4JZbbqHFEshIlsAtAUkDM2jgAC1yqC/Q6p4FWsL1F+Sdvud//urnPe95jfX30rSuyu8lkYkZ+E5Wg+ba2vtPVT93aPNzb3jpTQ9Wvu7tb3/7Wr195p57X/OPX0kqhzeuzqtf//ifkuuHT17K8uzzp05XzvzZdZ3/XonmvZILc4WneDYNHKAG1q0g7YcGwDUrh3979k+e+9znAoMkuKQ7Mg0AACAASURBVHcixvfglMD883/+PZfyL4HgR974oR/8wR/cXBSfo5UVz0KMyxLqsT+DmL933vlgdvNXvvSlL/0vPj5MPkzaSWFGDRyYBlat6BlqP/dYzWo0hmvXVk+tXnr22t3H737LevVvj2rRj+W/vJZXO+1Op6qR4aHa58h1KPscje03fmKBXP/in10C8/Vn/vSWW2582oUHgT9c+Srw7/yi77rzzjvvq9xYedrND68c5od/MyeXWhhKSmFGDRyYBhbXz12Nx6973XeHJDDyYBzirdU4q+EEpNK6wLfzinm2HJd1y+M6/utukHYFfM/Keb9UozJXFoDAPwFJA9Nq4MCsIpbnKjQTq9l4MHvdvwD+zz/1CHG7skR7uNR5Cm1jvfJlxEvmuw5XPg9ct5NRj+UvfOMb33jLIyu0r79dfspdd91136HT5Pp7j/45NDeun7/llhtuXH0E+OaT3wvPZ732lcTliiVgCkkDU2vgAHuw4GEAOApPw6D2b3rTb11qA1dWFiqvf/33BBpSPdx888133HHH5w+d59JTwQA/deN+8TG3xhF7fN0np1ZmypA00K+BqRtY8U6OYifKV/V8rX8+sJ+O7xcTH2Wv19ARC63vaRR3ZkUzsX/y0+dYi/+pn/4NxoHN2hfy/JvqtSehefuv/CuOSl3TfOT1r3/9dZUPke1Vb/pYnv/9p65/5sZnXPW+e+6liJ87fDfxPevXQ/+hk1+tOdihbwBzzaFlNba8qjg9xjJojISZWANTN7CJOe8UIY0K1tz6LPSxW0W7YuDHFrEjf+cDH6hkZx+/55689SiUhM985jPnK58hNc9vIhcY1glv/qqvknyPfUJxpXLHHffdcWLRmpMuYQtzAIj93L2wKSQNTK+BAzMH810plgapo79v4/Sldc7Ov/i+36eNveNDnxfenj6u2bLf9z3/Wxnm/ewLNUPLbAUyr6g3+eXfvZdm8/2nryJ+01kdBX54WU3r4UOHiW99lfbH2vwj6E1TxVFgyFJIGphBAwfMg8mlENTK5F5e8pKX/NunfKfDahEWAEjyOAAh9cUvfjHN5plnH3jPe/4gu+5mb0L4q0cO68UBnyqZBFYOpDhpYDYNzNjAyjU9FboT8GBlamxslT4qs9nRmTf8LM1m4z++jIaxYm8XrmWqTq31OCPIGzY//l3f9V3V1qNa/9AJkKL5nd74c3L9n1/0fe/5onOLP/kG6K/Jqv+V5mrp/u5EgcrFX34+twSVQtLA1Brw9Ymps+15BhoVAf9z8ulPP/WMZ7g8XBIe/Pznv+MFL9BWmE+iaCWlXwLp8Hve8x68357XIglw2WtgxgYWPyu1E/Cg3pu1Cj/8DD98Jr/nvPaVd1x7/Fu/6dWV1k20K9pbo/LZs3/7vpWN/NBm5Wx26lz9dKWqI4UPV7+W313LL/qp92780/dd/+P/7fTfHH7GT/zOR0rJ8VGdjNOLvGGAc4w2kRsUIGGSBmbQwIxDxBlKmmMW2hKOiDUMb1dw5pKg/a9K5WUve5ngSuW3f/u3n/XtDWgAyPJE4waQXJLKThdxsYYINoWkgZ3RwIFpYP6WeZ8pMQWjST10aOXRo0dOrV48t1i7arXxnS98YRUnlOcPr3wxjecvTx5l6eK1P/3T6O0TN2q18NHlFb2k7fAirfAT1QY0WUuNraPttNz5M/Gy0J3v+XWKkwZm08CBaWBx9WgVNAkwNJi//Dc//+53/9bv//qvG4HcGqk0LRqY2o2R+abWYyuHYiYkQQrGaeKkBCcNzEsDB2YfjNVKq7N8Dk0ijsHf+fO/BOamH385MOd8IcjtxP2C5Wr6GmOuZY+2rTT6N818zdBXQY15ETE3SyFpYC4aOHgezB1OiGlXTKt4LQeYT5SfdPBUNcKOHF3GkJJQDP/morfEJGlgIg0csAbm3sa/s+z+hw8vZ1ntz6+9iubEnEorH1m1o0PwbRTQMn+V8fglweZatDnwcVtzfzXoxybSXyJKGhirgRmX6cfy3NVEmpWX58uD1pI0gIyFAMmlxzE+wUkDO62BA+TB5Hl6Zke2YYW3El5nLmhU1l/YjCuzkx/lXEvPMteyNrGcG8SRC/OVSWMjVikkDcxRAwfVg03ljiDu82lz1GBilTQwRgMHyIOpFsyUbKrVYYUdZ9TXbAr/xhPMCuaT/H30kOpsoVYRy7VIpfqb7t2nKUcKSQPz1sDB82DBHfW1rnlrJvFLGpiDBg6YBytrXPih8jL8HT6TKmdu/amjnp4O7BKQNLBNDRw8D7bNCqfsSQO7qYED5sFKXyQVFe+pz1IfsZs3TCprOg0c7LtzqrXE6RSTqJMG5qGBA9PAWPELn7fMc05paEKV1jnmcQ8kHjuogQPTwFwHtChfRXTflTzYDt4aifU8NHBg5mDFip/tg1FxWhrbYDq8kULSwD7WwAHzYPtYk0m0pIEhGjgwDYwTg3ZoEIEPjMxD9J1QV5gG0s16hRk8VXd3NXBg5mDx+Xd/diveE9tdpaXSkgYm1UDyYJNqKtElDcyggQPjwcq6afsr+a5SG+nvftdA8mD73UJJvgOtgdTADrT5kvD7XQOpge13CyX5DrQGUgM70OZLwu93DaQGtt8tlOQ70BrYd6uIg+8n9DXDtPd1oO+zK1b45MGuWNOniu+GBlID2w0tpzKuWA2kBnbFmj5VfDc0sO/mYBV7Xy+vlu+rfTq90aeQdHkgNNB/H++50Hy9Yc9lSAIkDcxLA/vubu7wug17He+8apj4JA3soQb2XQPbQ12kopMG5q6B1MDmrtLEMGmgq4H92MDSy9i69knQAdfAvltFtNXC6OtdB1y/SfwrXAP70YNd4SZJ1b+cNNDnwby99X+FZFSFi7fDV8SkWmkRF7tVB3IZcLq6j9LJaPy8+Md94qSWcqnatgVS47PWCuKT265jzRBpp9HUEqL52Cu2VmCdgKSBpIH5aKDPg03HtGO+y18T72cv/IvJo05jTMd976h34uR+XpWHL74cvUdVc9/ltWubqeJ3de2RUPu02HnZK3mwfWrgJNbloYHsxc/9lm5N8qo+raBo66+Gs5hezTtQdjI+mFzAebUGRnOxLNt44xuN83TzhK4wuw11x9zlZ1wkuc9M7KXCle30919x5uw73/nO5zz+BJrhAxZwNkXpJftB2w44ZmTto/ltXmnH2UdmKT9D4yViWigpNRT0qVMnX/KSl3zi1NXgqx3pYfL52LTefr/Ru9IG7TvKXk4f1O4m43xfp5jZKj02aOHByBByBtjt4fgYdgwcA9JhLgMGJh6ceIaY7DPkOkBZsIrXMQCuMVejx0OrEzTj9E4TNM9lDHvqGGMNEg8tNCHdTOgcAG2EGEy7zQG/bruKDVT/qfd+NWnr6+tgVzfVs15Y3yBeXV11PAZYXWsKs76JndbW1sA4/drGutG0yHtxQ/StdfX6a//taWZRlTptgDncCPvK8NvxXa4Br9eFo3/1Mz/zMxtX/eXi4iKYpaUlarqwsOAxhsNstVptc3MTDDE0zWYTZUIPn40NTFN15QNvVBuYA3xsLDDtSgOaPmOBaVbrxLVKptRKFf4nzj3jr//6M5X8uqxS47evdD7tnTNf+vH2oqxGoxHshY3cUsRutWCvHg8W9IttYnExdrh0mDgQ98FQOo21sam3jD1vYB7KvWwAquYhrimYUEHXW0wTkhyIM4LZprHgQFn0wfBxzn3FXeGXbgjioHYALl1vjnQTgAxezpVGav1v7nuEhNV1dYRrq/JdF1c3iQvMmjBrG2qgG+vyY2tNUW5uaE2s1VI8GBCGVuY+dDD1IGB6+pe5COyWqFfya646unr10eC1mLzW61rLRZkYCN8CjHNiZuswcV6prq6eqVTr5p0y91rEeaWO78IXdTFZlbzoXxzc4+XyVMyphhqr1azknVql1qni1+y+8dnI5FWefLbmPPcbvUs1OEKZxF489uGaH2avVbdX3dviGIV6SWMIdjTJS99SyB2VYSeYB61SNa+d4gj2C4oWvhxAGFxeDBMrsB2WmHCzayAo1kxUuK9J7FXugxVrU8WI0QWBF52ajyCEsV3/2WWcKaePW6ie7q2dDfP3WlvKK7Px30bgFndhQSUeD+YHL7oMsRe/qK3ZEKbm1sJUXcoEzU8DskhkF5sMSdWGU+RwbK9iIWt+MsyZkwu9861rzmJvyc46r8IkWxJD1ze43zJLIpivBma2V+nBCnGsFy89ld/cXUHNyzmS+PK76a2m8uHF96C7NZ8z5NYiJgw6G8czRPRSUTX7IcAi7g/YS5+qZnCRycvJfJ0OE+PCrGYsIigG8/bzStejNIDm0aHbZVp79YwJRxWQ8EkDSQOzaaDPg0XtrfRjXb6DmG7aHkKSmTMlxKy8RfAokaI6WpffS2c+vEA5ZYzppd2tKyQwIZCHX+yLHBPLMYiJUxO8GxqI7YU9UkgaSBrYKQ2Uy/SFd+rprRl3tm3cn2XdPX6OHiLLsPnATok4jK/6hdJrDUsfjfMnoDx9cPejN1+PNnqTpr4KGtOUyJabYGGD+x5WhikWo5TA6dBOVqvKNSONMbH1wziTryhWMaHW9jkIwpTB00XPf+ICEWdL8DgNSGkWtmmvcR7My6CAUNg4ieaU1ncuYU5cL382e2Ksy1+t265h3xysn1/oa/sTduy6TmedT3GaezZBtvJds3Hd41y7b6w9rvBBKH5rD3YQapFk9NFj0sO+00Dd1/eHyJVXGbdzOJikwVHiXneWmh1Ne6rN67hXvitojLGcD+dcsejYBQsxqVJ4uC6mXlxzGBc0G1/Mtvp7Rpsny2JmrChzcc6gB5MuttTAvOzVb6ctC04ESQNJA5NrYNwczLrSGrzyfPip+cmLmR+l9wjx+l7szWJ4bJm+amp+YNpnbMfy3dFE6s4v8m2+fmgrhO73tLZaLiHuqCiJ+QQakL38fp2AOJEkDSQNTK+B+n9+7wfp/IqT8sy7tEXjra77RgDYCl/2+qK3QN8Pvm3kWTkrIHVBb3zgfR3jxBmcQcWeJIZLLvPpC/x9G+4BvZSyLl3+8VnE0h8oNX6j4KD8pZyxdxXOS3GlbWTLP/dLb3ni2GdL4mJxwkspjsebnn2/0W1RzgfEmfdwhLxZZSHAPDOpVD/LEnm5YCxSmacZvUmYa/BCaskcOV0DSvXa9VpBqb0YY5bZ6CYaC5T3g6WOjfxdmv62xmLSWd5F3XzlXdfFGBTbLpbWyWJMaSnJ73r2ssq67Ky9pGVrPDbO6N2PDKp3oUMc8J4n4B04yM9Z9lVlnpcozfXmcWBdXLoqoy6pJOvXcYk3BoP0voVd9oAQ9dCHUksgGavURP9f9Oaq8zgkF5cT26uef+BLQ+YY8HbtfZrjO3YgjtdGBDLvSx1f76itdni7jiYBlN9/Zyh1CC4w2yK1S7c9KPZOvZz6ezJP9d6u9GPCxbUY7AXjnjXmj68gHD/3JWf+DLVJ52XeLpXr0/Xbo3/v170v75IPgUqecV26/Kpmo1bx8kplf7STX519WXbSX5ilXIUnMU8Y66o8NyNuZR27pTilvxuzZudC43XO2J/4OMjfqOlxUa2B2pWlSM5CG9ahuIeMnHSQR5RlkJwuVayTonZGFNvRc8UlzsteOioVt1EuvTD+9OH9AQri4XjLWHCLelbnlmJ/oKvQbaEruyqPTXHhyi+UN4AnHZo+5TvDsfhAUvIvTUyCncHqEiQoaGBu9voff/LpbtfYcipG22CYBHRW0XQMKJi+ODwVn1H01t/+/S8mV+tn/qU4DI6nhS08QNmvGGqCqKTv9scTZJoDic9qyqqLYfHmQHtTbzmmd6kGiyt6XksQzNv23vWudz1942PPfOYzHzv2190MhbYLDaPtalmk20U2Mn0K6Gtm9pQteEI1axBX8mawpr/lkrxgNLYow4knv+Tuu+++t/6822+//ePXHhfPHntJ2kLn7vFszlbm1t+SmShLYbt4xzgHYcvQ480M2TFNUpquIhkK/vEczOBa28ZKAx7PSyjt5Zp3liahee9SZqdVnLm/7SKAuvfY9u0lXqie0FOEmla/IQNBGLg7TcAnYCoNuPbiOGQP5hgKBGSgT8YKqtg5ILaUw6GsYJFBoP4Tr3wp1BcvXiS+cHGd+MlzesPhE5fOA5+/eIn43Hm9SerCqr156oK9VaqtXqEjT1Z0uuWI1vDWB+gFEWXwcXPcn5X0JcWkf7s906Q5tkdX9nCRjyr6TuubojoWva+vqpkGeupbvguerj2rNW+65YuvO7Zx1VVX1fLW0aNH+b6J4qx9+PBhfBcx/mZ5eRnZ9Ya9rMN7i6pZ/dIlzJG5sYhbncXz58+jSWLe+HXhwgXeBkHcyRtQktfjzZaO4xDaPouOZObZAn6l/+nqtvBdNhNz8t4OWJSeKy/8m+nHNOOU5ZqkFRxFJecI1eO7unou+Buhe1cvavCt+r08JVuJMRt1q1XK3FuZIIrn8ktWEwBkrO3ZS6/JDgWIY+nK+vDT0sT0CR6qAdfwYOzEjmewAEAA4DkDgJhVMlasjZ2GXfmD8Xh7aThL0Htwsoo//VW0XW9pdHDlmLTsFUTe9qWOHnOLj68jCaK/7HZGjuhZfytQB+ZPtxsc6Xt7ZgWiLyktr8+gMk1d3EhonN6xmtf45Arv3YCeBmNtRmpF21J4p1Vj8yqv8VZDvfaXx8N0SQquhyFCW3/xMyxWmLfxHreatfh1bNaEpfhJzWW3XUolnNm2tJPLb3KWNCZVYWWrhWeK4p7vxUQzqJJDRDoKjHLpDuoN1MiC8M6zxHTp4rI8tcTE3LrwIIeijEJFRjkne5XK7UqboKSBpIG5aQAPZu216H0Fu6eK47mVtg1GZZ+0DRYHNyvW4ae+HMCO1GhgwXdQdNSNEzN0yQAymfm9dumsDm6ND7bkkb2SBzvYpkzS73MNFHOwIKXNAXTl8wS/BA54p+TSCULGBEylARRI6MsSVKqkYu7RR9Jjl8CBjOUBgGSXfo3N5VrWmsleyYPNRf+JSdLAcA3gwWyP36Y4ftraZzvENFlfgBpsu8OZJexkGpDDKcNEOVjR0qKWfvqKFxtX6k/ZPNMEWsuS/KpuLJ3mmIhnIppYA6Wt9HeiTJG9kgebSGOJKGlgNg1oFZFmyYk1y28rigbxvahR0wDStaSldaz+udlsQlxpueR+ypCX3zoEERROT1m4oaIvdA3JY2EnMxYkbbOBLyEy9dIqYtd+M+hUTjKFIRoobaW/sb3sqRHRm718iBFbQPZKOh2i0IRKGpiXBlIDm5cmp+BDhxfCFNkS6R5pIBgLYFoRUgObVmOJPmlgCg3ogUt//ERzgHL7awoGiXR6Dbiqg7bVLzL/0vpfzwJg3F8GOOQVMHV/Or2sKcfACfhgL/YegxFLoDBJsJfW6F2HAZVUmjSQNDAvDaQh4rw0mfgkDQzRQPJgQ5SSUEkD89IAczAGiYzmff+/OwuIR4zFO/dsCQW8MthQM00BJjdDubFV5ECFbFtps9GfrCvimB+2IL2lc/S298WzdjpeU5Aw9OjpHH0+QCIGYkqHlQQILHPEvBM8pQaG2ssOO6FeNQj0rrjUtmALaYg4paYTedLANBrQafqiqzMgtLw+JuA9yeO+1HQ5Fw2Y26Ev5LgAfeHw8YEbC39l3ml4sWYr606LocZwsoTdpgaKhmN/Ro0TkgfbppJT9qSBcRrob2DqFy14LxjgAAzFe2qKZ9OA69xjHyB4vCW3PmO5aYhj/JZMEsG0GojttWXe/ga2ZYZEkDSQNDC5BvqfaA454w41IBOwwxrQ+WstGxZv4Njh0hL7nddA8mA7r+NUwhWsARqYek02ZewpI+tBbTnRdeJ+rMCW640gHV/qDSZlQ+15fqlMT3/ZK9HmVFcRKJCVQp0+tNBN6EJB6wWKfTN/ao8cPOGspcZys8UM0jVKjO/yS9A2NDDUXq7nUtuRvXwMYsWNHCJuQ5iUdUYNYCqzlsVRa5yRXcq2DzRQep59IEoSwffB9MoNvFsKl4UGUgPbR2Y0B1ZE+0isJMo2NKAhog1LxAOAsaYDAekYJacwJw14G4qZOUbftUb//MeXFTPh/pFisEsAnI9fKnsKu6UBMxRHEIvyTPn9+k8ebLeskcq5IjXQfxbxilTC/qm0rUSN3QfzXtO9XDhav38qkCTp00DyYH0KSZdJA/PUQLFMr10ahVrgbY+3lKPLsM3Fhlf/IJMc9LtloPdNYSsN+EwJTfJxryKYS/Kn8Xw2BQ8B5QBfWaL5lWxVJg2WFu3IyF78/Jtv9nrgQfKE2UIDKN8VLiuMDrJIaZRgr+TBRitsJ1PcVG62MU1lJ0VIvHdDA+Ma2IQNdzfE3IsyvO/fuZLZ65rjdtcVbqydMxOcvQd0DU9b0LgGNi2vRJ80cLlqwEccM9SuaGChjfaxcL5pDNOnlh26HGNFTBCs4MAgcTLWDtnF2aJ2NOxKBiN7WBhaaEhKHmyofhIyaWA+GkgNbD56TFySBoZqIDWwoWpJyKSB+WiAfTC1MTZLnJ+GmPadKAaRDoMA4tIJfOErXEZSXG5tdY5LfJGWuuAwHWo7rNR0l3IQ0ict9Sq+YltGxjIiMIRqxmep+O6YLFKsVaZvfw0qcXoMeiZ4Pinadi9LxHB2l1urGF7LfYmVgVI4OBqYzV7FSY6h1QztNbTaoWQJuR804MbSUYLSm+0HqZIMyYOleyBpYAc1MNKDuUOczS3uoLzbZs35DILPr2J424ynYBBrNYZhYYMFm/FONn5UdpuMMR8gex+3KWRKpKM1MFSrspSd4EXrDg9lkDzYULXsLBJ7yCSpPeysmufGfTv2Sg1sbmaYllEw27QZE/2eaGA2e6UGtgfGwlT+2d49KDsVOb0GtmOv7vNgfeX6B8Pir1oNHYn25dr/l/HuVgzvsuSdjr1+ozypTelY0aZR0wlCLuZexJ1q1mYKxqXt02Csy8Ne06ljx6iDvaYtIXmwaTU2B/p0989BibvIYjv2Sg1sFw2VirryNJAa2JVn81TjXdRA0cBGOUFNDMrVZGC/DOL1XQZ8AmbQgE+Z4ngUk6HG8oxkccBsVZyaG8Un4bejgdhSQfmDDJMHG9RJwiQNzE0DWkUMvR3AmLY4tzITo21ooDSW/s6w6riNklPWWTSQPNgsWkt5kgYm1IA8GF6rE59ks3cbVv096R1tq2h3pfwEmJ/f6+Hu70Kc7OxcT8Z0Mb0GMJaCjNajcTk0Bd6tGF5uSe/Jbz5vqvTtteKxMy/Jys+rKo67RbGeHMyrC5l2jaJNRhc1q7SgaVfVp1d5YK0MEWGJ2gd/4x3gUremdCle5z89WFKPIfpk79azLyFdJg1MqIH4/qvVarQuP6cS8BPyuSzJRp6mH6ztfHrCQb4HAbMT5+7hOTgc4KbUeGL/BfddLrA7yXpN3fhiHWlzBjE0qrqeo243Mz69iWOj7843czxWdbNZpdVVKnX1/ZFraEfde+wb90Pt5yVPVMX9UK0kwwHRQOydaDa0ImJrRf7EjarRhz8gNZuzmP0eLChOnY2FgJm25LjXj+Fp+cyXPp5LxPD4UuJ5wmx1iTruoih48quNG8CPF6rnVnZ7zWysoSXFNa1VNNdaqKshLdc4SNlZWmhQ3CtvXiCu26PU3lu7/4UM/GZbV//+zjXii802h5zX2vou9WarSYyzBs/HwU344X39oN7I0hfm5m0iW8QWN/FUpmS2QO8RZAipARMDw2sVUyQ4aSDWgBYwrPFwpwV8u90O91kMO5KYEOgDDOAcQlJgeNkA/ftgc6xY3AfEcNwvzrG4MaxiT1WzGY7L496jkG3i9y6NqktcrzyLe3OJFveyUIbfGLGHJlkHyp2tv91edCjpWGSLRT1zoVQnljyG/b73RckjDTWhQ7VG1qi/8pYleDeqamANy1BdbNDwmJQRr9RrtDGWM+nmV6pa8/jxZ6/AqqVFxMov3LUOfLEpeKOlVBosMI8CCGUh9lpeydiCg/Agfclp679xfWPLbp1zMorkwSbTU6IyDahV24yLKwCCK4ZW4iuHXAJ7y3SagHdiYghICjTO4XKNi30wr16hr+K9iOq56BtY94lbYWjlQblxulM2bGbXbskYvk/iuzF8DmsH9BhLN5w9/SQJvmbV8dq4ILadVLMJuj//5v2Zc/GaFjJrZSzLO96bi5unBm0MLbjXxXTlJJf9uBM7087Bgtql27LXRzYCMuR521SNAbrFDZcNReSVhXZlMWdTSjXKKzJbp6IRYK0m29UrddheXVPdf+zWRVIbLBSycqhFw0q1Lv/DPAyMAi0nY5W+VrOmV+AqbdRbz+r4NKZsIH/8WfJ+m7n4/+KnV3FfF0yJ7Vb33ujxWrat5+OOYp+tbvts7rYskzRBi7V9tlbVbj4r3vnEPsrQQ6KaFFDcIbGHxED8PAN84ttjCJdhqC3MMCzLRDjvpSYi3VMi3ZhbBfpgSNyKeyrsPAv3SlOp4HDAhALiykLAZdBASAIfvFPICABBoIHAYbU7S4pjv0loew7ETGI4CAYr+IRyAz4m3m+wmnvQXQCmlFKt1Pfy6T8J1y7CqX5+Uz3f+Q1h2BcB3qxqGF53oq41RbCN4B2MZPC+p+yNhPc+rGMzohjvPeJCXdW3uURWt1487qLcO7XsdEKroz2cls0cmF9RF80aVGuiHm9WYITuSa1kNgVxPHemfpSJAF28JW4RUTSSaDsJGbqd/ha5BpNxUZk2qdpLi7UFjMcMqtax9YlarV73lb1jCyrr1bdoBnWICRZ390IdythrxZz9HgBj+rG7wlYIXdBGR82DQqrV2gZjilr22mcdhvh/v2OVcs/J92JCWcTtVa+r4R22/bTJ99li7+f3Q+GAxH1IcCtTT2R22xXvluQBce6NTo3fkGwTo3bKg+keQFM2HEerSO+YiQXbj4SyweXizTAH1fEaoWtsFAzE7R5rH5qQhEGHeq2YPobJGPK6q7FmBAAAIABJREFUN6OgPgK/SWKkyaXIkXDwvFCCGYWPOcwLpqwg/2w81WHAwoXu49V3OboAVbv4CrARvfrWwzC8tMm+R/ZvPs0eSPsSfqCTL1h30YrdxGimY1OG9wuUQa7yfID1oNbHMxlEEg2ns2zBsh7K5JGWtYWTveKmJWI6AfLGfL3n0+ZNlv3yHZew8flakyFV07xZ03Z4yEIqvsClBfY1Me87Yw9Ty9XLLFQbvD2jU23ltbY6THpmy4pi+FU1P9TqG84CjZr+C87OnxgkfCCZ1DoUoVLimolZu1Nrtas3bN73/V/zjL+95wtgWtQsy5vm1Veq6Kr66mcfopQFedvaYjh+Z12nWIwNHOrwdOnH9OpTXTnFSt62trOE5qrZUfmoSrPaoKxmW/VdqGqocDirVRuNH7llGQ6T77Otol4MbbPrljdRHztEGihGGSaDjEAQiimpGv+yTJIvmsyLi9wiEgkSYumc/8SW1zGASrUUMekN/XrvTd3WFXekB7ioCnbKsyvotnhvK7N3hC5VHCPbYDB96p4OubxsMNSIWOouDdBH45T7Mw7yAxC8Cl5Z3aB+a9otBex13GZFnLnHzso5e1ngHSD24DeMU9rYtbh3Y9gFc57kgnhaEwR5nFWoY7h1p2UYODggDzafUPQQ6rdWmFx0OqxAAb/u1mXiX/irS9T/C1WZKm/X1YfZHGbWor139N4hhoVxd8Lqn2lc98oiU8Bqtmx98+EF6KuvuElSLdZUfYQNtvS8LpV7oSU6/2r2v926CM2q9a//7o41Gtd5vAI9bktzkqzS5KJNgRSuSld83TKrLAA3bKGQM3tIcmSpulDZBCk9kA/eecc71KIrhUd/JyiGMwVqipR1KbvwJ93+FJn5VdvZysLyj91GjYoe5B13rQL/TzdpDNJgHlKrNEJ3PZ0Q3bJib0bV4byQy1dUG2oPr7htGWW8+c414nZDN/YPPVOT+AWbWTSs0Mn32X7xznVynGvr1MjFTY11azaJ8qECKg+hUHuNZc7q4SrerrpsNvphqzvuANlOrV37vl9+0JZXQ74eADlldHqHHnT3oquFLm7bkA/iVba1MfgBIEQI2y5hagYoK85johU6cdni1KEwHFx+6Pu4DaUPSOgdJju2JA5JewgEqRAJMZDKKwXewy7I5iqlIEr04lw/XLqWgq6gdDkhAw70EAR8yAIQCLasRah+Xy44kDSej5c4voh+DxY4eua4R+9ri1AyczGyfh/SMM+Q0T0SrNOgl2J2+/OfOIcuz5JHY9mCn9HonvPexfsV33xw2J8gqnTEjekEse9H6Qi3gvggp/C2ElX0TPaHvRpSrzJ5XnXbCuUuVjeRpGHriiyjkYt9GmzGWFvMLEISldVWWcwWNCvCDeT5YePzmtu0k7Nh04hf+vRFaM7arKxj/i1r61ZgagHNofom8IrN7l5+8xEoT63d8H+vP8LCpYutEi34tcmvKVNeEXfJ4FKVZH1/RWAB2aguPzSCKrw7JTUQ9GW0S5WJKvkxywFTXVpEDz90s9YMeWALjGtpWN6tceynDScyu2MrUmUb9G8uG+tw5buRhf+3yi1Y+xcruXxMV+yz+d2Sd7TPhgXp02uLyvCaZ2tGvabl2covfvIJ4gu5ZncMMIBrxVquWs4yrjnLjtqo6kdvPkqq798umMNa0HZAvlxvVJiFMzm2GwwagvRjfhgzO8Zj4U2TMbKHIk7YPkx5qph12KgFFaAJ2BKbiC7opINm59Yn1eR8QnYZqAyevbzq/+upLjNpcUYuvWrQuLsGE+hJIpdn9OqH1PhyfOlk2dEQSgfwEMYdlBvk3FEZBplTrheNSKS6DvvIAo0TOL1bx2HwAeiDY1YxH/CxfSldzYtWWd60ccapYHpmb2Mhtn7DeFCA1zMW1xxDUUSMHyzVz0w0qoyD82XG3NXaq27VvsebPn0hq2XskoG327LwRCTJ0h0bN0Oh/kBcq97rsPrG1lFTPVOHDl6+RQ1YcqtvU+dRtZMi7n9q5ruOm4/9sWdplH+0Kn8LX3L4SYWq6sdlXq/1jNxUR/oFk8t3vdi7owCOkiuvnbXTSfIse/Wtmi3827sugb+gA+JMPlWLI7Zu+Ypb5bUa1qI159PslOlHS5op1C6/7Z0x6uB0hFSubpw80SpiQU9d3UzGqzeiapSFkADFpAn5+dlsp5dWV9xAAdmw6iM8eV2uvt4hUM4XWDBB/dymK0E1kO6lZ0JxB/gFlS+flIMsXpnUFf6nrX02DuvTKhY4olKp/FNbBf3Fv9bpx3MbGvK18wWYH7dnAn70Nq1PLppN63Zv1O0GbNhuLSYglWXFLGcrtHAVYKadIY80WFmpOfyVWGUH70DQYODuNLHVQ5IDZPFOJXAYZOJJxM4nJohlQNFxkvMfH3v2QNN3Cd4ZEpPkAaTfpp7LkaFoKAmB4e4DyBMEi0sP+F0WD5MRTCtl6yoljMXrg2P6oNvYm8Ww1yhUECDOziUBJohBKcBO31fitJc0WjtJUIxNqWHBwYobXgZJJZHlLTpjidXtFUtBOLWmvr+ms9iMepH+ah1Wq6y3NcgtTzGoXJ8LVRfV5petb/Mey59E4t3rVL5l21hteazqup1n4yAEnDmLLYHN9TCBIBxhZ65W/dHbtNV1uKbUJbl9DgngHOjjvZ5F/zJclVYvUSCceTMG41xxIqSOY8yalKIlwjx/zbOuJv71T58ntW7zwH/yrKNgOL1XZZHKzgT4To6EJNh8CeKhgYyEUsVGgnVkIM7iEXenzZA5B1gWvazpocOEQ78F9GSSD5qFSsmLojBmfM4n5hbgoRLOC1mIZbdTPEKbhP8k3qy2IC2+1sYRv3rHeSrVyaS9V9x6GHhRdwjWkQ59d1Quk3ujugBKq9yRDcxsupaqLcCB2S6g/pYYZe8NxR3Wi5zzFRJwL7pkQVAvo0dcI8O/S3QLg3Lono6qRHYIwQTAYcic0vmHUgYZTotxVl6o542LBuPlDkrlxFatfhtMK0OiH6qBWLdYIbYR9H4ZaNTVljePI/vohxYxA5IGrVtfXV3vbRrzgiDcN+oTQ8sufJfTWlvtwQjPIJaYJTlmVXlT05EfulmtgpPUwE/STah09SuH5Aw6h23K8vKbtJZlx6/VJ5NKGhjvVXjTA5dvuXODeL2hfvACzyJpCiEndbUdG3zlbdrJ8XlXsRqGA9CipvcpFoeKoIVyfA+3IaHHmym9g1Nm3I9jpWDb03v1bUdUAeknq3P8odNZtqbUtvcuoQFyIYKOhLuqORDJgQnev0QV6Ujx9LK6eTfNncSH/yYM0tq0DSJb9dJKIUnjm6rPwaJpW7G66DUtUtHeMP9mpU4SuTYnoZyNZrRw3ZKD7dAJ6qMga185owYCwya691fderVS7S7itVcahNjqrkkFnXPz0gwer1vLNknUlXJLaoTbkmYUgdeNVN0WWmNQS+MWJA5sAcATh0BqHDxvcE0hO/TAxBCTSoDSY0c6ZaCJeW4Hdnm8COfjhQJ7iZMwhwkBJjGfSTImmjEaiPXp6vUYA43JtRNJch1IQ/EORGUUfYdJhmcoPIlNc0JLi9u9slbpG4YFX1FkZ4yyrlLXm5/Qua/aEZ6q5RScsXnFbSvcl4tV7TIxeEYXeuoInp0mDY8WpIGxyNtLde1c8ZysLnLl+pW7dGjfTwyYJ6wcsdWhhj1Ra31VMe/CXUK5/VDoQfIUsyJbtiw1Y39ze5ap7F+lanMXtrhXKoou13tdk9ds4d1QyclydaPSWMXYmAQy8vPTfX5j0buY1czpyWPzU60H646/tbFLl/+00Hy0OW2poh9ecqltdeXqxZnP+71tD1O0tabNTWQpPXeCuNltSLJWBvyOBfCAYgEUl25GTcZHGT5G4xqM9exx9+pWL9ns8F+/OVxWSVO2bccUFTAZSBXSbl/gWOKQi9oAd8pDtwFvDBQNZgxJCUga2B0N9DQw78x8pO5zFcF0curm7GY3obxtCLS2Xm7pqA8Y3qtYLqIFm41wQI8G87Kbzf/YNMIbnp7I0tv01I8s+IO+xaTBxpNF+Uqt2R4RExZg331/rZ1n49lcZKtbLhtgs7ji2axvKuaH42WE5dShq5D+rHFZMSw69zz9OazTkUK8vxw7zUIBbjIHBA/xe5TbX/RgoQcPUw4BJHnPzL/wQ1ajbsXdRpyC7cMX1Matz2s56Tbjnga2TV6TZA++iAoT2ratzGgwOLFJmAwlFhPX1pCbbBKuiSZpYP4a6GlgPg1gSkAAVj8KXJ5+8MLpJm1wZ1eDPUcPxnN0Y1pU2O6gScF60VY7Wuo/GDH7yWn1OkxTiOvW9Xov5K2HJ6nA16wU37tg+x6M1oXovTvikGl5j9DtycJrFYQd0fzcFVjGkTSeuv3YHY53E6GzQDnD/M+40uiP+TE5NWO52Kgxa8n/qfpi3rXWOFZD07oaHJpsSNdtMVsu7KV8Ph8ejy/sO/aeGVnybLkG2Pnd1YM2zl53FMvP7yc1h14bcYnD8EESqQRUHlyI85xEhz2lp4u5aMCMMRdOicm+1kCPB/Ne3Cc+wGqPciTFEN73yqxrNGx/vYb0Bf0k0bU6AzkdORQ/q1H2eSJyPxNz9DvSZbAZCtMP5XWZq/Yuh5qtEZW5yr8lN/EdHcrRuSi6OUfTT5sS94jMFD07lWK9L8BD1TqmIOTUr5yJQekwuoUzQcBAftdtjPZ5b4xxuFcPvVcldWERK8ft4s93j4Lt/tHEXmFOXqiUxf8Ol7OXJr4yy5gkOhEUgtmFlYhy4zQkTAccYA/GDeQHwKer8X6i9l5mP0mUZJmzBvBg3RbvfZtWDdXrKy5g+hp6pMGub27CqKyuHCVbChVeR9RJVO/i/XHL8KKim7ET9HqECkrbui9qUfg39SBhb0RZRoTB0kcQboEe1WPxvDM5m7y4iWE6u3dIzGMCeUfPPJfB2xuxgnYZhvifknbUX8rXipFzkAJLD0mGeDwS5x/57FZE5B15eQtIW8VZPVum8tRWpndpZJ1FK1c0rlXqKnnsOQP32BxnIdXm3sVohcsJg2t40F6j8INsR9fFZLazPpscomcPrcMh/HaryquwOrzZhV/x3KC1CB9/QebaJh4cL/QMEQdF2Q+YvlnjGJGgxLS8oWUMzV4lSfvWL2gDPbrp90qenSiXCno1ib1he0XLeNoh8E7IOAVPr8vkt99Q1pM2sHB/WK9UaMoV6nx9BjXYgn2OVNAMJg8VqkTyfiiq99lzdg7ah8e2X/HIhatLEk4wqApVe7vgUm0B+uc/Rf7W98fq5ocHe7uQfUsglj8mLvvyGDcObrfVuz/wxNkNjnDryCG7CuZxp9TJuDLKNDdWcbuXyG3+jUcBcIYbZ/aJP/vkBS7dP5vvzB9ePUb/Xi3e/Sa/kukbYiSq4/uGG9w64uDz3u1Yx72WHQcqhjexvUbZaJK6cHKJrrD2YPvcwnUrlUdZDuWZQL3Sc8pewiWksrMEdVQ7GbzzcHNOUg70KAXKnRZsEmFG0biEpE5er1Gs9gMeVQdtUyPgwXo5JuAD/X6QP5ZBNSlvaYAgcEwzLTypB4Ovl12+h6O/oLjniCWLh6VxZx1qAqM4L5chux0G5jCUyjq1pJ6Os4zED9jzwl9+TM9f+U4LD5zRuu56/DDDfeY2cMDWSvVObBurVT67g1VfGFmXXrpQl6bWC5mjbDKOb/C0rB6M5o1V6F9jfQ+BOABk0ZDSFVGSTfKXjPHhm8EsIijvoVBcICMpwA6U8xazgl6gpbejkLFlsp3UAVKGG9oXwjo8IXDrCX86Tv0d1MSfPntYpuWApMJ2rVPcM2YGt5FLPHi/zVYXKoPM5/NWPW9xrEgPO+uUkY7Rgg/BmFuFLBr0b9vyYKGYPsBviBluC/ggp3Pz7OGyr4j40mncM1g1e1QQU+4yHIQPdYnFi+FdFozivHTujyBknwyj8E6Gtp0gjkkKeGC/s/vu7/Fs+2SY1+X4QoPMcV2C8H3yTyvSFB7MWbMCRjP19Si9oTV0deYlfF+fN9oha7PZxPfEzSwebS8u6msdRbB3u5YX+uu5PnQ/7OkCrgJz/0X1mqR0yewk5KOrGiufwgvqXiGia1XpfkK/YTSjGlzsOePxeoz3Q5EbGzqtP0ldEKYroUGe68MP8ua97PSF+mZ2fDG7n7W2jay1WM8b5p/7suzCpWlKrYuqrWX6AmUcGg29cyTG+Coun/0CybPcvOL4ww+oCTXbx4jvabWoeFaz15JoFIFr1iNtD6+petcua60UHwg+87f829n2him6uJd6CzN6oYbYxcwZe61Ns477Lp52D5wc2k5dbuQ2rjDSgBMezQ7LxndgKGk00H83jKYckjJgg4IGPQLFt+OQzKNRntGZONUgJs5NapCEXHHGmGxP4CA5ErpsLh63I2FPRPJCEQxJkMolHJRkvBpd4YEm1AVMCPAEDpwdjjEhaaeB8YWOqstcpCo9mK3OqZeJ+q1ILPUF3CAWR+UOzG18LXFtregR3YpkKMbcntVOXbhdC18RuwzxrLXYIzFJkOE5V+udTa3qBhjnr6d/lar5yQ06lI9HlWz+DvrinVMmW6ulCvq6PXe4SC34c2vFSTlDuwjeL7rXWvN+0R6H8V7WFbJFXeIOOdRFrzrSGtqXnMiPdp6kG2+zzYI7EEG3xy2Esz9B+aMaAFTBWBB3UI0O37DlBMOtm26cl7c0cNnyfSrTRtseJrfDPOg24la8o0qNEwGIn3P8Ank7tmvEY9xgOG7KAQC33lMOqdZt07w/215YB3HL2adbR28eLEN5BjUq15LcOk7XjLyWHgpHGNspbTHAsrGMctg9MFtd6jV2W/NrG8eubj3Muxcxuvij266YJlMUSaVW7QgXvUElxs4GIxBBxWwjmHY06oNVHxthNMlU87KC3El2zeBFlxmVvWSxLZH6xJj8sq8uLhgxIXT5k3PbOUrXWxyPLwv5AwGwVxOM4+PjNZ4aiAONW6bkMn/reLleo7j0QdhldrznChiyj+ndyDIJf3XwQUHjM3gqHQ2Af2sr/qKK9xZ8oALlu4je08OeInz176NntdjkjiTu6DW+VT8nYXK+PJLnz7+BQgq9gwH/6LqW4E8v6Tz+Q5c2Sb3ePo7y4KrynrBX2vHFEPJ+6GH1o9aRF++m/Xs3aCbgPaiPy3zfxs9BewP1DtQnRD7jcj/GS6vIW0Qm9Ix1yfStD33UpYrwrHmiF7pDmBW3GTXiPY14IPpK1b28+1R6FEhS7bQyF3nkiGBSkN5dHTw65/FwjRf+4qze3cgoQBzOKipFE+wevmNrnt9g1jH7UiVe81h5nMXETucpy+oWH9nQd71uPLxE/MgGp8vb1y3J7noRZqXyoYdNfhsx+btS3Dr+Uv9B6yhP6ZHdOq11mw/7XCs6Pej3G2Mw6P/8C6pLx97nNVtdnmqinFlvrdWXeFaD28l/kiYKZr5x9up2/1GuPQa9d8c8sRwgwXjsNxmputXsLgDDJTHBMXHePYT76mLy6g52AGn3ULZQ9KAY0+rQjUUuZ+W1juNQ1rScQ8apAFevZ5m2xHDjeXUGlTOVJPoILxkCl1iagOzjCE0xY+HJrLKXo/PlxinfyaF268NVJ/AMfnrty49rh6Tt74XnzT+M/m0E/9CmPM9jfg7AZCpKMefC5or2V3BSeuFE0fbQhTUoYp1/08SmUjm+pK9dPXVRbyS/67y96cnG4i5p8YgzFJLW73WDDeO9I70uV9aTG1btQVpy3zVbXTLOLeC9cqZienSbx67xqGHegb744S15ugg8lHHL8zsVAdAVUpldlA6ZyzfKUp46PEaHUiMqbLVsRrRhM7dnX/2kcRb/us24OIZHQQ+tqaxH17Wiy2veSXbr1BEOi6zrLfzhYT9o4AsGQLCt5bZsQ/PUIfEP1gFmkiv5rSpFtYtZn6zgKvJ6unXa5kVdPy2T2bXl2nDY/fCzr74AB8dMWxf2KYvbACW3ayx+1tr1agvjuB+FsfSP5DhxAUIUIVScxEIFZdKu/nWNeIcB7JejJJCspcECJRhgkgKG7AFW3aO+YxTnueC90PF18SpA6cRzKXeHmEwlobclYgLyUE2v6VDZAmdonHgo2RyRocRJeFIFbipiZpIALuQkGWMaslOoB3WrpMVxTDo5zOyh7IZ6enrvZDlCDiu9Tp7XBBjqoXX1BDcs0/51vFyB/h3f6OtUZipHW1rl9AozzrxW1QrV9cu+h0ZFOjes6A1TjPqdDPiMfGDliVWpacGOu/3x/UUif7yV+mokpxaRx7+RgW8klSzEhTasU/K+qdd3zVIXzVUUmPNojUZFSWXIY7MPm7i6H3NZ45hsEon/4Y9dxDTTwtSTn88rynctqO4aeDCOsNHEdcumDa1/0oWpL2YiQmwnGgCsL7fRxLX6pEmd0QFVwyIS01ra6SX0XS2+BmqUfdaByx/fTxcpScTZ+tBqR59Q+/obzQD2zLv7MV+rdNfZMt9QFGTF8dVQclm17K+BM9cFz4x6rlpqLDBBXdCjJGzg8bNHDkv+E/zVusJuBteIlwhcXsoFmZZGyuI3mfcrwFgijlt+eMdvROPhS7eA8C0dtQzGjaBYYxyCleqgXU8VxRKLUVGB4XUh1e8eJwuXU5W4C8Sun7IukxZILmWxGBv5WBGA/BZ3Veyce61DbjVNiL10jyctezSd85mtLuTy7FhNvcWsoWhg/nyO+qbeEA8trX/rSQ6iI4r3cJ7ss5SPfkFvyHAan31VbD3wL7+gbzH5iebHN8S17Hsst43X/S3whTTWdz6yrqunrqiXemRDPdzpFfF/eB0OnVMNwbajkvko/0bbyWEDA3yPwXL1r3/1hSPgN9fEx7dslla00uW69PMKheQ21fjoF+Qz47r4N18+fVZ18V5zSF3kJOBvFHhK3UOSlveIMAtrs1wKcwxp3/WybqC4EUXZa1XLW6SKnQX3gRDKTGiJXz+JasTPKlHkKv2VLs/Vrr3joc37rpb2vBaffNI2Fu36zJp0zqKn0oyzW0TzYSnVGpXem1t96JJqeiPjkUrlIVPq9cuanT24qotTDZ3k8P7l2kOaIT9lSf0jJ0hRqT6WprLFoWLf8rrDrLNuq4VLfspnge+EqYIE3hrvZSuXifURWzP055HdRvKJlcqouqigMoyqyw28vr6SP7na3KwsIL3Yslpqjx2SVQIQSnULHGEv11hZ2o79lQSXS5i5LhhJN0g5k9xbfYRazCYPdSHMUAUvl7yh3AAM5UY7JEBDPJRg+0iryix1maToHRkiuuo9vvm4VnKYCqFZ72Ns8cp6XHoCq9d9m/rj5yoeWfVnvbzld3Xa2xP0XpUVpTcC1B4TJdoYvehYIkfs3sL740LOMvvQvz11OaYzJXU/ZeIsMvXQOmw9vC7HA8+i7nS+nNdkXY4PQ9P3e7cdiKYECu9kRaMReSqDo+r2cORl+FwX5+KZ0OaVlfyJp52oHj8sr1IEmwvJGapeGuPdv26do2EeWjsBpm2jDHihHCzoRrTsyuVv6rfLnsitYx6jUtdrKznzQbPRex+4N/y9IObHfABUjBeYfcLF25gDxGYUSTVonYbPDH110UZMg3Up7zRZp9SVZrlxXTgtRKruVVeILmYJO9LABgXxfstjmhoEaFZkHpkS8ciDGfchZjt1Gd9b72ZlC1uMLdJp/CbmXg60pTOxWzBgJwPgWTC06RmzNbjp5t7hMU5cl/hOK+symfTTU41uYNYA1KalkuGMleJtI9J+H+ljq+oFr1uRBs/YyuFpe3boTFPmOWHLgc7f99DozsCvXbRvzusLW0U4tezmVB98ekWwz+Kcm87447siI7nQj2zqOeKnLGoO8OC6vM3php0mYTksIgY/SXhsTWcIrlvWtw+f2NR5y9OLUuBjTSloSF3sUdu1i6umJdWlxXkGNlM6+sgY/SibYUwswBOgCYYHlBbKEJqly2yx0kMVQt6AKbP2/PWe29freHciU01Oz5y7tF494mdl9E6/6w+pRo9u6KY/tShte1/Obhiw72Wt2kmaSn4IIfheNro8vaRcrvMblgX7KYpB6+gEi/yV5OfMB4Q3Qp9l961Kt6eX+HAyPqPfOkED0IwKbp2n2L1hnLGUaAfrUtxpZp2Lq6sorV05QrlxXfzuOnVoabG1Ya/bFCupt7zhg87B99nLMU45SyekoqYJiCXJpglYetos07CfndaqMmNduEtkldGd0exibS+nV4p4kvuYoqD0Wuy3uiCYa8JrNIlWdrou6mwI3qup3ylFdPz2Y21uMdq2MUA55bAezlizQW6ld5/qrWkXLb/f/APfaFSqeSexwbTW8/X2Cr1XYisMfaDiYl3USiy220QxW9Cz0jrTqJN7THhCUN+ObIN10Z5fWZfOYptBgfaKeCUH/cc85mBFVbuzL+RDMF+3DOL1A/Y0A704P82mOCRZ1IV6MA+J9GmUxQ6V0WgFlhqtay7a6dhQRLMUP0hYlFNwK271iJulZ3YOg3c625WYFnPCwlIFkxn+uHVUfwWNaLJiZ8wQUV3smvGOWcee/MjaK5J3oC6av8UK8ZzTxEUDmybL1LT0i+Fw09SZ91mG7dRl8m51lyvtjmsqG9HMEHKnJzDT6sEq4t3dFFl3tC7FWUTvCmP3xSSAS2L8T8+EIJLcJQMhyhEjn+vt0VjmGhjj2iXzLUZ5rXYXKp88p/0ojl+LiZ2Ia9lxANYSYViz5u/4hzc1Rn/qinq+B23/ysf6tg9WuW7Rd/FJJIgb0xzUfdq+lymP0elwqgCeOScB8R/cHuWJSq+d97S+NAgFHMoZkYTwfv36hmZfXpeTNtPwU/mnrJRPPtmti3d7Or+SVR69pLpUxYY3WFBVduKKfhZ80dGTaAGMSh4bRGPWQUr97EQIDxLw1WsY8yquLUJVc1EkZLWO85rHVlYutdelK9ub8ryn+IBxJ//Ukzp56NYpNp80MsgeuaSa+vM8MgSDAAAgAElEQVTsCEN4nCec8/x6e/rr4TWNR65fkkUGreMrrlpErVav9a91mdKLe8PU4dZREapgUR/dY7Yy7HMb91Fa05V1RFlYJ9fTGNcva+1EWHbhBupCxQn6rnd1SF2YURNutDn/Y6ur6/W67xLCCryx7EaG6Ud2k71dxdc7AQex0ClBlbMGGfBxoY4khibGzwYHLVMuHLbPM8hsVZm6Lqr5POo1mzbiXC6G68crFcOhmgFwei4ds51aOIdYGIfdRoN4MMg2KldMH8sGN78MGQMwx7rEpQ+FzUcMTZkT8qEmb3Co3mDe6cENreldZ/v6rO+Bp5ehtl95/KJKs90VFtZQxKPrQjy8Gu0jWXNzD+NdU+FtRMiIW+2n6LIMo6e52p3H1ZniOXVekd6UcOPhOh0ePSgJPlz3duy9oGWVT1Cwjin2By7z9XyZnvMK61YXW598dF0HQzlrSF2+4ho9K1Bwtn7kYble3k5hZz4oFjfDfMCmBErY1WC9jKmJiD6MN2l8YXV14eoFpiyPrKrC1y83TFfyAwChRv4OQy7B36+PY+dnNo7p6GiheU7YE3Q7+ZmMcmalwuxrL8UJVarvEwaYn1kXH38m/eE1qcZXI2Pr2KQbH8U+Ig9Gi1s5slBdylm98KwcYoWnWLt6aEPzqxtW9Ezaw+v9dYmt82BUF7+L3De6/NwJxc1AATOF+P6ZicFWmagnlSQmDNJiMEKMhwzMUOKYbEvYORA7gOrJ4vGWeUcRwGo7dbG69lR2VEG7hndV+6FBV1QMx2K4mZwG/FxsFPN3nn2YcDmJ6tw6gQ9Z9rAuQXItC7nuAioAISmoNSQ5ELQ8igAypixGrPu7nuvNu8xnoOcMWks9iwL9Oazus3OJpzmaxn2MT2I1rKPOn3cJEl+70KB55Pb2omuXdDKNN0eBZ3+MsNHUyp7v0vh7hYg5Jt+0hw6GrpGGWnsfs35pFW7xlMjhpjkyf7bNOjNkU09hzyJTCatApc5pYxRJH7Kgey+7309LNqRer0ulvUFKe2GZY5Z62T7vz9YyHlthxQqq5PFdR+u0g3jiUE4nVIaNsQf7KiWpq/K+qUgvkcirUOpBNYaOP5tMrZiGU65ygLCn1JCQtVLrj+BAjYAfsNHHaXthsj8b4bcv1SCVeQ55O7x7n+eabS7HY2bYpbSOzmq4XTqZTXHavONdokJffPnNzkORxSsbqg9fAs+Yqy6mH/4KZdGgdbinSPQ7gVk8sM+T0Q7dvPuuB5s+kpK/9bp4oX5ylScDpB58V6dzzVJtsbVWfLgO6jIgniTstZeENx8LlVJNxB0fIlIYBbtg6MgBipe+JITdjxO4LM9SmMQ+gm4fiRVzFOGsnHlcRDCYF+TZnSAIE+faEo4LCvJPUheIXQ9BG1uWtaMEcUUoyHXoSGAXknoRJhEDMvJ6xg7Pb2JxawAAfdZxylAQlxBQhFM6zGVcrnFWEy2RxjqiiZIkrJMReymhLoG5iEaHvoyjCSdKGdfAgtwuaFm9rfmGGkJ6ckFFeH/AGQjgTXu/0nUr9Pmd+y+p/8ZH0WkyyiZjq6PpF9MlUVZ0srvVEs0DFn/Rirg9dFG94/WLRNX7z+ttUye8Z7XnI9bbomcpi9QTC7o/Nlt6h8fJhjSOJNKgzQlJIqikMngPV/TQ5qna5j9toJ4f07vJkVZ30qkV2XvNnNrJQ/LJ91201I7eDdjON8Fs5lFdOssco88aOIemZGA/qM47r1rGsihe4umGtjtjsju7FFz9FHmZnwCoA7ZgcCBxN8X8UDX2uxp/eryxcq6yga6uXUKrmT/4c9LOcNx3TuMCTq+LHrGxjp293BSCa+2D8c59tPF4R5Z9Kuu07c5Dm3ry7bQ9s/fQpQHr8BaNvLJJ/RmV2Eoj32SB8ym5NL2UBDi2DmRwa8iMjEmY8hHUX0NG3Dbr2csXK8cWXPPCX7coJWyicN0bqu/9XhdqozmhrNM062zaqmsz16GPZluSnNX9mVMXyj272mrWlsMqIjRxgLmJMc5ehW+Js80XRggCPIkZVCC0XyKZA5gWgMuAGSMANHAgS4g9r7OKM0Ljl842xADgPY7px8PQEyjFCyLmkix+6Ul+6UkBE7MNuWLkXsEuucuMtEGfwAQXNdBA5sih0qJqyySFEJyV5x3k4zQeQ0lGYi6dkktgjwNlYAXgwZNiMmCSYnxI9TshpDr/+DIUBAAeeVwkv81GUca5xsDmXpAlkq+k5galNL9NLbYt7XhRJdSBLNYlFatnT+aaNa1ad/PxJ45C9ly9qTz7xNmjiPsse1PCnz1+GBp6Myp0yd4NdHxZc7K3PfgRYh/fr1u/+OmLKv3Ww99M3pONVap973mtyB1vaL3u8xdXwB9aepLO+1Or/y8Yf8qrcUbqXjCdf//Tng/86Jpa8g32RJm9XrbD++LBVyvq+Zo2l8CHgpFUYHhRIL60olORn7rwIeA/t3W2htULXmC+92lfT/zgpQ6HVteqS1Cez1cxz/sf+Shxk/VGQkd9PIN5Ur+x8T8wbWiwEaMfXhsBVAp/JMqw4MdhQ4pnjanV61s1ofHZVLgEg71ikzmGOJcnbq3X2aY71ziiieJja9L/tYtaxb1/XXf5ur03ZbMta16zKAH/470fpkJraIWyKqrRnReksa+/7nngV+1uaTJr470Z1mwucm4jq6xWLhB/au0PoG/b2VR/w5d2QiuVl2CdnDVA7THeaGMcNvTA+9v8a/bGq5btmOkoDNaxbaymPfW8jh/qWkczK+b5YNj6Av7Op30dnO94nLuuvm4yn+9opv37D31UfPR2/WJmWNP4vfqcY19DvGF346o9wouR84qtAmMg272EOXmphxkO+zJTEYagZqlH1NX7O4Z4lFkDwbYAl8ZZAFOfUj6XspCsj8ApkRJ6wlAJqIanQuz1AfDAZcCQF2QfhxgDJXwcE8eeEYw3defQR+ACeBJ8PJVLx7uEjgQG8IKIPcuWsef1umxJPC2BC+lFeAwHr0W4jHkGSgAXCSDUJVQ/SEtqCPBx2BmG7I6PS+nDkAuMl+KwxyELl0GGQOAYYjdBIHbmMQfPDiXBCwIT31rAcfYZ4HFzsD52PcfvLM1nLE7mzyDTWSLrW+79PZT43x39NpIWWT3TvEWNe51X6DFvyfUGonX1oHqeHMx/+PwfQqPnRfP80DWaQW3yrFSW0RPCje0Pwl88/nvg77gogV/ytK8Fs8YmTJ5/8tIHiT9uc7nqcc3Nim+C2Rojp/Lg8NZ7P0wuXuRE/NKnfi3xxabmDy07QcKr++DABJC8yAae1wiDeNv9fwC4xlpmp7N8jW4R3lwLBsmAa7bu9h8+/0Ewmc0qW/bKkb84L25L19ikvPSKyLBpo//fu+NPzhzauF5PZ9PmWEDTSy740TXDGr5QIjIcCHD2GGCqQK7Ah/qHvMV6nUkFUsyrNWzCqQfgzZa8AW4MPawy18oqlzRfy99+74cg3sg0bzl0XBpoqO6dTk224wQ6mA+c+RNy/YmMln3f078G9CUbJPzhYx8F3rAVxdpxzX+yTotlS79bOM4O/Vvuk3Ua1tf/wI1uHR3/wTrEvIlRJziQNFiHAUaev/0BaX7NZoaLxyT/grWFvNrkgpkfqW/9uz8Ez/u8gG3RlJNDssvyCdXCn4z2L8u1Getk2dvu+xNuSJvaV1/y1G+kxKO1hTq1xFZ6BZnGHWQcGiiIQDmhi3Gy7TbQvsKsDGkN4Tw4AXhvS4EeOQjgISYmBEoAkCEG8Hc8ADglGWEODJkHkkACO4Fz49KzeGrI7ql+6TIAewjZPS9IAMpyIKQCBILALcYAOw0x2f0S2IUsCtvqj3P2eCvaWdJdYEQis8MecwmSQNFgHI4LAO8hILmELGTs4+b4wBxiMH7psOd1no6BACDguXSM05DXAccTB4xnD2V5kpMNZonJSKU47rSA9NLDZShrKqDwYM7FhfP8Y/hC5r6rbX22n7srGrcq3m5dI6/18Uf/H2Ke9SG+7cQ38vemE48Dv+O+P4X5haZmPryDXhWzvnDpmHbimfFA4zs2+EMwVUbDnax2jVYCqx2NsN927wdFU5E6FuwBaH9a6SJesXwqjH5MY2MdG8jqx5sI0dH3dbNfu/ePoVnkWLsYvxD4ucfktd76gM8utOrVzDVrappna5yQVOcNJonSMSZ1Wfc9kFOarFRs3L96VqXr7L928iS5XuSL1/A3QNo70xePLLT8KKBIG/yqzP5UY91PyCr+NgOEkXFQr6HkKEgMo7caKsExgcTY0PGCdt5FimvJUcyu+Z1fvPTxez/5nOueSblH7EMv77j//yPXJZt3baIDrGNH6FeO8Uqv6kU7gW78YS/f1a7J1vUT8jm+pvf2ez4SJGkcl/xKwdvYmIKtKa65ScDYZErWoQNrmXV+9Z4PgR+0zv8RW0fvEOs07c5pXKP+q7COLbXIOijEetuFU5pPck38hTPyydwF0PtuVbWum5+bgDjP1pCqcZJZNMuoICpv+7v3kesrH3nG2aXOySYnPTutGk/y8Z3LficGGQHecPDSlb8Ms3gwMbIQAL+kmD6AS2gInkTsvUK4hIAKc+lknupM4qRADxDoIWAF3/MSO+B8iEl1bj6JcozTkOQdlRNzGfBggMGEUsDAx5GBHgKnBO/BmRB7IHsJ6i80gXOM3w8wgiEGcagml2HI4GITEwKBX/YJH+uB6hPABBqy+GUA/HKodcgbMgKEy5DXmbsYQ6VyShcpFsNZETsQJ4UsoWgwAZ4ZKDzYVPkpuFiYslU4NV5MYgMNujvgjY7W+kBAuWmH7t5+z++D9zqsnFSGRfoR7UWoh1M/k+erZ7V/wqSA1MY1miPV+bg7Xo5xuLbVrWll8jBVcdDUjD9PPrFBrqVT2qvoNHUqnBkQ8NoX5Jc4T0C8URhaal26RlskfD0MPn/62G+T+vELKv/QCUnVydQf0xqgtNc+5Zee8NYlky8cU//Hi+Ulrr3tiDEFjHL8WZ4vn5AMdRanWBc9o3nm0nHmMBzrF392e9jra3LaBK8Gm061XWvxIzPVQFdy19YO5Xi3Haid/Kzqop9KkbqE8cC0Bme7udCsHGKO+gFVSCrJFk/qxAPnCSGtd3ReVA9d553Vx6RnHlEge+OY/D/nAKH30/FtfTMM1yy/VD1Z5wWGMAR+4oy8+sqpqrwOFUSvelgtW3tSemYCTqx1PXLJvNUVs05Hw7Tso4/9Dvi/sDXkI6d0BqhjK4F6ZE3WkRUuPaGZIbmhXLhaUlVqmmXhccAwDhFns86ha+WIa3oyMV9/zOx1re6E3M6s6HBqu3IpX4PD+hMqakEDl+oT7QuXFponVYlihVbQNKGnq5gm4zha7/+Qj8p4cGpgAOpP7LAD3o1Rq0AgZRpNwDg38oaMwATPCzEANACel5gQiMF7KgC5iEkyBoIB3KcBe/DswJA5TOwcnCeXJa1oQhKsghghi5cIPRjPHvLGQCAbQxPTTwUH5n25HE/sVqPouHQEJpCFGLxdFXoAGSipcoCdHoYEkAQALzQkOZ44CONK49JzOSWXQZkxsYtBKkiHiQMHRwbOXHqSc3Z8ECmQBXwo2oH/v71zSa7jWM4wXgJBUU9QuvLQHugVd+CpV+DwxCN7Pd6AN+IteBOe+VL21GGH40oCLUokJZAE/P35d9ep8+g6fVAABILZgWjUqcrMqvqrMrNe3T1FucI49XP0YMMeV0zHAw3OmFEyn2tmxFxlI9NnmwHshDBiXNgnyG0icU5099/YL5c1jnWb03jwLKzLr/FUj4iFpngxWGD18AuN6fdjFef5GWcnWMsT3A9OtWsS2hA2kjMQcSJxL3ZCDnk/PtMtzm1cHvz6NExN2LkTPuqs9+iqgpQQOa8vZTVffK93aRzoBN7+8Sk37KpK+BOlIp/QGlaLgkblee8P3A7D7u69PJM/vDyUnX7/02Nqz4st1Hj7WmqyD38Vq5HRMYjXl0c8R33+VD7txbNfWXKMDTB9aIU/lY3pFgwCS15Zm2Pj/phRIrvFJX9OKanXYBwtIaCWs1KhQp5ZmGPo/R9DD1ecT6BDBh0DiKdnPx38JcWnPYjYe8l3pOXxJFxvDKHyStl78Bc+bihBjDW4AyKt/OFjxfDFAOyKZ1YXl6/4QRKostbK9QY/fXl4/lT4c4oCHE4+15l9v/mLSCihIobWgf7wQLNltw7Tbprh58NY3Y35DwjBondi8Vz05/HMuwq+9/LHGLPwoPKbNx999p76Js+Oa2TL9JvuTJD1SDWwv346vMuZfsFI6v+kqCRxPXisef7rM61IMwJSwUBVOdRXtJh24bY8Pj40Us165TAVMC81pIiUjxjsogPE+DJNIebnSpiqQsndAdMXXsskErHcHe8sTFnuJrCcQulU51hLqOPbYXI0ge/IJ1BXoY4n7Fx8N6XLXGpk+hu6l3w3yqfYpTqEywUXYbOUAD/rMK1M47r6pS4Q2BO63ZFTOoCllfI4UFqHQF0SiAsB8YjlIob7nFKV8hReM0rKKME03EvBnKNjCLtqTr3yffRgIUAeAxAjx1gnHN7+gymWKxouK/qg7mPk0v8XP8uTPPyE8+9MODSzOj/grBf2LKrn8+NaMxvywgApHHm8icN5jx5jtg5ZCaSer36Quh6dqqnkEMathvMzlYFFOuJffa+WOuT16LTo42gbF5iVMvk/TZtePpU0ZmtQHscMEF+CBB2Ao/F8Qk/1x2YTTQJBvFr8ENHew8/Cx8aa4fMfZcUfnYZdDy89ZMgEREtVGlM9/1E9QxaT36+V/sGHfBNLRygw8fs6Z4KxtNeNvmsRynvWJSsKIQ6QmQQ9W65NTVaLYdNoYX3DfgOqmHTy882bo/NHpyesyFFVJo/E82SDUqM9AImwLiHksFKidZhvqfP8doYVf33C/IcPW4p0cAW/Bj4Mg9Q6P5yrdUJn9mMPKnqXqEFGBb5gNiV1PflCMnn2jBZngko42o4NQxHrS5mldSKsDUQBoFK9rz7DrpkkvIwV3YefPCDfozgwwnIYWcFEjKWdn2n0gYeC3v7twanmaa+fYjrePPyCWd/ehy9OLo/PD14I4RivLXX76M5CSq0cJYRo5RLW13VZ9ZFGHVSNsAEOOIlyFJqpTE3guyUUFqqNNBiJpzGKhBIPpQlKkgOOh6vEw+KwMSpZFIJGQGjSJHFfYSw/XYxSX7JzRhYLWbnqjExTU9ap1xt2LhSDAJJ93ykLsyDBXKUVSuuUgNGAstE6dQHq1tm1bEWOC+Z+Qtg/kUapuEqZCZBUuKCnkOUn4cJoll3vUnfEWUoJFCk7SRd7cB69kVh9rUsLR+z2MEkhFz1DRbzfsuAqYkOIsffwvgrH37XnFK2OSWY0/5zDBuNs6vwpcjAysj0np5pl8RknF5Lwwf4DyvDqjMdZUSCC+w8+VQz7dXpDR1juo9inujjkRCE+NIo7dK9FSSgRCd7Zw2KqhEH4Ok5yIJvSYZvhjilPOCdOQpy9pAx8Vwra489inW3Nqv3yP+eXF0ww5G9wmjqhUNlErLbgQTTGOnKk8PF/cSMmKqw+MfbtIdXxFalnay77InoMMYI41PtFmM6ocZCGSJl4CIjkDvgKh2djoCDGKI72+gjy1SzKOpRf/9w6qAet80GsAyOQeNPvDau7MRNjTHNwwGpk5PgG53tEF2FFUqDueYDh3If91Wg7OSC1i0rl2ZSeXwuPx/38SGXg+6EiYYGWxVtOkBzyrWWi9397+isx/kYC/pYofdkzvBklUYBTiGeU/RwgxKuZF9qoabKINaE74E/YjJc7Hr8IDERjUvk/hX4huLaAOt+8S+0cly2ZK0/94SaayjjMTwKqW7QioDjV1YbLAcgIc61kbq6VyJ1+IqEW4iy415HrAkup1pNuM8aFpDDryFyhGBtbBzm04Ep9/ZNMSzxhrpVM2xiuEK//dMeQRo1DFZfQeTkMV4kkTBLExJB1XZ7OkkiVqaqlMF7HRFkZPXB3GEtb6uDxa83lJPsHD7yOv9COkEfhWBaEPzzFF6Ecsjex64NdtEwh67zG9ysofnijA0tIfNISs3HB6p9G5A8/1Qen2OsgPL65IVxYTBd4YRR1efC5Tnnzzj8oX/2gJ7lec+rv4OBhrGR6h0TzMomw3XHr6u5XMjFKWIRjbua3NdiKa+Fvb+/ksaD75c/qQIdHknPyWM9cyweobIqxeJ8V0BRpb+/DTx9cHv5G/JAzUeOlMo/hxn+RyaDI0NhDgV75I+9ZUshAU0VNYJ8/e6Ei4w2joPbY9L0og5FR0N/jZneIsDwOFEexbxn4uHUYU4CAV1ndH0BG5dSmG98yFTKev726OKb3v/peK3jnMUd9tNQ6kh9OlOqoDMHK/9VS4UGJ9azyKE5FXh6rRWgLUPrlz5rf4p+4H8dZE14wLfr9V3ytxedvLt5b1PGDz1VacoT3xZn60s/PnntFl2YFmZgALugRtfVyibeSzSKIhl+lJFJljvtq2ozfNJivKVokjyTDso+zIxI7RNiMtknl55S0neJdXzoKwh02+3oudepOWdw0sbG6Wi7UmqvBW+NAc/DTl5vMYbNbDjENaTOTShYEyBQuhBt/JzmXOlwkO4mfJdDfcJjhhY55LoS1IAPNMbhmV9kjdVuUqJfW3CQh5PzyVCcwHurTk6zRKcch17BAmEQRxqxpSMFNaN1Pe1Ynw7kB2Z4YDIKXuMfpi9o4BsdyjoJGhcZeyo3sP5Y3O38mP2a/dxBn3mTFYoeEe4jVXIIwuqJ4ZMS6YoRVC9MHMIOHeE/nTC72jhkDvX54Ko/Nd3zlAplzjhZ3mM/gYuVuBSVj+lJ1fnIhjj848UJldOCk5j04wpNICJ0p1hKJVfOpTpuuQH5EOHbb9i8++viDX376byQ8+kwvGBlWUMeVXkmJNjq07wpvwPtEiH72lPvhh3+I8UL0E+CLHhNty8xXzBq44LsYfxFQOeMFkYfstnGdivL8mfadIBS1ix6cItAVbV3FDOOpoWc6lXoXrcCqCksa7RVfVznY+2j4+pkYLmKedhinizgBS8xhnD0iRRKi8loCZr2XUziXlx+/eKQH5/TWGB3A4TE3egOpXKRWhXLchrtk3dBlQOv7VEbQ1Bdk9U/sED+neFfiC2MxisQIi5DgVLOUSH7ODENZ5NcsxLdtuXO8s3fXZaVG80tbsJ1iKZJNaTLCOH87mTp+SsjWeISUq2RBzFbGKQJ4S8lN49JO0W+M10QiLmvakr4V6SVgUhd6pegec+u5L6xCzHAwI9BgT/h38on25k3jAXXtG2UK+MPg40fYR4KFS6f7YpfJO0W21gEXNtolWbkP5i8S4xACA39J+9grWswWSFqq4oqArT/F7FmBZxofnGqTRQaTS1WnHmELq2a17XfZ7GdYK2O+40s8stxN94XnkfPxnzlW70gD4VgM1ES6cdlPyqVikuPv0eP3YdcpPdxsVOMw1oFd0zEskR5w4KgJf8QJG7WSfH4stQ5WTHSbr0Av6DlJQ264CkbxH3+qnIdeMZR8c/uOUiVn+rI5lqCPTuVdtZUpD6+YoQcGs77QRo1iDjn0nIBmWFsO/6aqye9xqkgPUruuwT331i7rXClb6SioqnrVy/XcibuwOFB+7iSkQXwtAjHhjSxuLYmmoTrzG6imLDiUQLvYdZXL7Ggmb1tySS3SCJRwSb1CoNT3CtLwYDa8cbrMYdQ6Lopi0fyakUfIGRyE9NYzOtn0sPESGTo2rB+GMbRFGWPk63i3uhiGUsnOM4ZXRMQqsOmyra1TMMWwaGanSyN+y7m6loeg+hY1UsRQtDBW6/JtHWtGpjNermRdWEIwk+tsNQMzIk2KqBH3MugYWkcFkOtSG2n+5VFDsK9Itu8aBYMMZ8YvHoSJR9bgQ2OeVuM5hD0ri/Y9cBnssod53ShV/425Y+qwYpjSaAat+bEuYgb0mu1rWeO9llmH1QDDbx8M1Yx6cI064kLqUq8TrVcEzOdG4U1fxNcIMNrij3EKf8McFYp5V3SKeaRJdV0IzLBW15VVyrkGBDAEMl5x7SoOZZUtYXAJpwVtFOEk7sWtkx0/RWwvEZbMbzBflzCOfWUz/BaEyFAmQVfY75pmMUMjadJSBm/kPn6bS/JrjzG8FStoxt28wcYF867hYDKn9/FsEW03N9jyBX0donYc3ds/YtGtOfVa8GAHYxqG4Y83gthTbfF7C/aNoZApj+RFwWEltkavZtuPzzxeDo9jy8YPzb6r5xlQsmU3/nW4znPXsKQNXjrWCev5lX3U6MMXlEueKmZldYxg11AM1I+O2H+l5dpjjbUiu25r0RlxkwjYTmGqMFI3mU/Kvh4EBkeC7d69vTBFXucLD4ZTkkGT1sVjo+wORhFjD8eFxYaWTjFaC9HbF22yf9bhylaFDRtnaJYad4/yw/aMVoQc2BHbbiRH+kpaBEdWWVzbsAhc+eZaiH20hRa1XX7x2AT8LBacajk20yp4La5xHwcOrLwNsFAS/rzrRCpXOBcyYfcG8EtzDVJdElqRPxVm9KKjvM2ZDwhH6xjJNv1mKYvYBZJTbbeg3T00zLWC0fW1DLeaY9bDm/KhnDQPZxhVYNqLHT0CAnne5Z6xnRbRXNvp7gXFFHzXhUCRM5XRvUDx/lSibq9ddWBJwWxVrN/YJ/5KONZ6nL4KXG0hVtN2+r00h1nze0uiVkuydMJ6ifIqPwqgTea6DHV4M1Msa5EEZbgsDrjwrNS4hLaZZ1ssyBt8BxRuGlYTW6rbd1sOb1+66zjlnaZSa2TW6zzYQQZv2u/b3ta1BPfjOibDN45AUeD0YDeO9e+dwZIHs7ZZ+7Ve8mZ49lM7SjKN69q48DM+C+834+2q5dtAaNqM8Hsex9f9tXTibcJvND3wibml32UbGOqQm3INi8io3iWgwOzZKHoc30eg5ZJYs+VPpy9orGEfiwMvelulZUrCrmMac761d/deF5jyaxkAAAmRSURBVL8Or8fUqQ5P+jFeIakvUrNr6YfgNRnTNaO9lhTsDqKqWsy+diKeLTUJ33UEism7QgdbUjB7Cuux14jq8DLM2GaM68K3+Dnl8k34inhBU9MP2yimW5p9VaxvfXBR96U5mOuFWZRlvHolka6/cSaGoDo8Jdfe3quIrOVuWM6d4rzv8cNObIw46p5c9Kpo2nwk1kd983mTMhF4JxAoelU0bX618WC1ji0eDBmEeoajMxvDWfhx5IrpxPbuMH5bLdOS16rLsLD6qyzbf99NOaqRz7l5DsbhGa/Q8gj5ofdYNIliwiR3pqUqpmeQaHiscO3tvfrHi/60FslLImJ2jB/UqiRzMbyZdg71/NI0WguUOKIwHASdpt6UspCwNCrZRNqMu2tyNhe26JWaaBx3zGyvuoabpWdsIpAIXBmBI3ukcSlrTQ76qos7SyYRXtz1dIwSK180vldD0btczmUXjs20d1eOcdbmF698iFMUfkP9JU9GcTJxeNts1CpsJM6NP7iwlPVCz8AbrtBvQHGMTmyKkYYCBIWxnax+aRbtJkN2tFQ5oYe7u+oc7O7ivLlfzI1d1Ou62is92Fzsky4RuAIC+//wN3+7kc0aLPs3fU3TLCzBNHedMqXn902OEdObIrjCsfj5A31BRk5J8V7W23VqNEiO9ppG07ko83CBGplE6L7hHNXi1luv/vaaaouxhPk/EUgEOhDY/6/X/9zBHhYiFqy0fDVeDO6vflUzusXk4Qri7owc76jYFk7XyOjJ3nk+7N2qsd7b7aDHGkMuI9vKf9P4rY9M/JRapmcrpPN/3hmchyJ3l+d622t7y82HOikTgURgBYGjf/3ff2OZXwv8e3t/+o9/L8ll7Z8YVqR4OpD3JkH27bffFpqVwPXIifeqDuX57knJYufy3DU5wHhbOBs9v22yp72KHFrh66+/rt9XU9qFzrGo10R73TU5t9mf47t4C7QUAo4C2ZAS6rdMtfqrVgCnpZwao1vFJzImx/VMS5HWkza01yiH/2gXLIOqFClhNapfCr4Fcm6xP+v1dIDy5MkTweeTBPW2SwXeN998U16lX0UPwRuRE2Vb7wrOcofy3DU5t4LzV199tdnnBHzz26vI8bcRVpp+SU4T57smZ4f+09FewxzMxol7CdQ4Op6YRoOZvrCXQMpZQYAeaTwdWEkliZhOnC3TPqeWvx4uzVQC6zRFTuO9toW9BO6yHArJRQk7cZ4j5+i7776zESqIwOaY0gO+/PLLjUXBpJX4lFMALIHfCx/mXcyZKcaKz9m1PPdVzm325+GbF6VPlECtdbZhbrNCQKBol1+QVLMUsjoy5RRYSuAm8PGKFFms+Jxd2+u+yrnNfqjNELtLOa7S7GPklA2rCPfwXf55A3IWJbLwq5bnrslZ4NdXr81y+F5ktSu5oHFofnvxEc6YfSwkuLQ2CpvkbMb5rsmhPiu+fVHDvWvuz0tzsDobh6dsWKGEoIQJ0AC1SS5JKcdQ3A4+K41SWoHASlK7PCvEluP2XUl6u+RQkRXfXiDaqV5z5OirR6DD80UcxObjhEU9yprPii2EGLk2AE/+80/Q+12zOm1f5HAaIRaUoFzIWVg3VWdSTiTFuxo5mXeP5FwXPjPk8ElCQRzXJM5z5MR3k7fImdFe+irA2PqT5blFOQM03fjMkRPvzR6VAa0oijE1TkUoNDYAQT6wAFzhdbyzTzmGJfEp3RFA3p3+M+yDlcrTD4rP2ThOdaTXDPlKvRnr3lNiUk7isz4Se9f6z2IsUXSsrDWtowPNRtuzMnK1qJRTfFfiU3rXu9Z/jobvjwQArNEVIKYCnPkgCZclgvFxMb47UQbZRP/RcsZhtyjjqtdDUk6NWOJTo3Gf+s8GDzZoQ/PfRpPc5NicmHI24zLGJj4jEpv/33189v/xn/5qc9knYhn2eMY1OLFNZFNPJY0OTzwpZx25xMeY3Kf+c0UPtnF6tt5jtsaknDZEic/bjs/+k3/5+3YdInVXPaxnWzPEJ0kicE8R2FVz7ikMWa1E4GYQODr+67+7fsm7vumhfo9CXZq3XU5dlzo8Vd+aZk7dU06N2Hr4DuCTHmy9WTImEbg2BI5mvVdojiWoi7Qrfc1bh++rnLqOU+H7Wvd3rF7pwaY6eMYnAteAgD9Efw2C+kRM6fmuq5F3Tc4UKlPlrOnn1D3l1Iith39/fOaUYL3cGZMIJAKzEGh8RWoW/zURzbHWc7K6a3KmynzXypnlmWopx18dn/RgbWQzNRHoQiAVrAu+ZE4E2gikgrXxydREoAuBVLAu+JI5EWgjkArWxidTE4EuBFLBuuBL5kSgjUAqWBufTE0EuhBIBeuCL5kTgTYCqWBtfDI1EehCIBWsC75kTgTaCKSCtfHJ1ESgC4FUsC74kjkRaCOQCtbGJ1MTgS4EUsG64EvmRKCNQCpYG59MTQS6EEgF64IvmROBNgKpYG18MjUR6EIgFawLvmROBNoIpIK18cnURKALgVSwLviSORFoI5AK1sYnUxOBLgRSwbrgS+ZEoI1AKlgbn0xNBLoQSAXrgi+ZE4E2AqlgbXwyNRHoQiAVrAu+ZE4E2gikgrXxydREoAuBVLAu+JI5EWgjkArWxidTE4EuBFLBuuBL5kSgjUAqWBufTE0EuhBIBeuCL5kTgTYCqWBtfDI1EehCIBWsC75kTgTaCKSCtfHJ1ESgC4FUsC74kjkRaCOQCtbGJ1MTgS4EUsG64EvmRKCNQCpYG59MTQS6EEgF64IvmROBNgKpYG18MjUR6EIgFawLvmROBNoIpIK18cnURKALgVSwLviSORFoI5AK1sYnUxOBLgRSwbrgS+ZEoI1AKlgbn0xNBLoQSAXrgi+ZE4E2AqlgbXwyNRHoQiAVrAu+ZE4E2gikgrXxydREoAuBVLAu+JI5EWgjkArWxidTE4EuBFLBuuBL5kSgjUAqWBufTE0EuhBIBeuCL5kTgTYCqWBtfDI1EehCIBWsC75kTgTaCKSCtfHJ1ESgC4FUsC74kjkRaCOQCtbGJ1MTgS4EUsG64EvmRKCNQCpYG59MTQS6EEgF64IvmROBNgKpYG18MjUR6EIgFawLvmROBNoIpIK18cnURKALgVSwLviSORFoI5AK1sYnUxOBLgRSwbrgS+ZEoI1AKlgbn0xNBLoQSAXrgi+ZE4E2AqlgbXwyNRHoQiAVrAu+ZE4E2gikgrXxydREoAuBVLAu+JI5EWgjkArWxidTE4EuBFLBuuBL5kSgjUAqWBufTE0EuhD4f1m9L0LYw3SCAAAAAElFTkSuQmCC;points=[[0.02,0.23,0,0,0],[0.02,0.43,0,0,0],[0.02,0.79,0,0,0],[0.26,0.32,0,0,0],[0.5,0.23,0,0,0],[0.5,0.43,0,0,0],[0.5,0.79,0,0,0],[0.98,0.23,0,0,0],[0.98,0.43,0,0,0],[0.98,0.79,0,0,0]];" vertex="1" parent="PMkHhHRLikVArC7X6fYa-53">
          <mxGeometry x="162.5" y="75" width="158.63" height="282" as="geometry" />
        </mxCell>
        <mxCell id="PMkHhHRLikVArC7X6fYa-3" value="the next top pipe&#39;s vertical position" style="text;whiteSpace=wrap;html=1;align=center;" vertex="1" parent="PMkHhHRLikVArC7X6fYa-53">
          <mxGeometry x="275.45" y="15" width="100.68" height="30" as="geometry" />
        </mxCell>
        <mxCell id="PMkHhHRLikVArC7X6fYa-5" value="" style="endArrow=classic;html=1;rounded=0;exitX=1;exitY=0.25;exitDx=0;exitDy=0;entryX=0.02;entryY=0.79;entryDx=0;entryDy=0;entryPerimeter=0;" edge="1" parent="PMkHhHRLikVArC7X6fYa-53" source="PMkHhHRLikVArC7X6fYa-6" target="PMkHhHRLikVArC7X6fYa-4">
          <mxGeometry width="50" height="50" relative="1" as="geometry">
            <mxPoint x="172.5" y="395" as="sourcePoint" />
            <mxPoint x="172.5" y="305" as="targetPoint" />
          </mxGeometry>
        </mxCell>
        <mxCell id="PMkHhHRLikVArC7X6fYa-6" value="the last pipe&#39;s horizontal position" style="text;html=1;align=center;verticalAlign=middle;whiteSpace=wrap;rounded=0;" vertex="1" parent="PMkHhHRLikVArC7X6fYa-53">
          <mxGeometry x="82.5" y="387" width="80" height="30" as="geometry" />
        </mxCell>
        <mxCell id="PMkHhHRLikVArC7X6fYa-7" value="" style="endArrow=classic;html=1;rounded=0;entryX=0.02;entryY=0.23;entryDx=0;entryDy=0;entryPerimeter=0;exitX=1;exitY=0.5;exitDx=0;exitDy=0;" edge="1" parent="PMkHhHRLikVArC7X6fYa-53" source="PMkHhHRLikVArC7X6fYa-8" target="PMkHhHRLikVArC7X6fYa-4">
          <mxGeometry width="50" height="50" relative="1" as="geometry">
            <mxPoint x="112.5" y="241" as="sourcePoint" />
            <mxPoint x="162.5" y="191" as="targetPoint" />
          </mxGeometry>
        </mxCell>
        <mxCell id="PMkHhHRLikVArC7X6fYa-8" value="&lt;div&gt;the last top pipe&#39;s vertical position&lt;/div&gt;&lt;div&gt;&lt;br&gt;&lt;/div&gt;" style="text;html=1;align=center;verticalAlign=middle;whiteSpace=wrap;rounded=0;" vertex="1" parent="PMkHhHRLikVArC7X6fYa-53">
          <mxGeometry x="22.5" y="122" width="80" height="30" as="geometry" />
        </mxCell>
        <mxCell id="PMkHhHRLikVArC7X6fYa-9" value="" style="endArrow=classic;html=1;rounded=0;exitX=1;exitY=0;exitDx=0;exitDy=0;entryX=0.02;entryY=0.43;entryDx=0;entryDy=0;entryPerimeter=0;" edge="1" parent="PMkHhHRLikVArC7X6fYa-53" source="PMkHhHRLikVArC7X6fYa-10" target="PMkHhHRLikVArC7X6fYa-4">
          <mxGeometry width="50" height="50" relative="1" as="geometry">
            <mxPoint x="112.5" y="245" as="sourcePoint" />
            <mxPoint x="162.5" y="195" as="targetPoint" />
          </mxGeometry>
        </mxCell>
        <mxCell id="PMkHhHRLikVArC7X6fYa-10" value="&lt;div&gt;the last bottom pipe&#39;s vertical position&lt;/div&gt;&lt;div&gt;&lt;br&gt;&lt;/div&gt;" style="text;html=1;align=center;verticalAlign=middle;whiteSpace=wrap;rounded=0;" vertex="1" parent="PMkHhHRLikVArC7X6fYa-53">
          <mxGeometry x="22.5" y="215" width="90" height="30" as="geometry" />
        </mxCell>
        <mxCell id="PMkHhHRLikVArC7X6fYa-11" value="" style="endArrow=classic;html=1;rounded=0;exitX=0.5;exitY=0;exitDx=0;exitDy=0;" edge="1" parent="PMkHhHRLikVArC7X6fYa-53" source="PMkHhHRLikVArC7X6fYa-12">
          <mxGeometry width="50" height="50" relative="1" as="geometry">
            <mxPoint x="242.5" y="395" as="sourcePoint" />
            <mxPoint x="242.5" y="295" as="targetPoint" />
          </mxGeometry>
        </mxCell>
        <mxCell id="PMkHhHRLikVArC7X6fYa-12" value="the next pipe&#39;s horizontal position" style="text;html=1;align=center;verticalAlign=middle;whiteSpace=wrap;rounded=0;" vertex="1" parent="PMkHhHRLikVArC7X6fYa-53">
          <mxGeometry x="201.82" y="395" width="80" height="30" as="geometry" />
        </mxCell>
        <mxCell id="PMkHhHRLikVArC7X6fYa-18" value="&lt;div&gt;the next bottom pipe&#39;s vertical position&lt;/div&gt;&lt;div&gt;&lt;br&gt;&lt;/div&gt;" style="text;html=1;align=center;verticalAlign=middle;whiteSpace=wrap;rounded=0;" vertex="1" parent="PMkHhHRLikVArC7X6fYa-53">
          <mxGeometry x="22.5" y="305" width="90" height="30" as="geometry" />
        </mxCell>
        <mxCell id="PMkHhHRLikVArC7X6fYa-19" value="" style="endArrow=classic;html=1;rounded=0;exitX=0.5;exitY=1;exitDx=0;exitDy=0;entryX=0.5;entryY=0.23;entryDx=0;entryDy=0;entryPerimeter=0;" edge="1" parent="PMkHhHRLikVArC7X6fYa-53" source="PMkHhHRLikVArC7X6fYa-3" target="PMkHhHRLikVArC7X6fYa-4">
          <mxGeometry width="50" height="50" relative="1" as="geometry">
            <mxPoint x="212.5" y="125" as="sourcePoint" />
            <mxPoint x="262.5" y="75" as="targetPoint" />
          </mxGeometry>
        </mxCell>
        <mxCell id="PMkHhHRLikVArC7X6fYa-20" value="" style="endArrow=classic;html=1;rounded=0;exitX=1;exitY=0.5;exitDx=0;exitDy=0;entryX=0.5;entryY=0.43;entryDx=0;entryDy=0;entryPerimeter=0;" edge="1" parent="PMkHhHRLikVArC7X6fYa-53" source="PMkHhHRLikVArC7X6fYa-18" target="PMkHhHRLikVArC7X6fYa-4">
          <mxGeometry width="50" height="50" relative="1" as="geometry">
            <mxPoint x="212.5" y="285" as="sourcePoint" />
            <mxPoint x="262.5" y="235" as="targetPoint" />
          </mxGeometry>
        </mxCell>
        <mxCell id="PMkHhHRLikVArC7X6fYa-21" value="the next next pipe&#39;s horizontal position" style="text;html=1;align=center;verticalAlign=middle;whiteSpace=wrap;rounded=0;" vertex="1" parent="PMkHhHRLikVArC7X6fYa-53">
          <mxGeometry x="342.5" y="387" width="91.37" height="30" as="geometry" />
        </mxCell>
        <mxCell id="PMkHhHRLikVArC7X6fYa-23" value="" style="endArrow=classic;html=1;rounded=0;exitX=0.5;exitY=0;exitDx=0;exitDy=0;entryX=0.98;entryY=0.79;entryDx=0;entryDy=0;entryPerimeter=0;" edge="1" parent="PMkHhHRLikVArC7X6fYa-53" source="PMkHhHRLikVArC7X6fYa-21" target="PMkHhHRLikVArC7X6fYa-4">
          <mxGeometry width="50" height="50" relative="1" as="geometry">
            <mxPoint x="212.5" y="285" as="sourcePoint" />
            <mxPoint x="262.5" y="235" as="targetPoint" />
          </mxGeometry>
        </mxCell>
        <mxCell id="PMkHhHRLikVArC7X6fYa-24" value="the next next bottom pipe&#39;s vertical position" style="text;html=1;align=center;verticalAlign=middle;whiteSpace=wrap;rounded=0;" vertex="1" parent="PMkHhHRLikVArC7X6fYa-53">
          <mxGeometry x="376.13" y="215" width="91.37" height="30" as="geometry" />
        </mxCell>
        <mxCell id="PMkHhHRLikVArC7X6fYa-25" value="" style="endArrow=classic;html=1;rounded=0;exitX=0;exitY=0.5;exitDx=0;exitDy=0;entryX=0.98;entryY=0.43;entryDx=0;entryDy=0;entryPerimeter=0;" edge="1" parent="PMkHhHRLikVArC7X6fYa-53" source="PMkHhHRLikVArC7X6fYa-24" target="PMkHhHRLikVArC7X6fYa-4">
          <mxGeometry width="50" height="50" relative="1" as="geometry">
            <mxPoint x="247.5" y="105" as="sourcePoint" />
            <mxPoint x="352.5" y="118" as="targetPoint" />
          </mxGeometry>
        </mxCell>
        <mxCell id="PMkHhHRLikVArC7X6fYa-26" value="the next next top pipe&#39;s vertical position" style="text;html=1;align=center;verticalAlign=middle;whiteSpace=wrap;rounded=0;" vertex="1" parent="PMkHhHRLikVArC7X6fYa-53">
          <mxGeometry x="376.13" y="92" width="91.37" height="30" as="geometry" />
        </mxCell>
        <mxCell id="PMkHhHRLikVArC7X6fYa-27" value="" style="endArrow=classic;html=1;rounded=0;exitX=0;exitY=0.5;exitDx=0;exitDy=0;entryX=0.98;entryY=0.23;entryDx=0;entryDy=0;entryPerimeter=0;" edge="1" parent="PMkHhHRLikVArC7X6fYa-53" source="PMkHhHRLikVArC7X6fYa-26" target="PMkHhHRLikVArC7X6fYa-4">
          <mxGeometry width="50" height="50" relative="1" as="geometry">
            <mxPoint x="267.5" y="-18" as="sourcePoint" />
            <mxPoint x="372.5" y="-5" as="targetPoint" />
          </mxGeometry>
        </mxCell>
        <mxCell id="PMkHhHRLikVArC7X6fYa-29" value="bird&#39;s vertical position" style="text;html=1;align=center;verticalAlign=middle;whiteSpace=wrap;rounded=0;" vertex="1" parent="PMkHhHRLikVArC7X6fYa-53">
          <mxGeometry x="31.25" y="35" width="72.5" height="30" as="geometry" />
        </mxCell>
        <mxCell id="PMkHhHRLikVArC7X6fYa-31" value="" style="endArrow=classic;html=1;rounded=0;exitX=1;exitY=1;exitDx=0;exitDy=0;entryX=0.26;entryY=0.32;entryDx=0;entryDy=0;entryPerimeter=0;" edge="1" parent="PMkHhHRLikVArC7X6fYa-53" source="PMkHhHRLikVArC7X6fYa-29" target="PMkHhHRLikVArC7X6fYa-4">
          <mxGeometry width="50" height="50" relative="1" as="geometry">
            <mxPoint x="212.5" y="185" as="sourcePoint" />
            <mxPoint x="262.5" y="135" as="targetPoint" />
          </mxGeometry>
        </mxCell>
        <mxCell id="PMkHhHRLikVArC7X6fYa-32" value="bird&#39;s vertical velocity" style="text;html=1;align=center;verticalAlign=middle;whiteSpace=wrap;rounded=0;" vertex="1" parent="PMkHhHRLikVArC7X6fYa-53">
          <mxGeometry x="120" y="15" width="72.5" height="30" as="geometry" />
        </mxCell>
        <mxCell id="PMkHhHRLikVArC7X6fYa-33" value="" style="endArrow=classic;html=1;rounded=0;exitX=0.5;exitY=1;exitDx=0;exitDy=0;entryX=0.26;entryY=0.32;entryDx=0;entryDy=0;entryPerimeter=0;" edge="1" parent="PMkHhHRLikVArC7X6fYa-53" source="PMkHhHRLikVArC7X6fYa-32" target="PMkHhHRLikVArC7X6fYa-4">
          <mxGeometry width="50" height="50" relative="1" as="geometry">
            <mxPoint x="222.5" y="195" as="sourcePoint" />
            <mxPoint x="172.5" y="45" as="targetPoint" />
          </mxGeometry>
        </mxCell>
        <mxCell id="PMkHhHRLikVArC7X6fYa-34" value="bird&#39;s rotation" style="text;html=1;align=center;verticalAlign=middle;whiteSpace=wrap;rounded=0;" vertex="1" parent="PMkHhHRLikVArC7X6fYa-53">
          <mxGeometry x="205.57" y="15" width="72.5" height="30" as="geometry" />
        </mxCell>
        <mxCell id="PMkHhHRLikVArC7X6fYa-35" value="" style="endArrow=classic;html=1;rounded=0;exitX=0.5;exitY=1;exitDx=0;exitDy=0;entryX=0.26;entryY=0.32;entryDx=0;entryDy=0;entryPerimeter=0;" edge="1" parent="PMkHhHRLikVArC7X6fYa-53" source="PMkHhHRLikVArC7X6fYa-34" target="PMkHhHRLikVArC7X6fYa-4">
          <mxGeometry width="50" height="50" relative="1" as="geometry">
            <mxPoint x="365" y="185" as="sourcePoint" />
            <mxPoint x="347" y="171" as="targetPoint" />
          </mxGeometry>
        </mxCell>
        <mxCell id="PMkHhHRLikVArC7X6fYa-61" value="&lt;h1 style=&quot;margin-top: 0px;&quot;&gt;KAN It Play Flappy Bird&lt;/h1&gt;" style="text;html=1;whiteSpace=wrap;overflow=hidden;rounded=0;" vertex="1" parent="1">
          <mxGeometry x="-30" y="620" width="280" height="50" as="geometry" />
        </mxCell>
        <mxCell id="PMkHhHRLikVArC7X6fYa-63" style="edgeStyle=orthogonalEdgeStyle;rounded=0;orthogonalLoop=1;jettySize=auto;html=1;exitX=0.5;exitY=1;exitDx=0;exitDy=0;entryX=0.25;entryY=0;entryDx=0;entryDy=0;dashed=1;" edge="1" parent="1" source="PMkHhHRLikVArC7X6fYa-41" target="PMkHhHRLikVArC7X6fYa-69">
          <mxGeometry relative="1" as="geometry">
            <mxPoint x="506.0999999999999" y="1033.9999999999998" as="targetPoint" />
            <Array as="points">
              <mxPoint x="395" y="1002" />
              <mxPoint x="563" y="1002" />
            </Array>
          </mxGeometry>
        </mxCell>
        <mxCell id="PMkHhHRLikVArC7X6fYa-64" value="KAN" style="text;html=1;align=center;verticalAlign=middle;whiteSpace=wrap;rounded=0;" vertex="1" parent="1">
          <mxGeometry x="97.53" y="1000" width="60" height="30" as="geometry" />
        </mxCell>
        <mxCell id="PMkHhHRLikVArC7X6fYa-69" value="&lt;span style=&quot;color: rgb(0, 0, 0); font-family: Helvetica; font-size: 12px; font-style: normal; font-variant-ligatures: normal; font-variant-caps: normal; font-weight: 400; letter-spacing: normal; orphans: 2; text-align: center; text-indent: 0px; text-transform: none; widows: 2; word-spacing: 0px; -webkit-text-stroke-width: 0px; white-space: normal; background-color: rgb(251, 251, 251); text-decoration-thickness: initial; text-decoration-style: initial; text-decoration-color: initial; display: inline !important; float: none;&quot;&gt;Q(s,a): expected reward when taking action a at state s&lt;/span&gt;" style="text;whiteSpace=wrap;html=1;" vertex="1" parent="1">
          <mxGeometry x="480" y="1040" width="330" height="40" as="geometry" />
        </mxCell>
        <mxCell id="PMkHhHRLikVArC7X6fYa-71" value="" style="endArrow=classic;html=1;rounded=0;" edge="1" parent="1">
          <mxGeometry relative="1" as="geometry">
            <mxPoint x="-570" y="1180" as="sourcePoint" />
            <mxPoint x="-70" y="1180" as="targetPoint" />
          </mxGeometry>
        </mxCell>
        <mxCell id="PMkHhHRLikVArC7X6fYa-72" value="State space" style="edgeLabel;resizable=0;html=1;;align=center;verticalAlign=middle;" connectable="0" vertex="1" parent="PMkHhHRLikVArC7X6fYa-71">
          <mxGeometry relative="1" as="geometry" />
        </mxCell>
        <mxCell id="PMkHhHRLikVArC7X6fYa-75" value="" style="endArrow=classic;html=1;rounded=0;" edge="1" parent="1">
          <mxGeometry relative="1" as="geometry">
            <mxPoint x="-77.5" y="1180" as="sourcePoint" />
            <mxPoint x="300" y="1180" as="targetPoint" />
          </mxGeometry>
        </mxCell>
        <mxCell id="PMkHhHRLikVArC7X6fYa-76" value="Q-Value Function Approximation - Deep-Q Network with KAN" style="edgeLabel;resizable=0;html=1;;align=center;verticalAlign=middle;" connectable="0" vertex="1" parent="PMkHhHRLikVArC7X6fYa-75">
          <mxGeometry relative="1" as="geometry" />
        </mxCell>
        <mxCell id="PMkHhHRLikVArC7X6fYa-78" value="" style="endArrow=classic;html=1;rounded=0;" edge="1" parent="1">
          <mxGeometry relative="1" as="geometry">
            <mxPoint x="520" y="1180" as="sourcePoint" />
            <mxPoint x="800" y="1180" as="targetPoint" />
          </mxGeometry>
        </mxCell>
        <mxCell id="PMkHhHRLikVArC7X6fYa-79" value="Take action (greedy)" style="edgeLabel;resizable=0;html=1;;align=center;verticalAlign=middle;" connectable="0" vertex="1" parent="PMkHhHRLikVArC7X6fYa-78">
          <mxGeometry relative="1" as="geometry" />
        </mxCell>
        <mxCell id="PMkHhHRLikVArC7X6fYa-80" value="" style="endArrow=classic;html=1;rounded=0;" edge="1" parent="1">
          <mxGeometry relative="1" as="geometry">
            <mxPoint x="300" y="1180" as="sourcePoint" />
            <mxPoint x="520" y="1180" as="targetPoint" />
          </mxGeometry>
        </mxCell>
        <mxCell id="PMkHhHRLikVArC7X6fYa-81" value="Action space" style="edgeLabel;resizable=0;html=1;;align=center;verticalAlign=middle;" connectable="0" vertex="1" parent="PMkHhHRLikVArC7X6fYa-80">
          <mxGeometry relative="1" as="geometry" />
        </mxCell>
      </root>
    </mxGraphModel>
  </diagram>
</mxfile>
